{"glyphs":{"0":{"ha":543,"x_min":-203,"x_max":565,"o":"m 337 877 l 339 875 l 339 873 l 337 871 l 333 871 l 333 873 l 337 877 m 326 837 q 344 817 326 832 l 344 814 l 341 814 q 322 833 334 817 l 326 837 m 239 833 l 241 833 l 237 827 l 248 817 l 246 814 l 237 814 l 235 817 l 233 817 q 207 806 233 812 q 135 715 164 773 q 102 661 128 697 q 79 608 102 649 q 61 634 61 619 l 59 634 l 57 626 q 70 606 63 626 l 68 606 l 66 608 l 64 608 l 64 604 l 68 604 l 68 602 l 66 600 l 66 598 l 70 598 l 70 592 l 64 592 l 64 580 l 59 580 l 61 578 l 61 576 l 57 566 l 59 553 l 57 551 l 57 549 l 59 543 l 55 539 l 61 539 l 61 535 q 53 531 61 531 l 53 527 l 57 527 l 57 523 l 53 523 l 53 521 q 64 517 64 521 l 64 515 l 61 513 l 61 511 q 70 483 66 511 l 68 475 l 72 469 l 68 465 l 66 467 l 66 463 q 75 450 75 463 l 70 444 q 77 430 77 444 q 57 418 57 423 l 59 418 l 70 422 l 72 420 l 70 418 l 70 414 q 81 410 81 414 l 81 408 q 70 397 76 408 l 72 397 q 77 404 77 397 l 79 404 q 96 382 96 392 l 98 380 q 109 376 98 376 l 111 374 l 111 370 l 109 368 l 109 366 l 115 366 l 115 361 l 104 355 l 102 355 q 94 368 94 359 l 96 370 q 81 378 81 374 l 85 382 l 85 390 l 83 390 q 75 382 83 382 l 75 380 l 77 378 l 77 376 l 75 374 l 70 374 l 70 376 l 72 378 l 72 380 l 61 378 l 57 378 l 59 380 l 59 384 q 50 388 50 384 l 53 390 l 53 392 l 50 392 l 44 388 l 39 392 l 42 394 l 35 394 l 37 396 l 33 401 l 26 399 l 26 401 q 16 418 21 418 l 16 424 q 22 467 16 450 q 33 473 26 473 q 26 477 33 477 q 37 487 26 487 l 42 493 q 28 509 28 498 l 31 511 l 31 513 l 28 519 l 31 529 l 28 531 l 26 531 l 35 549 q 26 566 26 549 l 26 570 q 37 586 26 586 l 37 588 l 28 590 l 28 600 q 39 618 28 607 l 35 622 l 35 624 l 39 624 l 37 626 l 37 630 l 42 630 l 42 632 q 33 638 33 632 l 35 638 l 33 640 l 33 648 q 42 663 33 659 q 48 650 42 657 l 46 650 l 44 652 l 42 652 l 42 650 l 48 644 l 53 644 l 53 646 l 42 669 l 46 673 q 37 679 37 676 l 37 685 q 48 691 37 690 l 48 695 q 42 699 42 695 l 48 705 l 50 705 l 53 703 l 55 703 q 61 711 56 711 l 68 709 l 68 711 l 66 718 l 75 718 l 72 720 l 72 722 l 85 730 l 90 726 l 92 726 l 87 732 l 87 734 q 94 737 94 734 l 96 735 l 100 735 l 98 737 l 98 739 l 100 741 l 107 739 l 109 739 l 109 741 l 104 741 l 104 745 l 107 745 l 113 743 l 113 745 l 124 749 l 137 745 l 135 743 l 135 739 l 137 739 q 144 743 137 743 l 142 751 l 140 749 l 135 749 l 120 751 l 120 758 l 155 780 l 157 780 l 159 778 q 170 790 159 785 q 174 798 170 798 l 176 796 l 178 796 q 222 829 179 800 l 224 829 l 229 825 l 224 819 l 229 819 l 239 833 m 315 823 l 322 823 l 322 819 l 319 819 l 315 823 m 441 823 l 444 823 l 448 819 l 448 817 l 444 812 l 441 812 l 437 817 l 437 819 l 441 823 m 304 817 q 330 808 304 813 l 333 810 l 335 810 l 346 806 l 348 812 l 350 812 q 357 798 353 812 l 359 798 l 359 804 l 363 800 l 361 798 q 374 788 366 788 q 404 764 387 769 l 426 741 q 452 720 446 732 l 452 718 l 463 715 l 460 713 l 463 711 l 463 709 l 460 707 l 460 705 q 471 693 464 696 l 474 693 l 474 697 q 467 701 467 697 l 467 705 l 469 705 q 491 673 491 686 l 485 677 l 485 675 q 524 584 496 675 q 507 578 522 578 l 500 570 l 502 568 l 504 568 l 513 574 l 522 574 l 522 568 l 528 572 l 530 572 l 541 539 l 524 533 l 524 529 l 528 529 q 541 537 528 534 q 550 513 550 525 l 550 509 l 541 483 l 539 481 l 536 481 q 526 485 526 481 l 507 477 l 507 475 l 519 473 l 522 475 l 524 475 q 536 469 536 473 l 536 465 l 534 465 l 532 467 l 528 467 l 528 465 l 532 465 l 532 463 l 528 456 l 530 446 q 522 426 526 426 l 515 428 l 519 422 l 519 414 l 515 394 l 507 396 l 504 396 l 504 394 l 513 390 q 476 347 513 363 q 452 337 471 337 l 456 331 q 444 325 456 325 l 433 311 l 431 311 l 428 313 l 426 313 l 426 311 l 428 304 l 426 304 q 411 294 420 304 l 411 296 l 402 294 l 404 292 l 404 286 l 395 279 l 389 281 l 389 275 l 385 275 l 376 281 l 374 281 l 380 273 q 372 269 380 269 q 363 256 372 256 l 352 256 l 352 254 l 363 254 l 363 252 l 328 222 l 324 222 l 324 226 l 319 226 l 324 216 q 298 203 307 203 q 231 240 245 227 l 227 240 l 227 242 l 220 240 q 198 258 198 248 l 196 256 l 192 256 l 192 262 l 185 258 l 181 258 q 155 271 176 264 l 153 269 l 148 275 l 155 277 l 155 279 l 142 279 q 133 264 137 264 l 133 275 q 142 292 142 286 l 140 292 l 135 296 l 129 294 l 129 298 l 135 298 l 135 300 q 122 309 126 300 l 109 304 l 109 307 l 115 313 l 113 323 l 120 323 l 120 317 l 122 317 l 122 321 l 118 329 l 120 331 l 120 333 l 118 341 l 120 343 l 113 343 l 115 345 l 115 347 l 118 345 l 120 345 q 126 351 126 345 l 131 351 q 137 345 131 345 q 165 325 137 341 q 198 286 165 319 l 205 275 l 203 275 l 192 277 q 211 271 192 273 l 211 269 l 207 264 l 214 264 l 211 262 l 211 258 l 222 262 l 222 260 q 229 256 222 256 l 231 254 l 231 252 l 229 246 l 231 248 l 233 248 q 287 214 240 248 l 317 236 l 322 236 l 322 230 l 324 230 l 324 234 l 322 240 l 328 244 l 335 242 l 335 246 l 337 246 l 339 244 l 341 244 q 363 275 341 256 q 398 302 384 302 l 402 302 l 402 304 q 395 309 395 304 q 413 339 408 339 l 417 339 l 415 341 l 415 347 q 435 374 425 347 l 437 374 l 448 366 l 450 366 l 437 378 q 441 384 441 378 q 456 392 447 392 l 454 401 q 465 410 465 406 l 478 406 q 467 410 478 410 l 463 418 q 467 428 467 418 l 478 430 l 474 440 l 480 446 l 476 452 l 487 454 l 482 465 l 491 475 l 489 475 l 476 473 l 474 479 q 485 501 474 493 l 485 507 q 478 501 478 507 l 474 501 l 474 503 l 480 511 l 478 509 l 476 509 l 471 513 l 471 525 l 474 527 l 474 529 l 489 523 l 496 525 l 496 523 l 489 515 l 489 513 l 500 521 l 524 513 l 526 513 l 513 521 l 511 519 l 507 519 l 507 521 l 509 523 l 509 525 l 507 525 l 504 523 l 502 523 l 502 527 l 517 547 l 513 547 l 498 527 q 471 539 481 527 l 471 547 q 478 551 471 551 l 478 553 q 469 559 469 553 l 469 572 q 458 578 458 573 l 467 578 l 463 596 l 463 598 l 467 598 l 463 606 l 460 604 l 458 604 l 454 616 l 456 614 l 463 614 l 465 624 l 465 626 q 448 634 454 626 l 439 648 l 428 679 l 435 679 q 424 720 424 688 q 359 774 424 727 l 339 788 l 337 786 l 335 786 l 300 790 l 279 782 l 263 786 q 272 782 263 782 l 272 776 q 216 743 243 767 q 192 726 206 726 l 192 724 l 198 724 q 151 632 176 669 q 137 624 151 624 l 140 614 l 126 612 l 126 610 l 133 610 l 133 606 q 111 574 119 591 l 115 557 l 113 555 q 94 574 94 561 l 94 578 q 126 646 110 622 l 151 642 l 153 642 l 153 644 q 131 650 131 646 q 151 665 138 665 l 151 667 l 146 667 l 170 709 l 203 768 q 304 817 210 775 m 368 800 q 420 758 405 776 l 420 755 q 389 778 401 773 q 366 796 371 796 l 368 798 l 368 800 m 380 800 l 382 800 l 387 796 l 385 794 l 380 794 l 380 800 m 153 774 l 151 768 l 151 766 l 153 766 l 155 772 l 155 774 l 153 774 m 220 772 l 220 770 l 229 770 l 229 772 l 220 772 m 458 772 l 460 770 l 460 768 l 456 764 l 454 766 l 454 768 l 458 772 m 246 764 l 252 764 l 252 760 l 250 760 l 246 764 m 257 762 l 259 762 q 274 755 267 755 l 274 751 l 257 758 l 257 762 m 285 762 l 290 762 l 290 760 l 285 755 l 285 762 m 404 758 l 404 755 l 411 749 l 411 755 l 404 758 m 307 743 q 348 724 348 728 l 344 724 l 341 726 l 337 726 l 337 724 l 346 722 l 348 724 l 350 724 q 363 718 363 721 l 361 715 l 361 713 l 363 713 l 366 715 l 368 715 q 376 709 368 709 l 382 703 l 385 705 l 387 705 l 393 697 l 387 697 l 387 693 q 406 683 396 693 l 409 685 l 411 685 l 424 621 l 426 621 l 424 614 q 446 588 424 596 l 456 580 l 454 580 q 433 590 447 580 l 431 590 l 437 559 l 415 580 l 415 584 l 417 586 l 417 588 q 411 604 413 588 l 409 604 l 404 600 l 404 604 l 400 604 l 400 598 l 402 600 l 404 600 l 404 598 l 400 594 l 376 612 l 380 612 q 370 634 370 620 q 311 687 319 687 q 285 671 293 679 q 317 650 311 660 l 317 648 l 315 648 q 281 669 281 665 l 276 673 q 263 665 276 665 l 218 600 l 220 547 l 220 541 l 209 537 l 209 535 l 211 535 l 220 537 l 233 505 l 231 505 l 218 511 l 218 507 q 246 477 237 507 l 243 475 q 270 440 251 475 l 263 410 q 292 426 279 424 l 300 424 l 302 426 l 302 428 l 304 426 l 309 426 l 309 428 l 304 434 l 311 440 l 317 438 l 317 440 l 315 442 l 315 444 q 330 458 315 458 q 339 448 336 458 q 315 414 334 414 l 307 414 l 304 416 l 302 416 l 302 414 l 304 408 l 290 401 l 283 408 q 276 396 281 396 l 268 401 l 265 401 l 268 399 l 268 396 q 250 388 268 391 l 248 401 l 250 404 l 246 412 l 248 440 l 231 467 l 233 473 l 231 471 l 229 471 q 209 509 209 494 l 211 515 q 192 590 206 515 l 220 632 q 265 677 229 655 l 268 675 l 270 675 q 313 707 270 685 q 385 652 334 707 q 409 610 392 610 l 411 610 q 370 689 399 689 l 311 724 q 252 699 252 716 q 187 606 237 682 q 174 614 174 606 q 237 697 185 637 l 231 697 l 231 701 l 235 705 l 239 705 l 241 703 l 243 703 q 307 743 243 713 m 446 741 l 448 741 q 478 709 478 727 l 476 711 l 474 709 l 471 709 l 467 713 l 469 720 l 446 739 l 446 741 m 39 739 l 46 739 l 42 735 l 39 737 l 39 739 m 313 735 l 313 734 l 330 728 l 333 728 l 333 730 l 315 735 l 313 735 m 239 734 l 241 732 l 241 730 l 237 726 l 233 726 l 229 730 l 229 732 l 239 734 m 118 709 l 118 707 l 120 707 l 124 711 l 124 715 l 118 709 m 480 709 q 487 703 480 703 l 489 701 l 489 697 l 487 695 l 487 693 l 489 691 l 491 693 l 493 693 q 517 675 517 682 l 515 677 l 513 677 l 511 675 l 509 675 l 491 689 l 489 687 q 482 701 482 693 q 476 705 476 701 l 480 709 m 104 683 l 109 683 l 120 699 l 118 701 l 115 701 q 104 683 112 701 m 393 697 l 398 697 l 404 693 l 406 695 l 409 695 l 411 693 l 411 691 l 409 685 l 393 697 m 480 687 l 478 679 l 485 679 l 482 687 l 480 687 m 102 679 l 100 671 q 104 677 104 671 l 104 679 l 102 679 m 444 675 l 444 673 l 452 669 l 454 669 l 446 675 l 444 675 m 522 671 l 526 671 l 526 669 l 524 667 l 524 665 q 545 646 533 665 q 565 632 555 644 l 563 630 l 558 630 q 519 661 530 661 l 522 671 m 465 663 q 476 656 465 659 l 476 661 l 465 663 m 478 656 l 478 652 l 487 650 l 487 654 l 478 656 m 53 654 l 53 650 l 59 648 l 61 648 l 61 650 l 53 654 m 85 642 l 87 640 l 87 636 l 83 636 l 83 632 q 94 648 87 632 l 94 650 q 90 644 90 650 l 87 642 l 85 642 m 489 650 l 489 646 l 498 646 l 498 648 l 489 650 m 309 648 q 337 634 319 648 q 357 618 346 631 l 355 608 l 357 610 l 359 610 q 370 572 370 583 l 368 572 l 368 568 l 374 568 l 361 509 l 359 511 l 352 511 l 352 509 l 359 509 l 359 505 l 355 505 l 359 501 l 344 456 q 333 463 333 456 l 324 458 l 322 460 q 339 495 334 492 l 341 495 l 341 491 l 344 491 l 344 493 l 341 495 l 341 497 l 348 505 l 346 507 l 346 509 l 350 523 l 348 533 l 357 537 l 352 549 l 355 574 q 341 598 347 597 l 335 590 l 341 584 l 341 582 l 337 582 l 335 584 l 333 584 l 330 582 l 328 584 q 346 606 334 606 l 346 610 l 339 606 q 324 630 328 630 l 296 626 l 287 628 l 287 626 l 285 628 l 281 628 l 281 624 l 276 624 l 276 628 l 274 628 q 261 616 274 620 q 254 574 254 601 l 254 566 l 250 559 l 250 557 l 254 557 l 254 543 q 296 501 254 529 l 298 503 q 309 543 304 517 l 300 580 l 304 584 l 290 586 q 274 578 274 583 l 276 576 l 276 574 l 272 570 q 281 562 281 570 q 290 549 284 562 l 292 549 q 296 564 296 554 q 302 551 302 562 q 287 529 302 538 q 259 580 281 535 q 292 604 275 604 q 309 590 304 597 l 307 590 q 315 580 307 580 l 315 578 l 311 572 q 324 519 318 572 l 326 517 l 304 479 q 296 465 300 465 l 281 485 l 285 489 q 272 497 280 489 q 279 501 272 501 l 279 505 q 237 545 255 505 l 237 547 l 241 551 l 239 553 l 239 555 q 254 630 245 630 l 257 630 l 268 628 q 285 640 268 635 l 290 636 l 292 636 q 309 648 292 644 m 322 648 l 324 648 l 328 644 l 326 644 l 322 648 m 330 644 l 337 644 l 348 636 l 348 632 l 346 632 l 330 644 m 79 624 l 79 618 l 81 618 l 85 630 l 79 624 m 469 618 l 474 618 q 485 624 474 624 l 485 628 q 469 618 471 623 m 241 622 l 243 621 l 243 618 l 237 618 l 241 622 m 376 608 l 385 600 l 385 598 l 382 598 l 376 604 l 376 608 m 170 602 q 176 594 170 594 l 176 596 l 174 602 l 178 602 l 181 600 l 183 600 q 165 562 172 589 q 178 531 165 550 l 178 527 q 155 580 160 527 q 170 602 165 602 m 378 594 l 380 594 q 411 559 402 594 l 409 559 l 411 557 q 402 531 407 531 l 404 525 q 380 452 394 452 l 380 450 l 387 448 q 363 399 379 399 l 361 397 l 359 399 l 357 399 q 328 372 328 377 q 313 347 326 372 q 300 331 309 347 l 296 331 l 296 335 l 294 335 q 276 307 294 315 q 265 321 266 307 q 243 333 254 321 q 224 345 233 333 l 224 347 l 227 349 l 227 351 q 198 376 214 351 q 181 410 181 388 l 187 410 l 187 412 q 168 446 173 412 l 170 505 l 165 527 l 168 529 q 189 513 176 527 l 187 493 l 187 479 l 183 475 l 185 465 l 183 454 q 196 406 191 454 q 214 378 214 388 l 216 380 l 218 380 q 265 341 219 371 l 268 333 l 270 333 l 281 341 l 292 339 q 315 370 292 353 q 355 408 332 391 q 374 469 374 439 l 378 477 l 385 477 l 385 479 l 376 481 l 391 513 l 387 519 l 387 523 q 400 529 387 527 l 400 531 l 395 531 l 389 529 l 378 590 l 378 594 m 476 574 l 478 572 l 478 570 l 476 568 l 478 568 l 496 572 l 496 574 l 476 574 m 330 572 l 333 570 l 333 568 l 330 566 l 326 566 l 326 568 l 330 572 m 454 572 l 456 570 l 456 568 l 454 566 l 452 566 l 450 568 l 450 570 l 452 572 l 454 572 m 389 566 q 395 562 389 562 l 398 562 l 398 564 l 389 566 m 424 568 q 441 547 435 547 l 441 543 l 437 543 l 437 541 q 444 537 444 541 q 428 523 444 523 l 426 523 l 426 521 l 431 521 l 431 517 l 428 517 q 422 551 422 517 l 424 551 l 420 566 l 422 568 l 424 568 m 482 562 l 482 559 l 485 559 l 491 562 l 491 566 l 482 562 m 509 553 l 513 553 l 517 562 l 517 564 l 509 553 m 100 557 q 126 517 116 557 l 122 513 q 135 497 135 502 q 124 477 132 481 l 126 471 l 118 471 l 124 465 l 118 452 l 120 450 l 120 448 l 129 452 l 129 450 l 122 442 q 129 438 129 442 l 124 438 l 118 442 l 115 434 q 148 406 120 434 q 157 386 157 406 q 220 325 178 353 l 220 323 l 209 323 l 209 321 q 237 311 237 321 q 254 296 237 307 q 283 279 254 288 q 319 309 302 299 q 344 351 338 330 l 355 353 l 352 355 l 352 357 q 359 366 359 357 l 361 368 l 363 368 l 361 370 l 361 372 q 398 420 378 405 q 415 452 415 431 l 422 452 q 415 456 422 456 l 417 458 l 415 465 l 422 497 l 426 497 l 426 493 l 428 493 l 428 499 l 424 505 l 426 507 l 428 507 l 426 509 l 426 515 l 437 517 l 439 515 l 439 513 q 420 432 427 432 l 417 432 l 420 430 l 420 428 q 378 374 420 417 l 324 288 q 317 279 322 279 l 302 292 l 302 290 l 313 279 q 281 260 313 272 q 268 252 281 252 l 259 262 l 259 264 l 263 264 l 263 267 q 237 283 248 267 l 237 285 l 246 285 l 246 286 q 233 292 233 286 l 231 290 l 229 290 q 216 309 216 298 l 211 309 l 214 311 l 214 313 l 211 313 l 205 311 l 205 317 l 203 317 l 205 319 l 205 323 l 203 321 l 198 321 q 187 327 198 327 q 176 341 186 333 q 126 404 164 346 l 90 446 q 96 454 96 446 l 100 473 q 111 489 111 481 l 109 489 q 102 493 102 489 l 109 495 l 109 499 l 104 499 l 104 503 l 109 503 l 109 505 l 102 515 l 104 515 q 98 557 98 531 l 100 557 m 170 557 l 176 557 l 172 553 l 170 555 l 170 557 m 513 529 l 511 527 l 511 525 l 513 525 l 519 527 l 519 529 l 513 529 m 534 511 l 534 509 l 541 503 l 543 503 l 534 511 m 296 493 l 294 495 l 287 495 l 287 493 l 302 491 l 304 491 l 304 495 l 300 495 l 302 497 l 302 499 l 300 499 q 296 493 296 499 m 463 493 l 465 491 l 465 489 l 463 487 l 460 487 l 458 489 l 458 491 l 460 493 l 463 493 m 480 479 l 480 477 l 487 483 l 485 483 l 480 479 m -3 477 l -1 477 l 3 473 l -1 469 l -3 471 l -3 477 m 35 456 l 35 454 l 46 454 l 46 456 l 35 456 m 515 452 l 515 450 l 526 444 l 526 454 l 515 452 m -138 454 l -136 454 l -132 450 l -134 448 l -136 448 l -138 450 l -138 454 m 491 452 l 493 446 l 498 446 l 496 452 l 491 452 m -179 450 l -177 442 l -179 440 l -181 440 l -192 442 l -195 440 l -195 444 q -179 450 -195 448 m -142 450 l -138 450 l -138 446 q -130 432 -130 446 l -125 432 l -125 428 l -130 422 l -130 420 q -121 416 -121 420 q -97 420 -112 420 l -92 414 q -105 406 -105 410 q -68 390 -81 390 l -64 380 l -66 378 l -68 378 q -79 388 -79 379 q -142 408 -127 406 l -142 412 q -134 432 -134 425 l -146 446 l -142 450 m -1 448 l 3 448 l 3 444 l -5 436 l -7 436 l -7 442 l -1 448 m 509 440 l 509 434 l 511 436 l 513 436 l 515 434 l 515 438 l 509 440 m 107 434 l 107 432 l 115 428 l 115 430 q 109 434 115 434 l 107 434 m 126 432 l 135 432 l 135 428 l 133 428 l 126 430 l 126 432 m 140 432 l 142 432 l 148 426 l 146 426 l 140 428 l 140 432 m -177 424 l -175 424 l -173 414 l -186 414 l -186 420 l -177 424 m -71 420 l -66 416 l -68 414 l -71 414 l -75 418 l -73 420 l -71 420 m -14 420 l -12 420 l -7 416 l -21 397 l -23 397 l -23 399 q -14 420 -21 420 m -168 418 l -166 418 l -159 412 q -168 401 -164 403 l -184 401 l -186 408 q -166 416 -170 408 l -168 418 m 92 412 l 98 406 l 94 401 l 90 401 l 85 406 l 92 412 m 485 404 q 491 399 485 399 l 496 399 l 496 401 l 485 404 m -134 399 l -130 396 l -130 394 l -134 394 l -138 397 l -136 399 l -134 399 m -29 397 l -25 394 l -23 396 l -18 384 l -16 384 q -5 394 -16 389 l -5 392 l -10 386 l -10 382 l -1 382 l 9 384 l 9 380 l -1 378 l -7 378 l -7 374 l -10 374 l -7 372 l -7 370 q -14 351 -7 361 l -18 351 l -21 353 l -23 353 q -34 341 -23 341 l -45 351 l -43 357 l -45 357 l -54 355 l -58 361 l -56 363 q -62 368 -62 363 l -60 370 l -58 370 l -62 382 l -62 384 l -56 384 l -56 380 l -51 380 l -56 386 q -29 397 -56 393 m -199 396 l -195 396 l -195 394 l -201 388 l -203 388 l -203 392 l -199 396 m 482 390 l 482 388 l 487 384 l 489 384 l 482 390 m 243 390 l 246 390 l 254 380 l 252 378 l 248 378 l 243 382 l 243 390 m -32 382 l -32 378 l -25 380 l -25 382 l -32 382 m -146 376 l -144 374 l -144 372 l -146 370 l -149 370 l -151 372 l -151 374 l -149 376 l -146 376 m -47 370 l -45 370 l -40 374 l -43 374 l -47 370 m 489 374 l 491 368 l 493 368 l 493 374 l 489 374 m 28 374 l 33 368 l 33 361 q 26 357 33 357 q 18 363 18 360 l 18 368 q 28 374 18 372 m 478 368 l 478 366 l 487 363 l 491 363 l 491 366 l 480 368 l 478 368 m 265 368 l 268 368 l 272 363 l 270 361 l 265 361 l 265 368 m 146 363 l 148 363 l 153 359 l 153 357 l 148 353 l 142 359 l 146 363 m 81 361 l 107 349 l 107 343 l 102 337 l 107 333 l 107 329 l 98 325 l 100 323 l 100 321 l 90 311 q 79 319 85 319 l 79 323 l 83 323 l 83 325 l 79 325 l 77 323 l 75 325 l 66 304 l 61 304 l 61 307 l 77 337 q 66 343 66 337 l 66 345 l 77 347 l 79 347 l 87 343 l 90 343 l 90 345 q 77 353 81 345 q 81 361 81 353 m 120 361 q 126 357 120 357 l 126 351 l 115 353 l 115 351 l 113 349 l 107 351 l 107 355 l 120 361 m 460 355 q 469 349 460 349 l 471 349 l 471 351 l 463 355 l 460 355 m -110 355 l -103 355 l -103 349 q -116 343 -103 345 l -119 345 l -119 347 q -110 355 -110 347 m 53 353 q 66 347 66 351 l 66 345 l 59 349 l 57 347 l 53 347 l 48 351 l 50 353 l 53 353 m 12 349 l 14 347 l 14 345 l 9 341 l 7 343 l 7 345 l 12 349 m -34 337 l -29 337 l -25 321 l -27 319 l -29 319 l -38 329 q -34 337 -34 329 m 194 331 l 196 331 l 200 335 l 198 335 l 194 331 m 66 331 l 68 329 l 68 327 l 61 321 l 57 325 l 66 331 m 279 327 l 279 323 l 281 317 l 285 317 l 281 327 l 279 327 m 144 311 l 144 307 q 155 315 154 309 l 153 315 l 144 311 m 315 311 l 315 309 l 311 304 l 311 307 l 315 311 m 59 298 l 64 298 q 57 281 61 281 l 55 283 l 55 285 l 59 298 m 90 296 l 94 292 l 94 290 l 87 285 l 83 288 l 83 290 l 90 296 m 122 285 l 124 283 l 124 279 l 120 275 l 115 279 l 122 285 m 165 279 l 165 277 l 174 275 l 187 275 l 187 277 l 168 279 l 165 279 m 157 238 l 161 232 l 161 228 l 157 224 l 153 224 q 144 234 148 224 l 157 238 m 198 232 l 200 232 l 205 228 l 205 226 l 200 222 l 194 228 l 198 232 z "},"1":{"ha":203,"x_min":-68,"x_max":260,"o":"m 177 852 l 180 850 l 180 848 l 175 848 l 175 846 l 180 846 l 180 844 q 168 836 178 840 q 157 825 168 825 l 159 814 l 153 808 l 157 808 l 157 802 l 159 792 q 146 778 146 785 l 149 778 l 155 782 l 159 782 l 159 765 q 166 747 166 758 l 164 747 l 166 741 q 159 710 166 718 l 168 699 q 159 693 168 693 q 168 679 168 686 l 168 673 l 166 663 q 151 669 159 663 l 133 667 l 133 665 l 142 665 l 149 667 l 151 665 l 159 661 q 164 652 159 652 q 157 609 157 641 l 155 611 l 153 611 q 146 607 153 607 l 146 605 l 151 605 l 157 607 l 157 605 l 159 586 l 157 572 q 161 547 159 547 q 168 524 166 547 l 171 522 l 171 520 l 168 518 l 168 516 l 171 514 l 166 514 q 159 524 166 524 l 157 524 q 153 514 157 514 l 155 512 l 155 510 l 151 502 l 157 502 l 153 492 l 161 500 l 159 502 l 161 504 l 168 504 q 173 498 173 504 l 159 442 q 155 434 155 442 q 144 422 144 434 l 142 422 l 142 426 l 137 426 l 137 413 q 144 409 144 413 q 135 397 144 397 l 135 395 q 149 387 149 395 l 151 389 l 159 389 l 164 372 l 159 372 q 153 382 159 382 q 135 368 153 376 l 135 362 l 137 362 q 153 374 137 370 l 153 376 q 164 360 157 376 l 168 355 l 168 345 l 161 337 l 166 333 l 166 319 l 161 313 l 166 300 l 166 296 l 161 296 q 137 319 161 300 l 135 317 l 133 317 l 128 321 l 130 323 l 130 325 l 128 327 l 126 327 l 124 325 l 121 325 q 111 333 121 330 q 104 343 111 338 l 104 345 l 102 343 l 97 343 q 75 360 97 350 q 50 376 62 373 l 48 374 l 48 372 l 50 372 l 52 374 l 64 362 l 57 362 l 33 380 l 46 385 q 62 376 46 381 l 64 376 l 64 378 l 52 382 l 52 387 l 55 387 l 64 380 l 66 380 l 64 382 l 64 389 l 66 387 l 68 387 l 68 391 l 64 395 l 71 407 l 64 413 l 66 415 l 64 426 l 64 438 l 66 446 l 64 452 l 66 454 l 64 456 l 62 456 l 68 469 l 68 471 q 62 475 62 471 q 68 479 62 479 l 68 481 q 59 486 59 481 l 59 492 l 66 498 q 59 545 62 503 l 75 551 l 75 553 l 73 553 l 62 551 l 59 553 l 59 555 l 62 562 l 59 564 l 59 566 l 66 586 l 64 593 l 68 642 l 66 644 l 64 644 l 68 661 l 62 667 l 62 669 q 71 673 62 673 l 71 677 l 68 675 l 64 675 l 57 683 q 68 707 64 707 l 55 720 l 48 736 l 48 739 l 52 739 l 48 743 l 35 753 l 35 755 l 39 755 l 39 759 l 28 757 q 21 770 21 764 l 19 770 l 19 761 l -1 763 l -1 761 q -30 751 -7 751 l -27 749 l -27 745 l -32 745 l -32 736 q -18 732 -18 735 l -16 734 l -12 734 l -12 732 l -16 728 q -39 741 -31 728 q -9 768 -39 755 l -9 763 l -7 763 l -7 768 l -9 770 l 10 780 l 12 778 l 19 778 l 17 780 l 17 782 q 24 786 17 786 l 26 788 l 26 790 l 37 788 l 41 792 l 41 794 l 39 796 l 39 798 l 55 798 l 52 796 l 52 794 l 59 792 l 66 794 l 66 796 q 57 802 57 796 l 59 802 l 62 800 l 64 802 l 66 802 l 79 800 l 79 804 q 71 810 71 804 l 88 821 l 90 821 l 93 819 l 95 819 q 102 823 95 823 l 113 829 l 115 827 l 117 827 q 135 836 117 833 q 142 840 135 840 q 177 852 157 852 m 130 814 l 133 814 l 137 819 l 135 819 l 130 814 m 66 806 l 73 806 l 73 802 l 66 804 l 66 806 m 104 796 l 104 794 l 115 800 l 115 802 l 113 802 l 104 796 m 75 782 q 59 774 71 774 l 59 772 l 119 757 l 121 757 l 121 759 l 73 772 l 73 776 q 79 780 73 780 l 79 782 l 75 782 m 117 772 l 124 765 l 126 765 l 126 768 l 121 772 l 117 772 m 43 763 l 43 761 l 50 761 l 50 765 l 43 763 m 144 757 q 159 749 144 753 l 161 749 l 161 751 l 146 757 l 144 757 m 95 739 l 95 736 l 97 736 q 104 743 97 743 l 106 745 l 106 747 l 104 747 l 95 739 m -18 745 l -14 745 l -9 741 l -9 739 l -14 739 l -18 743 l -18 745 m 81 675 l 81 673 l 90 673 l 90 675 l 81 675 m 126 593 l 126 590 l 133 590 l 135 593 l 135 595 l 133 595 l 126 593 m 113 582 l 115 582 l 121 588 l 119 588 l 113 582 m 88 568 l 83 562 l 88 562 l 90 568 l 88 568 m 144 543 l 144 541 q 157 526 149 526 q 149 543 149 535 l 144 543 m 133 514 l 133 510 l 144 512 l 144 514 l 133 514 m 115 484 l 115 481 l 117 481 q 137 492 131 492 l 137 494 l 133 494 l 115 484 m 79 456 l 86 456 q 99 469 89 469 l 99 471 l 97 471 q 79 456 87 467 m 115 444 l 115 442 l 117 442 l 126 454 l 124 454 q 115 444 115 450 m 8 454 l 12 450 l 8 446 l 5 446 l 5 448 l 8 454 m -56 450 l -52 450 l -45 446 l -43 448 q -18 430 -43 441 q -7 424 -18 425 l 1 413 l -1 411 l -1 409 q 5 403 5 409 l 10 403 l 10 407 l 12 407 l 43 387 l 43 385 l 41 387 l 39 387 l 37 385 l 35 385 q 15 395 31 395 l 12 401 l 10 399 l 5 399 q -34 428 -20 427 l -39 424 l -45 432 l -45 434 l -41 434 l -41 438 q -56 450 -46 438 m 109 436 l 109 434 l 113 438 l 113 440 l 109 436 m 39 438 l 46 438 l 46 434 l 43 434 l 39 438 m 159 436 l 161 434 l 161 430 q 153 393 157 393 l 149 397 l 151 399 l 144 418 l 149 418 q 159 428 149 428 l 159 430 l 155 430 l 153 428 l 153 430 l 159 436 m 15 434 l 24 428 l 21 426 l 17 426 l 15 434 m 90 422 l 88 415 l 88 413 l 90 413 l 95 422 l 90 422 m -32 415 l -30 415 l -12 401 q -18 393 -18 401 l -21 391 l -27 391 l -27 397 l -30 395 l -32 395 l -47 397 l -47 401 q -37 407 -37 401 l -39 407 l -45 403 l -47 405 l -47 407 q -32 415 -44 415 m -63 403 l -61 403 l -56 399 l -56 395 l -58 397 l -61 397 l -63 395 l -65 395 l -68 397 l -68 399 l -63 403 m 50 401 l 55 401 l 55 395 l 50 395 l 50 401 m 26 385 l 28 385 l 33 380 l 31 380 l 26 385 m 75 368 l 75 364 l 81 360 l 83 360 l 83 362 q 77 368 77 362 l 75 368 m 1 366 l 8 366 l 10 360 l 8 357 l 5 357 l 1 366 m 146 353 l 146 351 l 155 351 l 155 353 l 146 353 m 227 355 l 231 355 l 235 351 l 231 347 l 227 351 l 227 355 m 133 351 l 133 347 l 140 347 l 140 349 l 133 351 m 68 351 q 90 339 90 344 l 90 337 l 88 335 l 88 333 l 95 333 l 95 329 l 93 331 l 90 331 l 90 329 q 104 313 90 319 l 104 315 q 97 321 104 321 l 95 323 l 95 325 l 97 325 l 119 315 l 119 311 l 115 304 l 117 302 l 128 307 l 130 304 l 130 302 q 124 298 130 298 l 124 294 l 135 300 q 157 283 151 283 l 159 281 q 166 277 166 281 l 166 275 l 157 275 l 157 267 l 164 267 l 161 269 l 161 271 l 164 273 l 171 273 l 171 267 l 168 257 l 166 259 l 161 259 l 161 255 l 166 255 l 164 245 l 164 243 q 193 247 174 247 q 202 228 202 235 l 202 214 l 195 208 l 182 208 l 157 203 l 155 203 l 155 208 l 153 208 l 153 203 l 155 201 l 151 201 l 151 205 l 149 205 l 149 201 l 151 199 l 140 197 l 81 234 l 81 230 l 77 230 l 71 236 l 79 257 l 77 263 l 86 263 l 86 265 q 75 292 75 265 l 77 304 q 66 317 73 317 l 66 319 q 77 323 66 323 l 73 329 l 77 333 l 77 337 l 64 339 l 64 341 l 68 341 l 64 345 l 68 351 m 28 345 l 31 343 l 31 341 l 26 337 l 21 341 l 21 343 l 28 345 m 193 307 l 195 304 l 195 302 l 189 302 l 193 307 m 102 302 q 95 298 102 298 l 95 296 l 102 296 l 106 300 l 106 302 l 102 302 m 233 296 l 237 292 l 237 286 l 233 281 q 227 294 227 283 l 229 296 l 233 296 m 157 290 l 164 290 l 168 286 l 164 281 l 157 290 m 189 283 l 191 281 l 191 279 l 189 277 l 186 277 l 184 279 l 184 281 l 186 283 l 189 283 m 186 261 l 191 261 l 191 257 l 182 255 l 182 257 l 186 261 m 222 255 l 224 255 q 231 245 229 255 l 229 243 l 224 243 l 218 249 l 218 251 l 222 255 m 88 249 l 88 247 l 97 247 l 97 251 l 88 249 m 66 228 l 68 228 l 121 195 l 126 195 l 121 201 l 126 201 l 135 195 l 135 193 q 73 166 127 193 l 71 168 l 68 168 l 43 148 l 37 148 q 24 166 24 155 q 68 226 68 200 l 66 228 m 229 210 l 233 205 l 231 203 l 229 203 l 224 208 l 227 210 l 229 210 m 17 208 q 26 199 19 199 l 26 195 l 17 195 l 12 199 l 12 203 l 17 208 m 77 199 l 77 197 l 83 197 l 93 199 l 93 201 l 86 201 l 77 199 m 31 201 l 33 201 l 43 199 l 43 195 l 33 195 l 31 201 m 157 195 l 171 180 l 184 185 l 186 182 l 186 178 l 182 174 l 171 176 q 159 172 171 172 l 159 168 l 161 170 l 164 170 l 166 168 l 166 166 l 159 162 l 149 162 q 144 154 149 154 l 142 156 l 144 158 l 144 162 l 128 166 l 117 164 l 130 178 l 142 174 l 144 174 l 144 176 l 130 180 l 130 182 q 157 195 130 188 m 71 182 l 73 182 l 77 187 l 75 187 l 71 182 m 68 180 l 66 172 l 66 170 l 68 170 l 73 180 l 68 180 m 218 182 l 222 178 l 220 176 l 218 176 l 213 180 l 215 182 l 218 182 m 202 180 l 204 180 l 208 176 l 204 172 l 202 174 l 202 180 m 149 176 l 149 172 l 157 172 l 157 174 l 149 176 m 113 164 l 117 164 l 111 158 l 109 158 l 109 160 l 113 164 m 93 158 q 102 152 102 155 q 86 146 94 146 l 81 152 l 93 158 m 117 150 l 121 146 l 115 140 l 111 140 l 106 144 q 117 150 117 144 m 260 113 l 260 106 l 255 111 l 258 113 l 260 113 z "},"2":{"ha":503,"x_min":-77,"x_max":610,"o":"m 344 827 q 357 814 349 827 l 355 812 l 359 812 q 363 806 359 806 l 365 808 l 367 808 l 369 806 l 369 804 l 367 802 q 394 774 394 790 l 396 777 l 398 777 q 412 766 412 770 q 406 762 412 762 l 404 760 l 404 758 l 406 758 l 412 762 l 416 762 l 423 755 l 421 755 q 431 747 422 749 l 437 749 q 445 743 437 745 l 443 741 l 443 732 l 450 732 l 452 734 l 454 734 l 466 723 l 465 721 l 468 721 l 466 719 l 466 715 l 468 717 l 470 717 l 470 713 l 472 713 l 478 715 q 486 709 478 712 l 481 699 l 486 699 l 490 695 l 490 693 l 488 691 l 490 689 l 490 687 l 488 680 l 497 671 l 497 667 l 495 667 l 465 684 l 460 687 l 458 687 l 458 686 l 463 686 l 463 684 l 454 684 l 454 682 l 465 680 l 466 682 q 486 669 466 676 l 488 667 l 490 667 l 490 662 q 484 658 490 658 l 484 656 l 486 654 q 495 642 495 650 l 499 642 l 497 640 l 497 634 l 503 634 l 501 632 l 501 628 l 503 630 l 511 630 l 511 628 q 499 624 511 624 q 507 618 499 618 l 509 616 l 509 612 l 490 616 l 488 616 l 488 614 l 503 612 l 499 608 l 501 606 l 501 600 q 486 591 501 595 l 481 585 l 484 583 l 486 583 l 499 589 l 501 587 l 501 585 q 447 528 474 528 l 450 522 l 447 522 l 447 519 l 449 513 q 408 464 412 464 l 406 464 q 402 470 402 464 l 400 472 l 398 472 q 387 456 398 456 q 334 442 362 444 l 332 444 l 328 440 l 326 440 l 313 448 l 311 448 l 311 446 q 320 440 311 441 l 320 438 q 315 435 320 435 l 315 433 q 320 429 320 433 l 318 427 l 315 427 l 291 433 l 297 425 l 291 425 l 293 415 l 286 411 l 273 416 l 273 415 l 275 409 l 273 409 l 272 411 l 270 411 l 270 409 l 272 407 l 272 405 l 270 403 l 254 403 q 250 397 254 397 l 248 397 q 237 407 238 397 l 235 407 l 235 403 l 233 403 l 231 405 l 229 405 l 229 397 l 227 397 q 221 409 223 397 l 213 407 l 219 397 l 219 395 l 215 395 l 210 399 l 208 399 q 213 395 208 395 l 213 391 l 212 391 l 199 399 l 198 399 l 198 395 q 203 389 203 395 l 208 389 l 208 387 l 174 368 l 161 375 l 159 375 q 174 366 159 372 l 174 363 q 149 344 174 356 l 147 322 q 155 302 147 311 l 155 300 l 151 300 l 149 302 l 147 302 l 147 286 l 138 286 l 138 282 l 141 279 l 134 258 l 138 258 l 138 257 l 136 255 l 136 253 l 138 253 l 139 255 l 141 255 q 213 227 180 243 l 217 227 l 217 229 l 190 239 l 190 241 l 192 241 q 250 235 219 235 l 262 235 l 272 237 l 275 233 l 277 235 l 281 231 q 304 237 281 237 l 302 239 l 302 241 l 304 241 l 311 237 l 313 239 q 330 233 313 235 q 349 210 349 214 l 351 210 l 351 213 q 340 231 340 224 l 338 231 l 336 229 l 334 229 l 334 231 q 359 245 347 245 l 359 247 l 357 249 l 357 251 l 359 253 l 361 253 l 365 245 l 367 245 l 367 249 l 365 249 q 373 257 367 257 l 371 258 l 371 260 l 380 269 l 387 264 l 387 267 l 382 273 l 391 280 l 406 275 l 408 275 l 408 277 q 402 282 402 277 l 396 282 l 396 288 l 400 292 l 406 290 l 406 294 l 402 294 l 402 298 l 406 298 l 404 304 l 406 312 l 400 322 l 402 328 l 400 330 l 402 332 l 404 332 q 391 342 404 340 l 391 346 l 387 349 l 385 349 l 376 348 l 351 357 q 334 353 351 353 q 322 348 330 348 q 342 324 322 343 l 344 324 l 344 328 l 342 342 l 344 342 l 353 332 q 344 316 352 316 q 330 324 330 319 l 332 326 l 332 328 l 330 328 l 322 326 l 320 334 l 318 332 l 315 332 l 311 336 l 311 338 q 359 368 311 368 l 380 368 l 380 366 l 378 363 l 378 361 l 380 361 l 392 363 l 396 359 l 394 353 l 396 353 l 404 357 q 423 340 409 357 l 420 332 l 427 332 l 427 330 l 425 328 l 429 318 l 427 312 q 437 298 437 309 q 443 286 437 293 l 443 280 l 439 275 l 439 267 l 443 262 l 445 262 l 445 267 l 441 271 l 445 275 l 460 249 l 460 245 l 458 245 l 449 249 q 456 241 452 241 l 456 239 l 452 235 l 443 237 l 445 235 l 445 233 q 433 229 445 229 q 420 221 433 221 q 396 237 420 227 l 394 237 l 394 233 q 408 223 399 233 l 406 221 l 406 219 l 408 219 l 406 212 l 402 212 l 400 213 l 398 213 q 385 197 398 210 l 378 197 l 378 205 l 375 205 l 373 195 q 244 213 302 195 q 227 223 233 223 l 225 223 l 225 221 q 239 213 233 221 l 241 213 l 241 210 l 233 208 l 102 203 l 85 217 l 81 217 q 91 210 85 210 l 91 205 l 87 205 l 91 199 l 89 197 l 94 197 l 94 193 l 93 191 l 93 189 l 100 186 l 100 189 q 110 186 110 189 l 112 188 l 116 188 q 122 170 116 177 l 116 166 q 109 172 109 169 l 112 172 l 112 174 l 89 188 l 81 186 l 79 188 l 79 189 l 81 191 l 79 193 l 77 193 l 71 191 q 50 195 71 195 l 36 235 l 17 241 l 17 245 l 19 245 l 35 243 l 33 245 l 35 247 l 35 251 l 24 253 l 24 257 q 46 273 37 257 l 56 271 l 58 271 q 50 275 58 275 l 50 279 l 58 279 l 58 280 q 50 284 50 280 q 64 318 58 284 l 64 330 q 110 375 97 375 q 130 389 124 389 l 136 387 l 134 389 l 134 391 q 151 405 134 394 l 157 403 l 155 405 l 155 407 l 161 411 l 170 411 q 190 427 170 416 l 194 427 l 182 438 l 186 438 l 194 433 l 196 433 l 210 435 l 210 431 l 215 431 l 215 437 l 217 437 l 219 435 l 221 435 l 225 442 q 231 433 229 442 l 235 433 l 235 435 l 231 440 l 233 442 l 235 442 l 239 438 l 242 442 l 244 442 l 246 440 l 248 440 l 252 444 l 258 442 l 258 444 q 273 456 258 449 l 277 456 l 283 452 l 286 452 q 289 462 286 462 q 309 478 309 471 l 309 480 l 318 478 q 326 482 318 482 l 359 513 l 367 509 l 369 509 l 369 511 q 361 517 361 511 l 375 524 l 376 522 l 382 533 l 371 533 l 371 529 l 373 531 l 375 531 l 376 529 l 376 528 l 365 524 l 365 528 l 376 543 l 373 549 q 389 583 383 583 l 396 585 l 396 587 l 394 587 l 389 585 l 389 587 q 404 620 389 620 l 410 620 l 410 622 q 398 628 398 622 l 406 630 l 402 636 l 402 638 l 406 642 l 408 640 l 410 640 l 410 642 l 408 650 l 418 650 l 418 652 l 412 654 l 416 662 l 412 675 l 429 677 l 429 680 q 408 684 408 680 l 412 689 q 402 697 403 693 q 408 701 402 701 l 410 703 l 410 705 l 443 686 l 445 684 l 450 682 l 450 684 l 452 686 l 454 686 l 454 687 l 443 687 l 443 689 l 445 691 l 445 693 q 416 711 437 693 l 416 713 q 425 719 425 713 l 423 719 l 412 713 l 410 713 l 389 721 l 389 727 l 392 749 l 389 753 l 387 753 l 387 749 l 382 749 l 385 751 l 385 755 l 382 756 l 385 758 l 385 770 l 389 770 l 389 772 q 375 780 375 772 l 371 784 l 369 784 l 367 770 l 369 764 l 365 764 l 361 772 l 365 778 l 363 788 l 361 786 l 357 786 l 357 792 l 353 792 l 351 784 q 340 798 340 787 l 342 800 l 338 800 l 338 802 l 318 800 l 320 798 l 320 796 l 317 792 l 324 784 l 328 788 l 334 788 l 334 786 l 330 782 l 328 784 l 326 784 l 326 782 q 342 764 337 777 l 344 762 l 346 762 l 346 772 l 347 770 l 349 770 l 351 772 l 353 772 q 367 760 360 760 q 361 756 367 756 l 359 755 l 359 753 l 369 741 l 371 743 l 375 743 l 378 739 l 371 736 l 371 727 q 365 723 371 723 l 363 725 l 359 725 l 359 723 l 363 723 l 363 719 l 361 719 l 349 727 q 340 721 340 724 l 340 719 l 349 719 l 359 711 l 357 711 l 351 713 l 351 711 l 347 707 q 324 721 326 714 l 332 723 l 332 725 l 324 725 l 324 729 l 328 729 l 326 731 l 326 732 l 324 731 l 322 731 l 317 732 l 318 734 l 318 739 l 315 745 l 324 747 l 326 739 l 330 739 l 336 745 l 326 749 l 326 756 l 330 756 q 334 762 330 762 l 334 758 l 338 758 l 338 760 q 309 786 319 786 l 304 782 l 302 782 q 293 798 298 782 l 291 800 l 289 800 l 272 796 l 272 800 l 277 800 l 277 804 l 275 802 l 273 802 l 266 804 l 266 802 l 268 796 l 248 790 l 241 792 l 239 790 l 231 798 l 201 778 l 194 780 q 182 770 194 770 l 178 770 q 161 780 161 777 l 161 782 l 163 782 l 165 780 l 167 780 l 170 788 l 168 790 l 168 792 l 180 798 l 182 798 l 186 794 q 192 800 192 794 l 196 800 l 201 796 l 208 796 l 203 802 l 203 806 q 239 823 203 813 l 246 822 l 248 822 l 254 825 q 283 820 275 825 l 287 820 l 287 823 l 289 823 l 289 816 l 293 816 l 295 823 q 324 814 324 821 q 338 822 338 814 l 344 827 m 526 800 l 528 798 l 528 796 l 524 792 l 523 794 l 523 796 l 526 800 m 402 786 l 410 786 l 414 782 l 414 780 l 408 774 l 402 780 l 402 786 m 139 782 l 141 782 q 145 777 145 782 l 147 778 l 149 778 q 163 772 155 772 l 163 766 q 138 756 163 764 l 114 736 l 98 745 l 94 745 q 110 736 96 736 l 112 734 l 112 732 l 114 734 l 116 734 l 120 731 q 106 721 106 731 l 104 719 q 93 695 96 697 l 91 695 l 91 693 q 96 689 96 693 q 89 669 89 689 l 79 667 l 79 665 l 89 665 l 89 654 q 123 620 89 627 l 132 620 l 192 656 l 190 658 l 196 665 q 210 650 210 662 l 198 650 q 168 632 198 644 l 122 598 l 112 598 q 79 640 84 618 l 65 665 l 62 669 l 62 675 l 65 675 l 65 677 l 56 689 l 56 691 l 60 697 l 50 701 l 50 707 l 52 707 l 62 701 l 71 701 l 71 703 q 65 707 65 703 l 65 713 l 75 715 l 73 721 q 58 713 68 715 l 56 715 l 54 715 l 48 713 l 48 715 l 44 719 l 44 721 l 46 729 l 46 731 l 44 731 q 40 725 44 725 l 36 725 q 67 756 36 743 l 79 753 l 79 756 q 67 764 71 756 l 71 764 l 81 760 l 81 762 l 83 768 l 81 770 l 83 770 l 94 766 q 106 774 94 770 l 109 772 l 109 770 l 104 764 l 106 758 l 127 777 l 136 777 l 138 774 l 139 774 l 139 782 m 299 778 l 302 774 l 299 770 l 297 770 l 293 774 l 299 778 m 443 778 l 452 778 l 456 774 l 450 768 l 449 768 l 443 774 l 443 778 m 167 772 l 170 772 l 174 768 l 170 768 l 167 772 m 302 772 l 311 772 l 311 770 l 307 766 l 302 770 l 302 772 m 223 766 l 227 766 l 231 762 l 227 758 l 223 762 l 223 766 m 336 753 l 338 751 l 338 749 l 336 749 l 338 741 l 342 741 l 346 745 l 346 753 l 344 753 l 342 751 l 340 753 l 336 753 m 85 751 l 89 747 l 91 747 l 87 751 l 85 751 m 167 743 l 168 741 l 168 739 l 167 736 l 165 736 l 163 739 l 163 741 l 165 743 l 167 743 m 275 743 l 279 739 l 279 736 l 275 741 l 275 743 m 178 739 l 180 736 l 174 729 l 174 732 l 172 731 l 167 731 l 167 734 l 178 739 m 336 734 l 336 732 l 344 731 q 338 734 344 734 l 336 734 m 161 729 l 165 723 l 165 721 q 112 699 165 716 q 122 689 115 689 l 122 687 l 120 686 l 120 684 q 125 677 125 684 l 132 682 l 138 682 l 147 671 l 149 671 l 147 673 l 147 677 l 149 680 l 149 682 q 141 686 141 682 l 141 687 l 147 687 q 153 665 153 687 l 157 669 l 157 677 q 151 687 157 687 l 151 691 l 155 695 q 167 675 162 693 q 157 656 167 664 l 155 656 q 136 673 136 668 l 130 673 l 132 671 l 132 667 l 125 667 q 110 677 117 677 l 110 682 l 112 684 l 112 686 q 104 695 104 686 l 104 697 q 138 717 106 705 l 136 719 l 136 723 l 145 721 l 161 729 m 307 729 l 318 729 l 318 727 q 307 719 313 727 q 289 701 289 715 l 287 689 l 291 686 l 289 684 l 287 684 l 283 689 l 286 701 l 279 701 l 275 691 q 264 699 264 696 l 264 701 l 277 701 l 277 703 l 270 703 l 270 707 l 272 707 l 277 705 l 307 729 m 435 727 l 431 721 l 433 721 l 441 725 l 441 727 l 435 727 m 168 727 l 176 727 q 186 717 176 722 l 184 715 l 184 713 l 199 684 l 198 682 l 201 667 l 199 665 q 180 701 185 665 q 174 719 177 701 l 167 719 l 168 727 m 248 727 l 250 727 l 254 723 l 254 721 l 248 715 l 246 715 l 242 719 l 248 727 m 161 711 l 165 711 l 168 707 l 167 707 q 174 701 167 701 q 178 693 174 693 l 174 687 l 180 677 l 176 673 q 182 664 182 673 l 188 658 l 188 656 q 143 630 176 656 l 138 636 l 139 646 q 127 656 133 646 l 127 658 l 130 660 l 130 662 l 122 662 l 125 665 l 132 665 q 136 660 136 665 l 134 654 l 136 654 q 145 642 145 650 l 149 642 q 159 652 149 647 l 168 654 q 174 662 168 662 l 168 669 l 168 691 q 143 699 168 698 q 134 684 136 684 l 132 684 l 130 686 l 127 686 q 138 697 134 697 l 138 699 l 136 701 l 136 703 l 141 707 l 151 705 l 163 705 l 161 707 l 161 711 m 416 707 l 423 701 l 420 701 l 416 705 l 416 707 m 239 703 l 241 703 q 262 693 251 703 l 275 689 l 275 686 l 266 684 l 260 684 l 260 680 l 254 680 l 252 682 l 250 682 l 248 680 l 244 687 l 244 693 l 246 695 l 246 697 q 239 701 239 697 l 239 703 m 346 703 l 347 703 l 351 699 l 351 695 l 346 701 l 346 703 m 351 695 l 359 695 l 369 686 l 363 682 l 361 682 q 357 691 357 682 l 351 691 l 351 695 m 297 686 l 301 686 l 304 682 l 302 680 l 301 680 l 297 686 m 242 671 q 260 662 259 671 q 254 654 257 654 l 248 654 l 233 660 l 235 662 l 235 667 l 229 664 l 229 665 q 242 671 229 670 m 318 671 l 322 667 l 320 665 l 315 667 l 318 671 m 215 650 l 217 650 q 239 640 239 646 l 237 640 q 215 650 222 640 m 423 642 l 423 638 l 431 638 l 431 640 l 423 642 m 564 642 l 566 640 l 566 638 l 564 636 l 562 636 l 559 638 l 559 640 l 562 642 l 564 642 m 217 634 l 221 628 l 221 624 l 215 618 l 212 618 l 205 624 l 205 628 q 217 634 208 634 m 410 628 l 410 626 l 445 620 l 452 620 l 452 622 q 418 628 436 622 l 410 628 m 557 612 l 564 612 l 568 608 l 562 602 l 559 602 l 557 612 m 513 610 l 521 610 l 532 600 l 532 595 l 528 591 l 526 591 q 517 606 524 591 l 513 606 l 513 610 m 301 600 l 302 598 l 302 596 l 301 595 l 299 595 l 297 596 l 297 598 l 299 600 l 301 600 m 188 598 q 201 581 201 595 l 194 574 l 186 574 q 176 587 176 581 q 188 598 181 598 m 597 587 l 604 587 q 610 578 604 578 l 610 574 l 606 571 l 597 571 l 597 573 l 600 578 l 599 578 l 593 576 l 593 583 l 597 587 m 138 583 l 141 583 l 145 578 l 139 573 l 134 578 l 138 583 m 554 581 l 554 578 l 552 576 l 552 574 q 557 571 557 574 l 554 567 l 552 567 q 546 576 547 567 l 554 581 m 466 571 l 468 571 l 472 574 l 470 574 l 466 571 m 344 569 l 347 565 l 342 563 l 340 565 l 340 567 l 342 569 l 344 569 m 439 559 l 439 555 l 449 559 l 449 561 l 447 561 l 439 559 m 89 553 l 93 553 l 96 549 l 96 547 l 93 543 l 89 543 l 85 547 l 85 549 l 89 553 m 396 533 l 398 533 l 404 535 l 404 539 q 396 533 396 536 m 132 502 l 134 502 l 138 498 l 134 494 l 130 494 l 125 498 l 132 502 m 65 478 l 71 478 l 75 474 l 69 470 l 65 474 l 65 478 m 367 425 l 373 425 l 373 422 l 369 418 l 367 418 l 367 425 m 100 413 l 104 409 l 104 407 l 100 407 l 96 411 l 98 413 l 100 413 m 5 405 l 9 401 l 9 399 l 5 399 l 1 403 l 3 405 l 5 405 m 114 405 l 118 401 l 118 397 l 114 401 l 114 405 m 371 397 l 375 393 l 371 389 l 367 393 l 371 397 m 302 385 l 307 385 l 313 379 l 307 373 l 302 373 l 297 379 l 302 385 m 151 379 l 155 375 l 157 375 l 153 379 l 151 379 m -77 379 l -68 379 l -64 375 l -68 371 l -71 371 l -77 377 l -77 379 m 237 377 l 241 373 l 241 371 l 237 368 l 235 368 l 233 375 l 235 377 l 237 377 m 186 366 l 188 366 l 188 363 l 184 359 l 174 359 q 186 366 176 366 m 36 361 l 48 361 l 48 357 l 35 357 l 19 353 l 11 353 l 11 355 q 36 361 11 361 m 241 355 l 242 355 l 254 346 l 254 342 l 252 342 l 241 355 m 199 353 l 201 353 l 215 344 l 212 344 l 199 348 l 199 353 m -30 351 l -26 351 l -22 348 l -26 338 l -35 342 l -35 346 l -30 351 m 270 316 l 272 314 l 272 308 l 268 308 l 266 314 l 268 316 l 270 316 m 273 308 l 279 308 l 279 304 l 277 304 l 273 308 m 118 304 q 123 300 118 300 l 125 300 l 125 302 l 118 304 m 106 288 l 106 284 l 122 277 l 123 277 l 123 279 l 106 288 m 20 282 q 35 264 22 272 l 35 262 l 31 262 q 17 280 17 273 l 19 282 l 20 282 m -45 279 l -28 275 l -28 271 l -30 271 l -45 275 l -45 279 m 340 275 l 357 260 l 353 260 l 336 273 l 338 275 l 340 275 m 11 257 l 19 257 l 19 253 l 11 253 l 11 257 m 423 253 l 423 251 l 425 251 l 431 253 l 431 255 l 429 255 l 423 253 m 109 184 l 112 180 l 114 180 l 110 184 l 109 184 z "},"3":{"ha":475,"x_min":-57,"x_max":475,"o":"m 250 814 l 252 814 l 256 810 l 252 806 l 250 806 l 246 810 l 250 814 m 98 806 l 112 804 l 123 806 l 193 800 l 195 802 l 197 802 l 223 796 l 235 798 q 250 787 250 795 l 265 794 l 271 794 q 317 767 304 769 q 338 729 328 737 l 338 723 l 329 723 l 329 721 q 342 709 334 721 q 321 679 324 679 q 302 663 304 679 q 283 631 283 644 q 288 625 288 631 q 317 609 315 614 l 327 602 l 321 602 l 321 600 l 327 600 l 329 602 q 340 586 329 597 l 340 583 l 336 576 l 340 576 l 340 574 l 338 573 l 338 571 l 342 571 l 352 573 l 354 565 l 356 565 q 359 571 356 571 l 369 557 l 369 548 l 359 548 l 359 551 l 356 551 l 356 548 q 378 530 376 548 l 380 530 q 385 542 380 542 l 392 536 l 392 532 q 396 540 396 532 l 398 542 l 400 542 q 433 526 433 535 l 431 521 l 433 521 l 440 509 l 440 494 q 452 476 449 494 l 452 475 q 446 469 446 475 q 456 465 456 469 l 456 461 l 454 461 l 448 465 l 446 465 l 463 444 l 461 436 q 475 422 475 436 l 461 388 l 459 388 q 454 397 458 397 l 452 391 q 459 384 459 390 q 452 374 456 375 l 446 376 l 446 374 q 433 342 441 342 l 423 342 l 423 338 l 425 340 l 435 340 l 438 336 q 425 317 428 317 l 423 317 l 417 320 l 415 320 q 421 317 415 317 l 419 307 l 421 305 l 408 301 l 406 303 l 406 299 l 419 301 l 421 299 l 421 297 q 373 270 382 271 l 371 272 l 371 274 l 375 278 l 368 283 l 361 281 l 331 301 l 331 297 q 371 267 342 296 q 279 216 302 216 q 185 201 228 205 l 185 203 l 193 212 l 189 212 q 114 195 189 195 l 102 195 q 49 222 52 213 l 45 222 l 45 224 l 47 226 l 47 228 q 18 235 18 229 l 24 237 l 24 239 l 20 239 l 14 237 l 14 239 q 62 309 28 284 q 110 332 82 332 q 165 297 143 318 l 168 297 l 177 301 l 177 299 l 172 292 l 174 290 l 175 290 l 170 278 l 174 274 q 162 260 162 270 l 151 249 q 98 272 98 251 q 123 301 103 283 q 144 280 144 285 l 142 274 l 137 274 q 121 288 137 281 l 110 269 l 142 257 l 146 257 l 154 276 l 151 281 l 151 283 l 154 288 l 163 286 l 163 290 q 156 294 156 290 l 154 292 l 153 292 q 114 313 153 298 l 114 317 l 118 317 l 118 318 l 98 320 q 52 290 79 317 l 43 288 l 45 286 l 45 283 l 41 278 l 41 276 q 45 281 45 276 l 47 283 l 50 283 l 50 281 l 45 274 l 47 272 l 47 270 l 45 262 l 47 262 l 52 264 l 52 258 l 50 253 l 52 253 l 56 249 l 50 247 l 50 245 l 52 245 l 62 247 q 108 212 86 220 l 112 216 q 137 212 137 215 l 137 209 l 139 209 l 139 212 q 193 228 178 212 l 237 249 q 269 270 264 270 l 271 269 q 315 309 301 309 l 317 309 l 321 305 l 323 305 q 315 313 320 313 l 315 315 l 317 317 l 317 318 q 304 330 304 320 l 315 322 l 319 322 l 345 345 l 342 347 l 356 349 l 356 351 q 348 359 351 351 l 354 359 q 345 409 354 384 l 345 430 l 352 436 l 350 438 l 350 441 l 354 446 l 357 441 l 357 446 l 354 446 l 354 452 l 363 455 l 363 459 l 359 459 q 354 453 359 453 q 340 486 342 453 l 334 503 l 336 505 l 331 511 q 336 515 331 515 l 333 519 l 323 517 l 321 519 l 321 528 l 323 528 q 327 521 323 521 l 331 521 l 331 524 q 306 549 328 524 l 304 549 l 304 546 l 302 546 q 283 563 283 557 l 285 569 l 279 573 l 279 571 l 281 569 l 281 567 l 279 567 l 254 588 l 254 583 l 250 583 l 250 585 l 252 586 q 235 606 252 591 l 235 609 l 237 609 l 243 606 l 243 609 q 237 613 237 609 l 231 611 q 195 640 212 623 l 197 640 q 210 631 202 640 l 212 631 l 214 633 l 216 633 l 214 634 l 214 640 q 254 682 221 640 q 265 700 257 683 q 271 704 271 700 q 262 727 271 719 l 262 729 l 267 729 l 267 730 q 237 767 250 730 q 220 781 220 775 l 214 783 l 212 781 l 206 781 l 206 785 l 200 779 q 177 787 177 781 l 175 787 l 170 783 l 163 787 l 162 785 q 137 791 162 789 l 137 789 l 133 785 l 133 791 q 119 787 129 787 l 119 785 l 118 787 l 110 787 l 114 781 q 89 760 108 781 l 73 755 l 75 754 l 75 750 l 72 746 l 66 746 l 56 748 l 58 746 l 58 744 l 56 743 l 66 741 l 66 739 q 52 729 64 732 l 54 727 l 54 715 q 66 707 66 715 q 81 692 73 707 l 83 694 l 89 694 q 93 686 93 694 l 98 686 l 98 690 l 104 690 l 112 684 l 114 684 l 114 686 l 110 686 l 110 692 q 123 702 123 692 l 127 702 l 130 700 l 131 700 l 137 736 l 133 741 l 137 744 q 144 721 144 731 l 144 698 l 135 696 l 139 690 l 135 686 l 127 690 q 119 684 127 684 q 110 681 119 681 l 106 673 l 96 675 l 91 673 l 89 681 l 85 681 l 85 675 l 83 675 l 81 681 l 70 673 l 68 675 l 70 677 l 70 684 l 68 682 l 62 682 l 58 686 l 58 700 q 49 704 49 700 l 49 707 l 52 707 l 52 709 q 28 718 33 713 l 31 727 l 28 730 l 33 732 l 33 734 l 28 734 l 28 741 l 31 746 q 24 750 24 746 l 24 754 l 26 755 l 26 758 l 22 758 l 22 760 l 26 760 l 33 755 l 37 755 l 37 758 l 24 762 l 24 766 l 28 766 q 43 771 41 766 l 41 777 l 58 781 l 60 779 l 60 783 l 56 783 l 56 787 l 60 787 l 66 783 l 68 783 l 66 785 l 66 787 l 72 792 l 73 791 q 83 796 73 795 l 81 798 l 81 802 l 91 802 l 98 806 m 142 769 l 149 764 l 149 760 l 141 760 l 137 764 l 142 769 m 244 764 q 294 741 252 751 q 269 750 283 750 q 244 764 253 764 m 191 760 l 195 760 l 198 755 l 195 752 l 191 752 l 186 755 l 191 760 m 35 752 l 35 750 l 50 746 l 52 746 l 52 748 l 41 752 l 35 752 m -20 748 l -18 746 l -18 744 l -22 741 l -26 744 l -26 746 l -20 748 m 208 743 l 210 741 l 210 739 l 202 730 l 198 734 l 198 741 l 208 743 m 81 739 l 89 736 l 89 732 l 87 732 l 81 734 l 81 739 m 168 739 q 189 729 189 739 q 195 718 189 724 l 195 715 l 186 707 l 183 707 q 160 723 160 707 l 165 727 l 163 729 l 163 734 l 168 739 m 308 734 q 325 725 308 732 l 327 725 l 327 727 l 308 734 m 93 732 l 100 732 l 100 729 l 96 729 l 93 732 m 106 729 l 108 729 l 116 723 l 112 723 l 106 725 l 106 729 m 137 713 l 137 711 l 142 709 l 142 713 l 137 713 m 70 713 l 77 713 l 77 709 l 73 709 l 70 713 m -53 711 l -47 711 l -41 706 l -41 704 q -51 698 -41 699 l -53 700 l -53 704 l -49 704 l -49 706 l -53 706 l -55 704 l -57 706 l -57 707 l -53 711 m 54 706 l 58 702 l 64 704 l 64 706 l 54 706 m 1 700 l 6 698 l 6 686 q 1 682 6 682 q -11 688 -11 684 l -11 694 q 1 700 -11 698 m 158 684 l 163 684 l 163 681 l 162 681 l 158 684 m 149 681 l 154 681 l 154 677 l 153 677 l 149 681 m 135 671 l 137 671 l 139 669 l 141 669 l 135 661 l 133 661 l 133 665 l 137 665 l 137 667 l 133 667 l 131 665 l 131 667 l 135 671 m 163 669 l 172 661 l 170 661 l 163 667 l 163 669 m 116 656 l 118 654 l 118 650 l 114 646 l 112 646 l 108 650 l 116 656 m 179 656 l 181 656 l 191 646 l 191 644 l 189 644 l 179 654 l 179 656 m 58 654 l 60 654 l 64 650 l 64 642 l 58 642 l 54 646 l 54 650 l 58 654 m 197 654 l 198 654 l 202 650 l 197 650 l 197 654 m 206 646 l 210 646 l 210 640 l 206 644 l 206 646 m 193 638 l 221 613 l 221 609 q 175 617 203 617 l 160 617 l 149 619 q 125 602 125 614 l 127 602 l 137 597 l 139 600 l 139 602 l 137 608 l 139 608 q 142 602 142 608 q 135 594 141 594 q 116 602 116 596 l 116 611 q 165 631 116 620 l 193 638 m 218 627 l 218 623 l 227 621 l 227 625 l 218 627 m 227 611 l 229 611 l 229 608 l 223 608 l 227 611 m 246 604 l 246 602 l 252 596 l 254 596 l 246 604 m 241 594 l 246 594 l 246 590 l 244 590 l 241 594 m 123 583 l 130 583 l 133 578 l 131 576 l 119 576 l 119 578 l 123 583 m 191 576 l 195 576 l 198 573 l 197 571 l 191 571 l 191 576 m 302 563 l 302 559 l 308 559 l 308 563 l 302 563 m 313 561 q 325 555 313 558 l 325 559 l 313 561 m 292 559 l 292 555 l 298 555 l 298 557 l 292 559 m 151 559 l 153 559 l 156 555 l 156 553 l 153 549 l 149 549 l 144 553 l 151 559 m 285 555 l 290 549 l 288 549 l 285 553 l 285 555 m 191 551 l 193 549 l 193 544 q 186 540 193 540 q 179 546 179 543 q 191 551 181 551 m 292 546 l 294 546 q 310 530 298 546 l 308 530 l 292 544 l 292 546 m 308 542 l 311 538 l 311 534 l 308 534 l 308 542 m 287 526 l 290 521 l 287 517 l 283 521 l 283 523 l 287 526 m 338 509 l 338 507 l 342 503 l 342 505 l 338 509 m 243 509 l 244 509 l 248 505 l 243 500 l 239 503 l 239 505 l 243 509 m 346 500 l 348 498 l 352 494 l 352 492 l 354 492 l 354 496 l 348 500 l 346 500 m 181 475 l 183 475 l 186 471 l 186 469 l 183 465 l 181 465 l 177 469 l 177 471 l 181 475 m 371 473 l 371 469 l 373 467 l 378 467 l 378 469 q 373 473 373 469 l 371 473 m 121 459 l 123 457 l 123 455 l 121 453 l 119 453 l 116 457 l 121 459 m 345 457 l 350 452 l 345 448 l 342 448 l 345 457 m 401 455 l 401 452 l 404 450 l 406 450 l 404 455 l 401 455 m 396 450 l 400 446 l 401 446 l 398 450 l 396 450 m 404 444 l 404 441 l 408 438 l 410 438 l 404 444 m 415 432 q 442 409 435 409 l 444 409 l 444 411 l 431 420 l 429 420 l 431 422 l 431 425 q 421 434 425 425 l 415 432 m 442 407 l 448 401 l 448 403 l 444 407 l 442 407 m 342 403 l 345 403 l 345 401 l 340 397 l 338 397 l 338 399 l 342 403 m 216 388 l 216 382 l 214 382 l 210 386 l 212 388 l 216 388 m 382 361 l 382 355 l 385 355 l 389 359 l 389 361 l 382 361 m 356 347 l 356 345 l 363 345 l 369 347 l 369 349 l 368 349 l 356 347 m 174 328 l 175 328 q 181 315 180 328 l 179 313 l 174 313 l 163 322 l 163 326 l 174 328 m 193 313 l 195 313 l 189 307 l 186 307 l 193 313 m 348 305 l 350 305 l 357 309 l 357 311 l 356 311 l 348 305 m 87 295 l 95 290 l 91 286 l 89 286 l 85 290 l 85 292 l 87 294 l 87 295 m 317 290 l 323 290 l 323 294 l 321 294 l 317 290 m 121 278 q 135 269 121 272 l 135 267 l 131 267 q 118 274 118 271 l 121 278 m 29 269 l 29 267 l 33 262 l 35 262 l 33 269 l 29 269 m 390 247 l 396 247 l 396 245 l 392 241 l 390 241 l 390 247 m 200 220 l 202 220 l 208 222 l 208 224 l 206 226 l 206 228 l 221 233 l 221 235 l 218 235 q 200 220 208 235 m 220 220 l 220 218 l 229 218 l 229 222 l 220 220 m 112 210 l 112 209 l 133 209 l 133 210 l 112 210 z "},"4":{"ha":509,"x_min":0,"x_max":595,"o":"m 498 949 l 505 949 l 509 945 l 507 943 l 498 943 l 498 949 m 538 931 l 542 927 l 542 923 l 538 919 l 534 923 l 534 927 l 538 931 m 503 891 l 507 885 l 503 881 l 498 885 l 498 887 l 503 891 m 475 869 l 477 867 l 477 865 l 473 861 l 471 863 l 471 865 l 475 869 m 256 850 l 264 842 l 264 836 l 256 828 l 254 828 l 244 838 l 244 844 q 256 850 246 850 m 331 824 l 341 822 l 341 818 l 337 818 l 345 802 l 339 791 l 345 791 l 345 787 l 343 785 l 343 783 l 347 779 l 347 777 q 331 751 335 751 l 314 753 l 310 753 l 310 751 l 329 743 l 329 739 l 327 737 q 333 729 330 729 q 337 739 334 739 l 351 735 l 345 743 l 345 747 l 349 755 l 353 755 l 353 751 l 355 753 l 357 753 l 362 749 l 357 745 l 349 747 l 347 747 l 347 745 q 357 737 357 745 l 362 737 l 359 739 l 359 741 l 362 741 q 389 731 370 735 q 399 725 389 725 l 399 721 l 391 719 q 380 723 391 723 l 380 729 l 378 727 l 376 727 l 368 733 l 364 733 l 364 723 l 355 715 l 351 715 q 341 733 341 720 l 339 733 l 333 719 q 339 709 336 709 l 335 701 l 337 699 l 333 694 l 335 694 l 341 699 l 343 699 l 353 696 l 353 692 l 339 694 l 335 688 l 335 678 l 339 666 l 341 666 q 347 670 341 670 q 351 676 347 676 l 353 674 l 351 672 l 351 670 l 353 664 l 351 662 l 347 662 l 345 664 l 343 664 l 343 648 l 339 648 l 339 652 l 337 652 l 337 650 q 343 644 337 644 l 343 642 q 333 606 333 631 l 335 589 l 331 585 l 331 579 q 335 565 335 574 l 343 563 l 343 559 q 327 545 336 559 l 327 543 q 333 538 333 543 l 333 536 q 316 528 316 535 l 321 528 l 321 526 q 294 509 321 511 l 294 505 l 296 507 l 306 507 l 306 500 l 304 500 l 302 503 l 294 500 l 294 498 q 306 488 306 496 l 312 490 q 329 482 323 482 l 329 478 l 321 476 l 318 478 l 314 474 l 312 474 l 312 478 l 314 480 l 314 482 l 306 484 l 306 474 l 312 474 l 308 468 l 312 464 l 304 448 l 306 439 l 302 431 l 302 429 l 304 429 q 333 464 313 449 l 333 468 l 335 468 l 335 464 l 349 468 l 339 456 l 343 450 l 343 448 l 335 448 l 339 444 l 337 441 l 337 439 q 357 421 349 421 l 359 423 l 362 423 q 376 413 368 422 l 385 411 l 389 411 l 391 413 l 393 413 l 395 411 l 395 409 q 389 405 395 405 q 362 413 370 405 l 359 411 l 357 411 l 325 433 l 323 431 l 337 413 l 314 405 q 341 353 317 391 l 341 351 l 337 351 l 339 342 l 337 330 l 339 328 l 339 326 l 331 308 l 331 306 l 335 306 l 335 296 q 341 281 335 289 l 339 279 l 339 277 q 345 260 340 266 l 345 258 l 341 258 q 382 195 341 227 q 406 182 388 195 l 397 166 q 236 199 283 199 q 217 219 217 206 l 215 231 q 240 254 215 252 l 240 256 l 252 250 q 258 283 252 269 l 256 286 l 254 286 l 252 283 l 248 306 l 260 318 l 250 318 l 250 320 l 254 324 l 252 326 l 252 334 l 254 336 l 248 342 l 248 345 l 260 361 l 260 363 l 256 369 l 256 375 l 262 377 q 256 407 256 387 l 256 409 l 258 409 l 271 401 l 273 401 l 273 403 q 256 421 261 403 l 256 423 l 260 429 q 252 454 252 435 l 252 464 q 279 498 252 486 l 279 503 q 258 511 258 505 l 258 528 l 256 530 l 256 532 l 264 536 l 264 538 q 256 543 256 538 q 262 559 258 559 q 252 636 252 602 l 244 664 q 201 636 235 664 q 170 597 201 629 q 124 532 136 545 l 122 520 l 122 515 q 110 500 117 515 l 108 500 l 97 503 l 91 492 l 93 492 l 99 498 l 101 498 l 101 496 q 87 476 101 486 q 73 462 87 466 l 75 460 l 75 458 l 45 417 l 68 407 l 71 407 l 71 409 q 60 415 60 411 l 60 417 l 68 417 q 103 411 96 417 q 176 423 169 417 q 190 413 177 413 l 193 413 l 193 415 q 186 419 186 415 l 186 421 l 190 421 q 225 452 210 421 q 209 482 225 463 l 195 480 l 172 480 q 205 444 172 444 l 211 460 l 201 466 l 186 462 l 188 460 l 188 456 l 186 456 l 180 462 q 205 472 189 472 l 209 466 l 207 464 q 219 458 219 464 l 211 435 l 170 441 l 170 448 l 174 448 l 174 450 l 170 450 l 168 448 q 161 488 163 454 l 163 490 l 188 490 l 188 486 l 180 486 l 180 484 l 184 484 l 219 486 q 227 482 219 482 l 225 472 l 227 474 l 229 474 q 242 429 240 471 l 223 397 q 207 405 215 397 l 205 405 l 207 403 l 207 401 l 205 401 l 172 403 l 134 399 l 132 401 l 130 401 l 122 399 l 120 399 l 118 401 l 116 401 l 116 395 l 103 395 l 91 397 l 81 395 l 77 395 q 35 407 77 400 l 35 405 l 39 399 l 27 395 l 23 395 l 0 415 q 31 450 18 441 q 73 507 73 494 q 103 538 85 538 q 136 579 103 562 q 186 648 149 607 l 227 694 l 236 694 l 231 701 l 231 703 l 238 703 l 236 713 l 248 715 l 244 721 l 244 723 l 248 723 l 246 725 l 246 727 l 254 731 l 258 731 l 254 737 l 267 741 l 267 743 q 258 747 258 743 q 275 764 275 760 l 277 764 l 290 760 l 292 760 l 292 762 l 283 764 l 283 768 l 288 771 l 290 769 q 316 808 290 784 l 316 814 l 329 814 l 331 824 m 418 816 l 422 816 l 426 812 l 422 808 l 418 812 l 418 816 m 329 798 l 329 793 l 337 789 l 337 793 l 329 798 m 337 781 l 339 779 l 339 777 q 333 768 336 777 q 327 764 327 768 l 329 764 q 341 775 336 765 l 341 785 l 337 781 m 372 771 l 376 768 l 376 764 l 372 764 l 366 769 l 368 771 l 372 771 m 294 760 l 294 758 l 302 755 l 306 755 l 306 758 l 296 760 l 294 760 m 385 751 l 387 751 l 391 747 l 391 745 l 387 741 l 385 741 l 380 745 l 380 747 l 385 751 m 329 727 l 325 719 l 329 719 l 333 727 l 329 727 m 321 723 l 321 713 l 323 713 l 323 723 l 321 723 m 316 715 l 310 638 l 314 638 l 310 634 l 308 636 l 308 632 l 306 632 l 308 624 l 310 626 l 314 626 l 314 614 l 312 591 q 318 577 315 577 l 316 587 l 321 602 l 316 602 l 321 652 q 314 660 314 652 l 318 672 l 316 682 l 321 682 l 321 696 l 316 703 l 318 711 l 318 715 l 316 715 m 325 715 l 323 696 l 327 696 l 327 715 l 325 715 m 447 717 l 449 717 l 449 707 l 447 707 l 436 709 l 436 713 l 447 717 m 279 690 l 277 680 q 281 686 281 680 l 281 690 l 279 690 m 238 688 l 238 686 l 250 682 q 240 688 250 686 l 238 688 m 327 686 l 327 680 l 329 680 l 331 686 l 327 686 m 258 678 l 258 676 l 281 666 l 281 674 l 277 670 l 260 678 l 258 678 m 329 670 l 329 666 l 335 666 l 333 658 l 333 656 l 335 656 q 341 660 335 660 l 331 670 l 329 670 m 283 666 l 283 664 l 296 660 l 296 664 l 286 666 l 283 666 m 316 648 l 318 646 l 318 642 l 316 642 l 312 646 l 314 648 l 316 648 m 519 630 l 523 630 l 527 626 l 527 622 q 517 616 527 617 l 513 622 l 513 624 l 519 630 m 294 608 l 294 606 l 312 606 l 312 608 l 294 608 m 453 606 q 465 600 465 604 l 457 591 l 453 591 q 447 604 449 591 l 449 606 l 453 606 m 490 606 l 492 604 l 492 600 l 486 600 l 486 602 l 490 606 m 209 591 l 211 589 l 211 587 l 205 583 l 203 583 l 199 587 l 209 591 m 314 569 l 312 551 l 314 543 l 318 543 l 318 565 l 314 569 m 465 567 l 469 563 l 469 561 l 465 557 l 461 561 l 461 563 l 465 567 m 233 553 l 240 553 l 240 545 l 233 551 l 233 553 m 62 551 l 68 551 l 71 549 l 73 551 l 79 551 l 79 545 l 71 543 q 64 547 71 547 l 62 549 l 62 551 m 408 549 q 414 532 414 541 q 397 522 406 531 l 397 536 l 401 536 l 401 538 l 397 538 l 395 536 l 395 543 q 408 549 397 549 m 298 545 l 298 543 l 300 536 l 304 536 l 304 541 l 300 545 l 298 545 m 378 547 q 387 532 387 539 q 368 513 368 525 l 380 503 l 380 492 l 374 484 l 376 482 l 374 482 l 368 484 l 364 480 q 345 490 364 490 l 345 496 l 353 498 l 353 500 l 349 507 l 349 509 l 359 511 q 364 505 364 511 l 366 505 l 370 509 l 364 513 l 366 522 l 366 524 l 362 530 q 378 547 365 547 m 112 538 q 118 534 112 534 l 120 534 l 120 536 l 112 538 m 333 534 l 337 534 l 337 532 l 335 526 l 337 524 l 331 524 l 333 534 m 440 534 l 447 528 l 444 526 l 440 526 l 436 530 l 440 534 m 273 530 l 273 526 l 283 524 l 288 524 l 288 526 l 273 530 m 170 526 l 172 526 q 188 520 188 526 l 170 520 l 170 526 m 294 522 l 298 518 l 300 518 l 296 522 l 294 522 m 207 518 l 215 518 l 215 515 l 211 515 l 207 518 m 231 513 q 240 509 231 509 l 242 507 l 242 505 l 238 505 q 225 511 225 507 l 231 513 m 244 505 l 246 505 q 269 496 269 503 l 267 494 q 244 505 244 500 m 391 505 l 391 494 l 387 490 l 385 492 q 391 505 387 505 m 281 498 l 281 496 l 290 494 l 292 494 l 292 496 l 286 498 l 281 498 m 494 500 l 498 500 l 496 441 l 500 441 l 500 439 l 481 421 l 492 423 l 494 423 q 490 413 494 413 l 492 403 l 492 401 q 475 393 492 396 l 475 391 q 500 405 488 391 l 505 405 l 505 401 q 494 395 494 399 l 494 383 l 496 381 l 496 379 q 490 363 490 378 l 490 359 q 525 338 524 343 l 521 338 l 494 351 l 494 347 l 492 347 q 486 355 489 347 q 471 342 471 352 l 467 342 l 467 347 l 469 349 l 469 351 l 451 355 l 449 353 q 442 377 442 363 q 449 391 446 377 q 459 401 454 391 l 457 401 l 455 399 l 453 399 l 449 403 l 444 403 q 440 397 440 403 l 438 395 l 436 395 l 408 405 l 401 403 l 401 411 l 416 419 l 410 433 l 410 437 l 428 421 l 447 421 q 453 431 450 421 l 457 431 l 463 429 l 463 435 l 461 437 l 461 439 l 463 441 l 465 441 q 469 435 469 441 l 471 435 q 488 460 471 441 l 488 472 l 494 500 m 325 498 l 327 498 l 327 494 l 323 490 l 321 492 l 321 494 l 325 498 m 213 494 l 217 494 l 221 490 l 213 490 l 213 494 m 77 478 l 77 476 l 83 482 l 83 484 l 77 478 m 444 484 l 447 482 l 447 480 l 444 478 l 442 478 l 440 480 l 440 482 l 442 484 l 444 484 m 298 480 l 288 470 l 288 468 l 290 468 l 302 478 l 302 480 l 298 480 m 357 476 l 359 476 l 353 470 l 351 470 l 357 476 m 302 466 l 302 464 l 306 468 l 306 470 l 302 466 m 64 468 l 54 456 l 54 454 q 68 464 63 464 l 64 468 m 408 466 l 412 466 l 416 462 l 412 458 l 408 458 l 403 462 l 408 466 m 103 464 l 108 458 l 108 456 l 103 452 l 97 458 l 103 464 m 10 462 l 12 462 l 18 456 l 18 454 l 12 448 l 6 448 l 2 452 q 10 462 6 461 m 188 456 l 203 456 l 197 450 l 195 450 l 188 456 m 581 444 l 587 444 l 595 433 l 589 427 l 587 427 q 581 439 581 429 l 581 444 m 23 439 l 23 435 l 37 425 l 43 423 l 45 423 l 45 425 q 35 437 35 425 l 33 435 l 29 435 l 23 439 m 12 419 l 20 419 l 23 425 l 18 425 l 12 419 m 548 427 l 552 423 l 552 421 l 548 417 l 544 423 l 548 427 m 23 415 l 23 413 l 33 409 l 35 409 l 35 411 l 25 415 l 23 415 m 515 411 l 525 409 l 536 411 l 538 409 l 540 409 l 548 411 l 556 401 l 556 399 l 542 389 l 517 407 l 515 405 l 509 405 l 515 411 m 279 401 l 279 395 q 296 383 286 383 q 281 401 281 397 l 279 401 m 318 403 q 325 389 323 403 l 325 387 l 323 387 l 318 403 m 54 401 l 60 401 l 60 397 l 54 397 l 54 401 m 564 387 l 566 385 l 566 383 l 564 381 l 562 381 l 560 383 l 560 385 l 562 387 l 564 387 m 298 381 l 298 377 l 304 377 l 304 379 l 298 381 m 408 377 l 412 373 l 412 365 l 408 361 l 403 361 l 399 365 q 408 377 404 377 m 308 373 q 321 365 308 370 l 321 369 l 308 373 m 112 373 l 116 369 l 116 367 l 112 363 l 108 369 l 112 373 m 436 371 l 438 369 l 438 367 l 436 365 l 434 365 l 432 367 l 432 369 l 434 371 l 436 371 m 376 365 l 378 365 l 382 361 l 382 359 l 376 353 l 372 359 l 372 361 l 376 365 m 327 359 l 333 353 l 335 353 l 329 359 l 327 359 m 424 353 q 430 342 429 353 l 428 340 l 422 340 l 418 345 l 424 353 m 527 336 l 529 336 l 552 328 l 552 322 l 548 318 l 546 318 q 527 336 530 326 m 347 334 l 349 332 l 349 330 q 343 320 343 325 l 339 320 l 339 322 l 341 324 l 341 326 l 339 332 l 341 332 l 347 334 m 463 324 l 465 324 l 469 320 l 469 318 l 465 314 l 459 320 l 463 324 m 298 310 l 298 304 l 300 304 l 302 310 l 298 310 m 292 298 l 290 292 l 292 292 l 294 294 l 296 294 l 302 292 l 296 298 l 292 298 m 310 286 l 310 283 q 318 277 310 281 l 318 273 l 323 273 l 321 275 l 321 277 l 323 279 l 310 286 m 424 281 l 426 279 l 426 277 l 420 271 l 418 273 l 424 281 m 325 275 l 325 273 q 331 266 328 266 l 333 266 l 335 273 l 333 271 l 331 271 l 325 275 m 333 264 l 333 262 l 335 256 l 337 256 l 339 264 l 333 264 m 260 248 l 260 245 l 273 239 l 277 239 l 277 243 l 262 248 l 260 248 m 277 233 l 281 233 l 286 237 l 281 237 l 277 233 m 302 227 l 302 223 l 314 219 l 316 219 l 316 221 l 302 227 m 327 213 l 327 211 l 335 209 l 337 209 l 337 211 l 329 213 l 327 213 m 256 203 l 258 201 l 262 201 l 262 207 l 260 207 l 256 203 z "},"5":{"ha":475,"x_min":-9,"x_max":543,"o":"m 406 943 l 410 943 l 410 935 l 406 935 l 406 943 m 404 925 l 408 925 l 408 911 l 404 911 l 404 925 m 406 904 l 408 904 l 408 895 l 410 892 l 410 890 l 406 886 l 406 883 l 408 869 l 402 875 l 402 883 l 404 890 l 402 898 l 402 900 l 406 904 m 381 885 l 381 883 l 377 879 l 374 879 l 374 883 l 381 885 m 442 869 l 446 869 l 448 858 l 440 808 l 438 808 l 433 812 l 442 869 m 402 850 l 406 850 l 406 837 l 404 835 l 406 833 l 406 829 l 404 819 l 400 819 l 402 842 l 402 850 m 25 827 l 29 827 l 35 821 l 37 823 l 39 823 l 44 819 l 44 817 l 37 817 l 25 827 m 46 817 l 48 817 q 98 806 48 812 q 115 798 98 800 l 117 800 l 120 800 l 128 798 l 136 804 l 147 802 l 153 804 l 162 802 l 183 806 l 183 802 l 189 802 l 189 806 l 197 806 l 221 810 q 290 804 269 810 l 292 804 q 330 812 304 812 l 330 808 l 341 810 l 351 810 q 372 802 362 802 q 391 796 372 799 l 393 790 l 396 790 l 400 806 l 402 806 l 406 802 l 404 800 l 404 798 q 417 785 417 791 l 419 785 q 431 804 424 785 l 440 804 l 440 796 q 387 688 418 742 q 372 681 378 681 l 372 682 l 398 734 q 389 764 396 758 l 389 766 l 408 773 l 408 775 l 406 775 l 387 771 q 381 779 387 779 l 374 777 l 374 779 q 334 794 374 794 l 315 794 l 315 796 l 318 798 l 318 800 l 292 796 l 246 796 l 233 794 l 223 796 q 219 789 223 789 l 216 790 l 216 792 l 219 794 l 210 798 l 208 798 q 214 794 208 794 l 214 790 l 210 790 q 153 771 191 790 l 149 741 l 166 719 l 168 719 q 155 675 160 701 q 172 648 155 661 l 183 640 l 181 633 l 206 640 l 212 640 q 263 617 237 640 q 324 585 324 612 q 328 573 328 585 l 330 574 l 332 574 q 343 559 343 567 l 341 557 q 345 551 345 557 l 347 553 l 349 553 l 353 540 l 355 542 l 358 542 l 355 544 l 355 546 l 358 548 l 355 553 l 353 551 l 351 551 l 349 553 l 349 557 l 353 557 l 353 559 q 328 600 349 559 l 330 602 q 353 594 353 597 l 351 588 l 353 588 l 355 590 q 374 596 361 596 l 374 594 l 372 588 q 398 562 379 585 l 400 562 l 398 563 l 398 565 l 400 565 q 421 548 410 561 l 421 546 l 419 546 l 417 548 l 414 548 l 414 544 q 436 534 430 544 l 433 532 l 433 530 l 436 530 l 442 532 l 442 530 q 450 525 442 526 l 452 513 l 446 511 l 446 509 q 465 480 456 509 l 473 467 q 450 463 467 463 l 450 461 l 463 461 l 471 463 l 480 440 l 478 431 l 480 401 l 469 374 l 463 374 l 450 401 l 448 401 l 446 396 q 463 369 453 396 q 414 303 431 310 q 402 296 414 300 q 383 286 402 288 l 385 284 l 385 278 l 379 278 l 379 277 l 383 277 l 383 275 q 322 240 351 240 q 248 213 298 226 q 195 203 248 205 l 195 205 l 193 203 l 191 203 l 189 205 l 187 203 l 181 203 l 179 205 l 176 203 l 174 203 l 151 213 l 145 213 q 141 207 145 207 q 94 218 132 212 l 92 220 l 92 222 l 98 224 l 98 227 l 96 227 l 88 222 q 35 257 35 234 l 23 284 q 37 298 23 288 l 37 300 l 35 298 l 33 298 l 33 300 q 90 367 80 364 q 109 372 98 372 l 134 372 q 174 359 156 372 l 172 353 l 174 355 l 179 355 q 202 317 179 351 l 204 307 l 189 301 l 189 303 l 160 357 q 90 346 122 355 q 82 326 90 337 l 73 300 l 75 282 l 69 273 l 73 273 q 77 278 73 278 l 82 278 q 105 234 90 250 q 145 224 132 224 q 263 245 189 224 q 337 311 320 304 q 355 319 337 319 l 355 321 l 345 321 q 364 351 364 335 l 351 378 l 353 384 l 349 422 q 355 429 349 429 l 355 431 l 349 431 l 349 436 q 358 444 358 436 l 362 444 l 362 446 q 351 456 351 446 l 349 480 l 353 498 l 353 503 q 330 527 345 520 l 326 527 l 326 515 l 322 515 l 320 528 l 322 530 q 307 548 307 541 l 305 546 l 303 546 l 299 550 l 299 553 l 303 553 l 303 557 l 299 557 l 299 559 l 275 553 l 271 557 q 282 563 282 560 q 248 573 270 573 q 242 565 248 565 q 235 573 237 565 l 214 573 l 204 571 l 191 573 l 166 573 l 193 585 l 195 585 l 195 581 l 193 578 l 193 576 l 227 576 l 235 583 l 242 578 q 259 594 253 578 l 250 608 q 235 615 235 608 l 229 615 l 208 613 q 183 627 208 618 l 181 627 l 181 625 l 200 613 l 202 615 l 202 611 l 187 611 q 172 617 180 617 l 166 617 l 153 615 q 141 625 141 618 l 138 625 l 136 619 l 126 621 l 122 621 l 115 617 l 113 617 l 113 625 l 107 621 q 103 631 103 621 l 96 631 l 96 633 l 107 659 l 111 659 l 111 665 l 109 675 q 105 669 105 675 l 107 659 q 92 633 102 659 l 88 633 q 79 659 79 650 l 79 661 q 86 684 79 684 l 88 684 q 82 692 85 692 q 92 723 82 713 l 92 725 q 86 730 86 725 q 71 736 71 730 l 73 736 l 88 732 l 88 734 q 101 753 88 741 l 101 755 l 96 755 l 101 769 q 94 775 94 769 q 50 802 55 802 q 31 796 31 800 l 6 800 l -9 789 l -9 792 q 2 806 -3 804 l 6 806 l 8 804 l 10 804 q 39 815 10 808 l 44 812 l 46 812 l 46 817 m 63 806 l 63 800 l 82 790 l 86 790 l 86 792 q 63 806 78 792 m 170 792 l 170 790 l 176 796 l 174 796 l 170 792 m 90 789 l 94 785 l 96 785 l 92 789 l 90 789 m 151 783 l 151 779 l 153 779 l 160 781 l 160 785 l 151 783 m 134 755 l 136 748 l 143 748 l 143 755 l 134 755 m 130 732 q 122 723 130 729 l 107 725 l 101 723 l 101 727 l 96 730 l 94 730 l 94 727 q 111 713 111 720 q 101 700 101 711 l 101 692 l 90 688 l 90 686 l 96 686 l 96 690 l 103 690 q 111 681 111 686 l 113 681 q 138 698 138 693 l 138 700 l 134 700 l 136 709 q 130 719 132 709 l 132 721 l 134 721 l 132 732 l 130 732 m 88 704 l 88 698 l 90 698 l 92 704 l 88 704 m 130 681 l 130 673 l 132 673 l 132 681 l 130 681 m 138 661 l 138 659 l 143 656 l 145 656 l 145 661 l 138 661 m 210 594 l 210 592 l 206 588 l 204 588 l 204 592 l 210 594 m 259 587 l 259 585 l 263 588 l 263 590 l 259 587 m 101 590 l 105 587 l 105 581 l 101 581 l 96 585 l 96 587 l 101 590 m 271 583 l 278 576 l 288 578 l 288 581 l 271 583 m 278 573 l 278 571 l 286 569 l 286 573 l 278 573 m 151 571 l 155 571 l 151 567 l 147 567 l 151 571 m 282 567 l 286 563 l 292 565 l 292 567 l 282 567 m 326 565 l 326 563 l 330 559 l 332 559 l 332 563 l 330 565 l 326 565 m 136 565 l 143 565 l 143 562 q 128 550 138 562 l 122 555 q 136 565 122 559 m 214 551 l 216 551 l 216 550 l 212 546 l 210 546 l 210 548 l 214 551 m 358 540 l 358 538 l 383 503 l 385 503 q 377 521 377 513 l 374 519 l 372 519 q 358 540 363 540 m 368 540 l 368 534 l 372 534 l 372 536 l 368 540 m 115 530 l 120 527 l 120 525 l 115 521 l 111 521 l 109 528 l 111 530 l 115 530 m 75 517 l 77 517 l 86 509 l 86 507 l 82 503 l 73 503 q 69 509 69 503 q 75 517 73 517 m 419 505 l 419 500 l 423 500 l 423 502 l 419 505 m 162 505 l 166 505 l 170 502 l 168 500 l 166 500 l 162 503 l 162 505 m 389 494 q 402 477 394 483 q 412 461 402 469 q 421 446 415 447 l 421 448 q 393 492 409 473 l 393 494 l 389 494 m 240 479 l 242 473 l 240 471 l 235 471 l 229 477 l 231 479 l 240 479 m 429 427 l 433 417 l 436 417 l 436 425 l 433 427 l 429 427 m 480 427 l 484 427 l 484 419 l 480 419 l 480 427 m 482 406 l 486 406 l 486 399 l 482 399 l 482 406 m 128 367 l 128 363 l 134 365 l 134 367 l 128 367 m 138 336 l 143 332 l 147 336 l 151 336 q 172 315 168 325 l 172 307 q 141 288 160 288 q 126 305 126 294 l 141 323 l 143 323 q 153 315 153 319 l 153 313 q 147 301 153 303 l 143 301 l 138 305 l 138 307 l 141 307 l 143 305 l 145 305 l 145 309 l 147 309 l 145 315 l 138 315 l 136 305 l 136 301 l 143 296 q 162 307 153 296 q 141 330 156 319 l 124 323 l 120 323 l 120 324 q 138 336 120 329 m 539 328 l 543 328 l 543 323 l 539 326 l 539 328 m 117 323 l 120 323 l 120 321 q 103 307 113 307 l 101 309 l 101 311 l 117 323 m 120 319 l 126 319 l 126 317 q 111 294 111 300 q 141 275 129 278 q 189 300 176 290 l 197 301 l 197 300 q 151 263 197 287 l 141 264 l 141 271 l 145 271 l 145 273 l 141 273 l 138 267 q 92 300 112 267 l 92 301 q 120 319 111 301 m 374 313 l 374 311 l 385 311 l 381 315 l 374 313 m 202 301 l 206 301 l 206 298 q 195 292 206 293 l 202 301 m 459 300 q 465 288 465 300 l 467 288 l 480 294 q 492 288 480 288 l 495 282 l 497 282 q 511 300 497 287 l 518 292 q 499 278 499 286 l 501 273 l 499 273 l 505 263 l 501 263 l 499 264 l 497 264 q 488 259 497 259 l 486 261 l 484 261 l 476 259 l 473 259 l 465 264 l 452 261 l 450 263 l 450 264 q 469 280 469 269 q 461 294 461 280 q 455 298 455 294 l 457 300 l 459 300 m 438 298 l 440 298 l 444 294 l 440 290 l 438 290 l 433 294 l 438 298 m 326 294 q 332 290 326 290 l 337 290 l 337 292 l 326 294 m 343 290 q 349 286 343 286 l 353 286 l 353 288 l 343 290 m 436 284 l 438 282 l 438 280 l 433 277 l 431 278 l 431 280 l 436 284 m 419 280 q 433 271 427 280 l 433 263 q 414 255 431 255 l 410 255 q 404 267 404 257 q 419 280 404 280 m 410 263 l 410 261 l 417 261 l 419 263 l 419 267 l 410 263 m 328 240 l 328 238 q 318 232 328 233 l 318 236 l 328 240 m 282 220 q 256 211 282 217 l 256 215 l 282 220 z "},"6":{"ha":503,"x_min":0,"x_max":497,"o":"m 429 827 l 431 827 l 413 724 q 408 691 410 720 l 404 691 q 378 755 396 755 l 326 783 l 310 787 l 207 792 q 191 783 207 785 l 185 779 q 181 785 181 779 l 179 785 l 179 783 l 181 775 q 138 755 155 769 q 132 749 132 755 l 127 753 q 103 734 119 739 q 94 726 99 726 l 94 717 q 87 713 94 713 l 87 711 l 90 709 l 90 707 l 78 707 l 78 711 l 87 718 l 85 728 l 85 730 q 101 744 94 730 l 100 746 l 101 746 l 103 744 l 105 744 l 138 769 l 140 763 l 142 763 l 146 771 l 144 773 q 160 785 157 775 l 168 787 q 162 792 168 792 l 160 794 l 160 798 l 162 798 l 172 791 l 176 794 l 179 791 q 210 810 197 810 q 281 802 239 810 l 288 804 l 302 802 l 304 804 l 304 806 q 368 777 338 796 q 394 767 375 777 l 394 769 l 429 827 m 261 810 l 288 810 l 288 806 l 277 804 l 269 806 l 261 806 l 261 810 m 294 808 l 300 808 l 300 804 l 294 804 l 294 808 m 150 802 l 152 802 l 156 798 l 154 798 l 150 802 m 87 798 l 100 798 q 105 787 105 796 l 100 781 q 84 791 89 781 l 85 792 l 87 792 l 90 791 l 90 792 l 87 798 m 209 787 l 212 781 l 212 779 l 209 779 l 205 783 l 209 787 m 228 787 l 230 785 l 232 785 l 240 787 l 241 785 l 241 783 q 236 773 237 783 q 216 785 226 773 l 228 787 m 205 783 l 205 777 l 201 781 l 203 783 l 205 783 m 191 773 l 197 773 l 197 769 q 193 763 193 769 l 189 760 l 181 760 l 170 755 l 170 762 l 174 765 l 176 765 l 178 763 l 179 763 l 181 771 l 191 769 l 191 773 m 121 767 l 123 765 l 123 762 l 121 762 l 117 765 l 119 767 l 121 767 m 162 749 l 162 747 l 160 746 l 162 744 l 162 738 l 152 740 l 152 738 l 150 732 l 158 726 l 154 726 l 150 730 l 148 728 l 146 728 l 140 730 l 140 728 l 134 722 l 132 722 l 132 724 l 134 726 l 134 728 l 131 732 l 131 734 l 134 734 l 134 736 l 136 734 l 138 734 q 162 749 152 747 m 191 746 l 193 746 l 197 742 l 197 738 l 193 734 l 189 734 l 185 738 l 185 740 l 191 746 m 117 730 l 121 726 l 119 724 l 117 724 l 117 730 m 189 728 l 191 726 l 191 724 l 189 722 l 185 722 l 185 724 l 189 728 m 241 726 l 252 724 q 245 720 252 720 l 245 718 l 248 717 q 241 709 245 709 l 240 709 l 240 713 l 238 713 l 238 707 l 236 707 q 226 722 226 712 l 226 724 l 241 726 m 127 717 l 129 715 l 129 713 l 121 707 l 119 707 l 119 715 l 127 717 m 109 711 l 119 703 l 103 691 l 101 693 l 100 686 l 94 688 l 94 691 l 98 691 l 96 693 l 96 697 q 100 703 100 697 l 101 703 l 103 701 l 105 701 l 109 711 m 66 691 l 72 691 l 72 689 l 68 684 l 72 684 l 74 686 l 76 686 l 76 680 l 74 680 l 72 682 l 70 682 l 66 654 l 72 654 l 72 650 l 60 652 l 56 652 l 56 650 q 70 635 68 650 l 58 631 l 60 625 l 68 625 l 68 629 l 64 629 l 64 633 l 74 633 q 87 604 79 633 l 85 563 l 82 557 l 82 553 l 85 553 l 82 547 l 85 543 l 80 542 q 85 534 83 534 l 84 522 l 78 522 q 51 538 78 528 l 51 542 l 39 542 l 39 540 l 70 526 q 76 518 75 526 q 96 511 96 518 l 96 509 q 82 493 82 509 l 80 468 l 80 462 q 87 450 80 450 l 87 448 l 85 446 q 101 435 85 443 l 105 431 l 101 399 q 119 353 101 391 q 138 328 119 345 q 203 231 166 276 q 240 219 213 219 l 296 215 q 337 233 331 227 l 361 260 q 378 281 361 264 q 410 302 378 288 l 410 307 l 399 308 q 417 361 408 361 l 425 372 l 421 372 l 421 374 l 425 404 l 423 404 l 415 401 l 415 408 l 419 408 l 421 406 l 423 406 q 431 462 431 421 q 408 497 427 462 q 386 532 397 497 l 390 532 l 390 534 l 386 534 l 384 532 l 380 545 l 376 545 l 374 543 l 372 543 l 370 545 l 370 549 l 380 551 l 380 553 l 372 553 l 372 557 l 380 557 q 384 551 384 557 l 388 551 l 388 555 l 390 555 l 392 553 l 401 555 l 401 557 q 368 563 371 559 l 361 561 l 361 567 l 365 567 l 365 569 q 312 610 332 610 q 302 614 312 614 l 298 610 l 288 610 l 228 612 q 205 602 211 607 l 199 604 l 199 602 l 195 598 l 193 598 l 183 600 l 183 606 q 243 623 196 615 l 265 623 l 285 619 q 310 625 299 625 q 439 555 437 566 l 439 553 l 433 555 l 429 555 l 429 553 q 454 532 454 548 l 452 532 q 462 493 459 522 q 477 456 471 493 q 491 435 484 450 l 491 425 l 484 413 l 484 411 l 490 415 l 491 415 l 497 388 q 488 361 492 361 q 464 376 488 367 l 456 384 l 470 406 l 470 408 l 468 408 q 443 392 451 392 l 429 399 l 429 401 l 431 404 l 429 406 l 427 406 l 427 395 q 443 386 442 389 q 433 378 437 386 l 435 378 l 446 382 l 446 378 l 441 378 l 446 372 l 458 376 l 460 376 q 490 355 488 360 q 435 269 478 306 q 394 233 425 269 q 326 211 394 227 l 269 197 q 197 219 235 211 q 119 258 179 231 q 90 298 106 262 q 82 312 85 298 q 66 330 76 312 q 27 378 44 330 q 0 452 12 378 l 0 468 l 4 471 l 2 481 l 2 487 l 4 489 l 2 491 q 23 553 2 538 l 27 553 l 27 549 l 35 549 l 35 551 q 23 557 28 551 q 35 602 23 585 l 35 604 l 37 604 l 39 602 l 41 602 q 49 608 41 608 l 56 625 l 56 627 l 49 623 l 43 627 l 45 629 l 45 631 l 43 633 l 43 635 l 51 654 q 22 670 39 665 l 22 673 l 23 673 q 47 660 47 665 l 53 660 l 64 684 l 66 691 m 92 672 q 96 666 92 666 l 96 662 q 90 652 90 657 l 85 652 l 80 659 l 87 662 l 82 672 l 92 673 l 92 672 m 78 652 q 98 641 98 644 l 92 637 l 92 641 l 90 641 l 90 637 l 87 637 q 74 646 79 646 l 74 650 l 78 650 l 78 652 m 100 643 l 101 643 l 115 631 l 111 631 l 100 641 l 100 643 m 92 637 l 94 635 l 94 631 l 92 629 l 92 627 l 85 629 l 85 631 l 92 637 m 125 633 q 131 627 125 627 l 132 625 l 132 623 l 129 623 l 115 629 l 115 631 l 125 633 m 148 617 q 176 608 161 617 l 178 608 l 178 604 l 174 604 q 148 617 148 612 m 168 604 l 172 600 l 178 602 q 185 598 178 598 q 152 576 178 587 q 129 520 129 541 q 152 493 129 516 q 178 520 178 504 l 178 522 l 156 536 l 148 526 l 148 524 l 158 514 l 160 516 l 160 520 q 154 524 160 524 l 154 526 l 158 530 l 162 530 l 168 516 l 168 514 l 160 505 l 158 505 q 138 522 149 509 q 156 545 138 534 q 185 526 168 541 q 168 493 185 493 l 154 485 l 148 485 q 115 534 115 510 l 113 555 q 163 594 127 580 q 168 604 163 604 m 205 600 l 207 600 l 207 598 l 203 594 l 201 594 l 201 596 l 205 600 m 359 592 l 357 590 l 357 586 q 368 581 362 586 q 359 592 366 589 m 388 571 l 388 569 l 401 565 l 404 565 l 404 567 l 390 571 l 388 571 m 435 563 l 441 563 l 443 557 l 441 557 l 435 563 m 412 555 l 412 553 l 421 553 l 421 555 l 412 555 m 98 507 l 100 507 l 103 503 l 98 503 l 98 507 m 16 483 l 16 481 l 35 475 l 37 475 l 37 477 l 18 483 l 16 483 m 376 429 l 378 429 l 382 425 l 376 425 l 376 429 m 103 406 l 107 406 l 107 395 l 103 395 l 103 406 m 456 394 l 458 392 l 458 390 l 454 386 l 448 388 l 448 392 l 456 394 m 427 374 l 429 368 l 435 374 l 431 374 l 429 376 l 427 374 m 454 336 l 454 334 l 456 328 l 460 328 l 456 336 l 454 336 m 423 275 l 423 273 l 427 277 l 427 279 l 423 275 m 448 281 l 448 279 l 444 275 l 443 275 l 448 281 m 154 277 l 154 275 l 158 271 l 160 271 l 160 273 l 156 277 l 154 277 m 401 273 l 401 271 l 412 271 l 412 273 l 401 273 m 368 260 l 368 256 l 374 256 l 374 260 l 368 260 m 158 256 l 158 252 l 160 252 l 163 256 l 158 256 m 343 236 l 345 234 l 347 234 l 349 240 l 347 240 l 343 236 z "},"7":{"ha":407,"x_min":-178,"x_max":501,"o":"m -174 918 l -165 918 l -159 911 l -161 909 l -159 907 l -159 906 q -168 898 -161 898 l -178 902 l -178 906 l -163 906 l -163 907 q -178 913 -178 909 l -174 918 m 48 878 l 54 878 l 60 872 l 60 867 l 56 863 l 54 863 q 42 868 43 863 l 46 872 l 48 872 l 50 870 l 52 870 l 52 874 l 48 874 l 48 878 m -118 872 l -116 872 l -112 868 l -116 865 l -118 865 l -122 868 l -118 872 m -33 868 l -29 868 l -23 863 q -29 854 -26 854 l -37 863 l -37 865 l -33 868 m -98 835 l -92 835 q -86 823 -86 833 l -88 821 l -90 821 l -102 831 l -98 835 m -5 829 l -1 825 l -1 823 l -5 819 l -9 823 l -9 825 l -5 829 m 72 827 l 74 827 l 77 823 l 72 823 l 72 827 m 81 823 l 83 823 q 167 811 102 811 l 173 811 l 189 813 l 204 811 l 208 811 l 224 815 l 226 813 l 230 817 l 258 817 q 301 802 286 817 l 305 802 l 305 804 l 292 809 l 292 813 l 315 811 l 331 811 l 391 817 l 391 813 l 392 813 q 418 819 402 819 l 446 819 l 489 811 l 489 806 l 488 804 l 488 802 q 446 811 465 811 q 387 787 424 811 l 380 780 l 380 762 l 374 754 l 387 750 l 387 747 l 378 745 l 378 743 l 385 732 l 382 730 l 380 730 q 365 747 376 747 q 359 760 360 747 l 357 758 l 347 764 l 347 762 q 365 739 365 744 l 363 739 l 351 743 l 349 743 l 349 741 q 365 728 365 738 l 363 723 l 365 721 l 367 721 l 365 719 l 365 715 l 370 707 l 370 705 l 368 705 l 361 713 q 343 701 343 711 l 343 699 l 345 699 q 351 709 347 709 l 353 707 l 353 705 l 351 699 l 353 697 l 355 697 l 349 669 l 339 671 l 343 660 l 337 656 l 335 656 l 329 660 l 329 656 l 337 652 q 325 627 330 627 l 323 628 l 323 627 l 325 625 l 325 623 l 321 618 l 321 616 l 325 616 q 315 579 325 593 l 307 562 l 309 553 l 294 538 l 295 528 q 277 505 288 513 l 283 503 l 283 494 q 271 473 283 487 l 273 471 l 275 471 q 240 390 256 404 q 212 349 222 351 q 193 329 212 336 l 191 328 l 191 326 l 193 326 l 198 328 l 198 323 l 197 321 l 197 319 q 206 315 206 319 l 206 313 l 197 278 l 197 262 l 193 256 l 191 258 l 189 258 q 182 245 184 258 l 182 243 l 184 243 l 184 247 q 210 227 210 242 l 210 225 q 193 201 210 201 l 184 203 l 182 203 q 139 195 182 198 l 137 197 l 135 197 l 127 195 l 125 195 l 125 199 l 119 199 l 123 193 l 123 191 l 121 191 l 60 178 l 50 178 q 30 191 37 178 l 30 199 q 60 221 32 208 q 107 272 88 238 l 111 272 l 111 268 l 109 267 l 109 264 l 113 260 l 115 262 l 117 262 l 161 247 l 121 262 l 121 264 l 123 267 l 123 268 q 113 272 113 268 l 113 280 l 127 294 l 125 304 q 131 315 126 315 l 137 311 l 163 319 l 163 323 q 139 317 156 317 l 137 317 l 137 321 q 143 329 143 321 l 141 329 l 133 331 l 131 329 l 129 329 l 123 331 l 123 335 l 125 333 l 133 333 q 147 361 136 333 l 145 372 q 159 390 159 381 l 159 394 l 157 406 q 171 431 166 429 l 174 431 l 176 429 q 191 448 176 438 l 198 453 l 200 453 q 218 448 209 448 l 220 449 l 220 451 q 204 459 220 454 l 206 471 l 204 477 l 212 481 l 212 483 l 208 488 l 208 492 q 214 496 208 496 l 216 498 l 216 500 l 214 507 q 218 516 218 507 l 228 516 q 214 524 228 519 l 216 526 l 216 530 l 214 540 l 216 542 l 218 542 l 216 544 l 216 546 l 222 555 l 222 559 l 220 562 l 220 564 q 240 616 228 564 l 242 618 l 238 623 l 252 666 l 264 675 l 262 675 l 260 673 l 258 673 l 256 675 l 260 686 l 268 686 l 268 682 l 262 682 l 262 680 q 271 675 271 680 l 283 677 l 319 662 l 321 662 l 321 664 q 307 671 307 667 l 305 669 l 303 669 q 290 675 297 675 l 290 680 l 294 680 l 294 682 l 290 682 l 283 680 l 283 682 l 281 680 l 271 680 l 271 682 l 273 684 l 273 686 q 246 697 246 692 l 246 699 l 248 699 l 262 695 l 264 697 l 264 695 l 277 699 l 277 703 l 270 699 l 270 705 q 288 730 277 730 l 286 732 l 286 734 q 299 762 295 743 l 307 762 l 303 768 q 311 786 311 779 q 266 804 302 795 l 258 804 q 240 798 250 798 l 216 798 l 204 800 l 202 798 l 200 798 l 198 800 l 176 798 l 131 800 l 129 798 l 127 798 l 115 802 l 107 802 l 87 786 l 85 786 l 85 782 q 113 770 113 774 l 125 762 l 143 768 l 147 764 l 147 762 l 143 762 l 143 760 l 149 760 l 151 762 q 159 758 151 758 l 159 756 l 151 748 l 149 748 l 131 756 q 100 732 115 732 l 96 736 q 121 756 117 756 l 121 758 q 81 778 113 770 q 74 784 81 781 l 74 782 l 76 780 l 76 778 l 74 770 l 76 764 l 60 750 l 52 750 l 50 752 l 48 752 l 48 748 l 56 748 l 56 747 l 48 727 q 54 719 54 727 q 60 715 60 719 l 60 711 q 52 707 52 711 l 56 707 q 60 701 56 701 l 62 703 l 64 703 l 68 697 l 68 695 l 62 695 l 62 693 q 85 677 71 693 q 119 666 113 671 q 165 715 139 666 l 167 723 l 161 736 l 163 736 q 180 723 178 728 l 180 717 l 176 705 l 169 707 l 165 707 l 165 705 q 173 701 173 705 l 141 656 l 105 652 q 94 664 96 652 q 38 709 73 669 l 38 711 l 40 713 l 40 715 q 10 734 14 728 l 16 741 l 16 743 q 1 734 8 734 l -7 743 l -5 745 l -5 748 l -7 748 q -11 743 -7 743 q -23 756 -23 746 l -23 760 q -33 774 -33 763 l -31 776 l -23 776 l -13 774 q -25 780 -13 777 q -43 804 -25 789 l -41 809 l -43 809 l -41 815 l -37 815 l -33 800 l -27 804 q -11 784 -24 791 l -3 786 l -3 787 l -5 789 l -5 791 l 4 793 l 1 800 l 3 802 l -1 802 l -1 809 l 1 809 q 4 804 4 809 l 6 806 l 8 806 q 12 798 12 806 l 14 795 l 16 795 l 16 804 l 20 804 l 22 795 l 38 800 l 36 802 l 36 806 l 38 806 l 54 798 l 54 802 l 50 802 l 50 806 l 68 809 l 64 815 l 66 817 l 68 817 q 74 813 68 813 l 74 811 l 72 809 l 72 808 l 83 806 l 83 808 l 90 809 l 90 811 l 81 811 l 85 817 l 81 821 l 81 823 m 361 809 l 361 808 l 363 808 l 389 811 l 389 813 l 387 813 l 361 809 m 491 806 l 493 806 l 501 798 l 499 795 l 491 802 l 491 806 m 327 784 l 327 782 l 331 774 l 335 774 q 327 784 331 783 m -7 772 l -7 770 l -1 770 l 1 772 q 10 764 1 764 l 12 764 l 12 766 q 6 770 6 766 l 10 770 l 10 772 l 3 774 l -7 772 m 16 764 l 16 760 l 24 760 l 24 762 l 16 764 m 315 760 l 315 756 l 321 756 l 321 758 l 315 760 m 34 756 l 34 750 l 42 754 l 42 756 l 34 756 m 325 754 q 339 747 325 749 l 341 747 l 341 748 l 325 754 m 161 754 q 174 736 166 752 l 173 734 q 155 743 162 743 l 155 748 l 161 754 m 137 739 l 141 739 l 147 732 l 147 730 l 139 728 l 131 730 q 117 719 117 726 l 121 711 l 119 711 l 111 719 l 111 723 q 137 739 126 739 m 92 732 l 94 732 l 100 727 l 98 725 q 123 697 98 709 q 155 711 145 711 l 155 713 q 143 723 146 713 l 143 728 l 149 728 q 157 713 154 728 l 157 709 q 129 688 149 698 l 125 688 q 87 723 112 688 l 87 728 l 92 732 m 345 730 l 343 728 l 343 727 l 345 727 l 351 728 l 351 730 l 345 730 m 420 732 l 424 732 l 428 728 l 428 727 l 424 723 l 420 727 l 420 732 m 131 727 l 135 723 l 135 721 l 127 721 l 127 723 l 131 727 m 135 721 l 139 717 l 139 715 q 125 705 133 705 l 123 707 l 123 709 q 135 721 135 715 m 294 713 l 294 711 l 299 711 l 301 713 l 301 715 l 299 715 l 294 713 m 454 713 l 456 713 q 462 703 460 713 l 456 699 l 450 707 l 450 709 l 454 713 m 301 684 l 303 684 l 307 688 l 305 688 l 301 684 m 389 680 l 391 680 l 394 675 l 394 673 l 391 673 l 389 680 m 484 636 l 488 632 l 488 628 l 484 625 l 477 634 l 479 636 l 484 636 m 262 607 l 262 605 l 268 603 l 268 607 l 262 607 m 279 593 l 279 591 l 292 587 l 294 587 l 294 589 l 281 593 l 279 593 m 270 494 l 270 492 l 273 492 l 279 494 l 279 496 l 277 496 l 270 494 m 218 459 l 220 459 l 238 469 l 232 469 q 218 459 218 463 m 184 435 l 186 435 l 197 444 l 197 446 l 184 435 z "},"8":{"ha":543,"x_min":0,"x_max":549,"o":"m 422 888 l 424 888 l 428 884 l 424 880 l 420 880 l 416 884 l 422 888 m 368 854 q 374 844 373 854 l 372 842 l 362 842 q 354 852 358 843 l 356 854 l 368 854 m 404 854 l 408 850 l 408 846 l 404 846 l 397 852 l 399 854 l 404 854 m 387 837 l 391 837 l 391 835 l 387 831 l 387 837 m 376 827 l 385 827 l 391 818 l 389 816 l 393 804 l 391 802 l 387 802 l 387 798 q 380 791 380 798 l 382 791 q 424 774 419 781 l 424 770 l 410 768 l 410 766 l 414 766 l 420 768 l 420 766 q 424 758 420 758 q 428 772 424 772 q 469 730 465 763 l 467 728 l 469 726 l 465 722 l 469 718 l 469 711 l 459 711 l 456 713 l 454 713 l 454 709 q 473 703 473 707 q 410 655 473 689 l 395 648 l 385 650 l 385 646 l 389 646 l 389 644 q 309 596 347 607 l 307 594 l 276 598 l 263 596 l 245 600 l 229 594 l 222 594 q 179 566 222 589 q 169 560 179 560 l 163 552 l 171 545 q 146 532 171 532 l 146 530 q 163 520 146 525 l 165 518 l 165 516 l 163 514 l 163 512 l 169 507 l 167 507 l 152 516 l 150 514 l 138 514 l 138 507 l 144 505 l 142 503 l 142 497 l 144 495 l 144 493 l 138 493 l 138 491 l 142 491 l 142 490 q 134 471 135 482 q 142 460 138 469 l 136 460 l 132 465 l 130 463 l 127 463 l 117 469 l 117 467 q 138 450 138 452 l 136 450 l 125 455 l 123 453 l 123 451 l 134 438 l 134 436 q 119 408 121 425 l 115 408 l 115 406 l 119 399 l 119 377 l 117 375 l 117 373 l 115 375 l 111 375 q 117 363 117 369 l 130 371 l 132 371 q 117 356 125 356 l 119 354 l 119 352 l 115 342 l 119 342 l 119 347 l 123 342 l 119 338 l 121 333 l 119 331 l 121 329 l 123 329 l 132 331 l 138 329 l 138 326 l 136 326 l 130 328 l 123 317 l 132 316 l 132 317 l 130 319 l 130 321 l 132 321 l 142 312 l 144 312 l 144 310 l 140 310 l 140 307 l 155 317 l 150 297 l 152 297 l 169 291 l 169 289 l 167 287 l 167 286 l 169 286 l 171 287 l 173 287 q 181 283 173 283 l 187 277 l 193 281 l 195 281 l 195 277 l 191 277 l 195 266 l 191 266 l 191 264 l 197 264 l 203 266 q 286 224 231 239 q 401 279 368 224 l 410 283 l 414 279 l 416 279 l 414 281 l 414 289 l 442 297 l 442 298 l 432 297 l 428 297 l 422 300 l 422 293 l 420 293 l 418 295 l 416 295 l 418 297 l 418 300 l 387 300 l 387 304 l 412 304 l 422 302 q 436 337 433 312 l 438 337 l 450 333 l 452 333 l 452 335 q 438 342 438 338 l 440 345 l 448 348 l 452 358 l 452 359 l 438 354 l 438 356 q 446 394 446 365 l 450 398 l 448 399 q 459 419 450 419 l 456 420 l 456 422 l 459 434 l 452 434 l 452 438 l 454 440 l 454 441 l 450 441 l 452 455 q 446 463 450 455 l 454 478 l 469 476 l 479 478 l 479 480 l 475 480 l 469 478 l 461 481 l 465 490 l 463 491 l 461 491 l 459 490 l 456 490 l 452 505 l 452 507 l 461 507 l 461 509 q 436 533 451 509 l 436 535 l 438 537 l 438 539 q 428 552 428 539 l 418 547 l 414 554 l 408 552 l 408 554 q 397 558 408 558 l 395 560 l 393 558 l 391 558 l 350 570 l 331 570 q 284 543 311 562 q 253 526 267 537 l 300 467 l 302 465 l 307 465 q 344 481 336 481 l 344 501 l 352 501 l 352 503 q 342 524 343 503 l 302 539 q 292 499 292 518 l 317 493 q 325 514 325 498 l 329 514 l 338 503 l 338 501 q 311 481 317 481 q 280 509 305 481 q 294 535 285 535 l 292 537 l 292 539 l 296 551 l 300 551 q 358 526 358 546 q 368 486 368 497 l 366 488 l 362 488 l 372 478 q 321 465 348 465 q 296 453 321 460 q 233 530 233 514 l 267 551 l 269 549 l 273 549 l 273 551 l 269 551 l 269 552 q 309 581 274 559 l 333 579 l 354 579 l 376 572 l 378 572 l 378 573 q 372 577 372 573 l 378 581 l 380 581 l 382 579 l 385 579 l 389 587 l 393 587 l 393 583 l 387 575 l 387 573 q 428 556 415 568 l 438 560 l 442 551 l 444 551 l 454 552 q 469 547 454 547 q 477 541 469 541 l 479 543 l 479 537 l 490 541 l 490 539 l 486 533 l 488 533 l 494 535 l 494 533 q 504 516 494 524 l 502 511 l 508 511 l 508 505 q 500 501 508 501 l 500 499 q 527 484 514 494 l 525 481 l 525 476 q 543 467 538 476 q 537 463 543 463 l 537 460 l 543 460 l 543 457 q 537 453 537 457 l 549 450 l 549 448 q 539 441 549 443 l 539 438 l 549 441 l 549 438 l 547 409 l 549 408 l 543 401 l 543 399 l 547 399 l 547 377 l 549 375 l 549 373 l 541 368 l 547 368 l 545 366 l 545 363 l 549 359 l 543 356 l 535 359 l 533 359 l 533 358 q 539 350 539 358 l 537 350 l 523 337 l 529 335 l 529 333 q 500 316 517 316 l 500 314 l 506 314 l 506 312 l 502 312 q 498 302 502 302 l 484 300 l 484 298 l 486 297 l 486 295 l 484 293 l 477 293 l 465 295 l 463 295 l 463 293 q 484 287 484 292 q 434 237 479 287 q 366 220 409 234 l 290 207 l 263 203 l 251 203 l 251 207 q 282 220 282 212 l 280 220 q 249 205 250 210 l 235 205 q 224 216 224 211 l 222 215 l 218 215 l 218 218 l 222 218 l 222 222 l 216 218 l 212 224 l 210 222 l 203 222 q 175 241 178 235 q 165 251 165 241 l 163 251 l 157 245 q 130 266 130 259 l 130 268 l 119 266 l 119 268 q 113 276 119 276 l 115 277 l 115 281 l 105 279 q 93 289 105 283 q 86 295 93 295 l 86 298 l 80 295 l 70 307 l 50 316 l 45 312 l 45 316 l 43 314 l 41 314 l 37 321 l 39 323 l 50 323 q 62 316 50 316 l 66 319 q 31 331 51 328 l 28 333 q 12 345 22 345 l 10 347 l 10 348 q 18 363 10 354 l 16 363 l 8 359 l 4 371 l 4 377 l 10 377 l 10 378 l 4 378 l 2 377 l 2 380 l 4 382 l 4 385 l 0 389 l 2 390 l 2 392 l 0 394 l 10 399 l 10 404 l 2 404 q 12 409 2 409 l 12 413 q 2 422 5 413 q 12 432 2 432 l 12 434 q 4 440 4 434 q 8 446 8 440 l 10 448 l 16 448 l 39 429 l 39 430 q 26 438 39 433 q 18 453 26 446 l 18 457 l 20 457 l 26 453 l 26 455 l 24 460 l 31 465 l 33 465 l 45 459 q 35 467 41 467 l 35 471 q 82 512 40 471 l 84 512 l 86 511 l 88 511 l 90 512 l 93 512 l 103 511 q 95 514 103 514 l 95 516 l 97 518 l 97 520 l 93 520 l 93 526 l 115 554 l 117 554 l 117 551 l 119 551 q 127 560 119 557 l 132 556 l 140 560 l 130 573 l 146 585 q 167 577 159 584 l 169 577 l 157 591 l 157 594 q 191 602 179 602 q 203 594 191 598 l 205 594 l 205 596 q 193 604 197 596 l 193 606 q 284 615 222 612 q 304 604 284 612 l 307 604 l 307 606 l 292 612 l 292 615 l 302 615 l 319 612 l 319 614 l 317 615 l 317 617 l 319 619 l 321 619 l 325 615 q 354 633 345 620 l 356 634 l 354 636 l 354 638 q 387 671 364 671 l 387 675 l 376 676 l 372 673 l 372 675 l 376 690 l 376 699 q 370 703 370 699 l 376 705 l 378 703 l 380 703 q 399 711 391 711 l 399 713 l 393 713 l 387 711 l 387 715 q 393 718 393 715 l 391 718 l 378 713 l 378 715 l 376 716 l 376 718 l 378 720 q 368 732 370 720 l 370 734 l 372 734 l 374 732 l 374 739 l 368 736 l 366 737 l 364 736 l 360 736 l 360 739 q 366 749 366 739 q 342 774 359 749 q 294 793 330 785 l 294 795 l 296 797 l 296 798 l 288 798 l 288 795 l 286 795 q 280 798 286 798 q 271 802 280 802 l 271 806 l 267 806 q 210 797 267 799 l 210 795 q 187 758 187 766 l 171 768 l 169 768 l 169 766 l 185 758 l 185 755 l 167 726 l 157 732 l 155 732 q 167 724 155 728 l 167 722 l 165 709 l 132 718 l 130 718 l 130 716 l 163 707 l 165 709 l 167 709 q 177 703 177 707 l 177 701 l 167 703 q 134 684 155 684 l 132 684 q 121 690 132 690 q 115 697 121 697 q 125 676 125 684 l 115 671 q 103 680 103 671 l 109 682 l 109 684 q 103 688 103 684 l 107 694 l 105 699 l 111 701 q 105 707 111 707 l 103 709 l 103 716 l 107 732 l 103 736 l 103 737 q 150 779 130 779 q 197 798 157 785 q 267 818 227 818 q 329 798 298 818 l 329 797 l 323 797 l 333 787 l 335 787 l 338 789 l 340 787 l 348 787 l 350 793 l 358 789 l 360 791 l 362 791 l 372 789 l 376 789 l 376 791 q 366 795 366 791 l 368 797 q 356 808 356 798 l 354 806 l 352 806 l 352 808 l 350 806 l 348 806 l 344 810 l 344 812 q 356 823 350 812 l 358 823 l 360 821 l 376 827 m 327 804 l 331 804 l 364 797 l 364 793 q 327 802 351 793 l 327 804 m 298 798 l 298 797 l 307 795 l 317 795 l 317 797 l 300 798 l 298 798 m 331 795 l 335 795 l 338 789 l 331 789 l 331 795 m 389 758 l 389 755 l 401 760 l 401 762 l 399 762 l 389 758 m 123 745 l 123 743 l 132 741 q 125 745 132 745 l 123 745 m 227 741 l 229 739 l 229 737 l 227 736 l 222 736 l 222 737 l 227 741 m 376 728 l 376 722 l 380 722 l 378 728 l 376 728 m 107 722 l 107 720 l 119 718 l 121 718 l 121 720 l 111 722 l 107 722 m 189 699 q 203 694 203 697 l 199 694 l 189 695 l 189 699 m 243 697 l 245 697 q 280 680 280 690 l 276 680 l 263 686 l 263 682 l 280 678 l 282 680 q 288 676 282 676 l 290 675 l 290 665 l 288 663 l 288 661 q 294 654 294 661 q 302 648 302 652 l 298 648 l 296 650 l 294 650 q 278 621 294 621 l 276 619 l 267 623 l 263 619 l 251 619 l 220 617 l 212 623 l 205 617 l 199 617 q 191 621 199 621 l 191 623 l 193 625 l 193 627 q 181 633 181 627 l 175 633 l 175 629 l 146 636 l 146 638 l 148 640 l 148 642 q 109 659 117 650 l 107 659 l 107 661 q 130 671 107 664 l 159 688 l 161 688 l 157 673 l 157 669 q 189 654 157 664 l 189 650 l 177 652 l 175 652 l 175 650 l 185 648 l 199 650 l 203 642 l 205 644 l 210 644 l 216 638 l 191 636 l 185 638 l 185 633 l 208 636 l 212 633 l 229 636 q 251 625 229 631 q 280 634 251 631 l 282 657 l 280 657 l 282 659 l 282 665 q 249 686 260 684 l 235 667 l 251 648 l 265 657 l 259 673 l 249 667 l 249 663 q 255 659 249 659 l 251 655 l 243 663 l 243 667 q 261 678 252 678 q 276 654 276 661 q 251 640 258 640 q 227 665 227 656 l 222 665 q 235 680 224 680 l 233 682 l 233 684 q 241 692 235 692 l 253 688 l 255 688 l 255 690 q 243 695 243 692 l 243 697 m 80 694 l 88 688 l 88 684 l 84 680 l 80 680 l 76 684 l 76 690 l 80 694 m 393 688 l 391 686 l 391 684 l 393 684 l 399 686 l 399 688 l 393 688 m 410 680 l 410 678 l 414 663 l 416 663 l 412 680 l 410 680 m 142 673 l 142 671 l 148 669 l 150 669 l 150 671 l 144 673 l 142 673 m 105 654 l 109 650 l 103 646 l 99 650 l 105 654 m 150 619 l 152 619 l 161 612 l 161 608 l 157 604 l 152 604 l 144 612 l 144 614 l 150 619 m 212 602 l 212 600 l 220 600 l 220 602 l 212 602 m 185 585 l 185 583 l 191 583 l 191 587 l 185 585 m 171 579 l 171 577 l 173 577 l 179 579 l 179 581 l 177 581 l 171 579 m 360 583 l 366 583 l 370 579 l 370 577 l 360 579 l 360 583 m 159 573 l 159 572 l 163 572 l 169 573 l 169 575 l 167 575 l 159 573 m 171 575 l 177 570 l 179 570 l 173 575 l 171 575 m 251 577 l 261 577 l 269 570 l 261 562 l 251 562 q 245 570 246 562 l 251 577 m 146 568 l 148 568 l 152 572 l 150 572 l 146 568 m 195 558 q 205 552 205 555 l 201 549 l 193 554 l 195 556 l 195 558 m 138 541 l 138 537 l 144 537 l 144 539 l 138 541 m 323 530 l 327 522 l 325 520 l 321 520 l 317 524 q 309 512 309 522 l 309 509 l 315 509 q 319 514 315 514 l 321 514 q 307 501 321 501 l 298 520 q 323 530 315 530 m 422 524 l 426 520 l 426 518 l 422 514 l 418 518 l 418 520 l 422 524 m 111 507 l 111 505 l 121 503 q 115 507 121 507 l 111 507 m 134 501 l 134 497 l 140 497 l 140 499 l 134 501 m 358 495 l 360 490 l 362 490 l 362 495 l 358 495 m 385 481 l 387 480 l 387 478 l 385 476 l 382 476 l 380 478 l 380 480 l 382 481 l 385 481 m 488 476 l 488 474 l 502 474 l 502 476 l 488 476 m 504 474 l 504 472 l 516 472 l 516 474 l 504 474 m 354 438 l 360 432 l 358 430 l 354 430 l 350 434 l 354 438 m 54 434 l 58 430 l 60 430 l 56 434 l 54 434 m 41 430 l 41 429 l 50 425 l 50 427 q 43 430 50 430 l 41 430 m 454 432 l 456 430 l 454 425 l 448 425 l 448 430 l 454 432 m 286 427 l 288 427 l 292 422 l 292 420 l 288 417 l 282 422 l 286 427 m 486 419 l 486 415 l 494 420 l 492 420 l 486 419 m 58 417 l 58 413 l 64 411 l 66 411 l 66 413 l 58 417 m 203 419 l 208 415 l 205 408 l 201 408 l 199 417 l 201 419 l 203 419 m 465 406 l 467 406 l 477 409 l 477 411 l 475 411 q 465 406 465 409 m 58 406 l 58 401 l 66 406 l 66 409 l 58 406 m 70 406 l 76 399 l 76 401 l 72 406 l 70 406 m 203 401 l 205 401 l 210 398 l 208 396 q 229 382 229 391 l 231 385 l 233 385 l 235 382 l 235 380 l 227 378 l 235 368 l 235 359 l 212 354 q 187 373 187 360 l 191 377 l 191 378 l 189 377 l 187 377 l 183 380 l 173 378 q 179 382 173 382 l 181 385 l 181 387 l 175 392 l 175 394 l 179 394 l 187 389 l 189 390 l 185 399 l 191 396 l 197 399 l 199 398 l 203 398 l 203 401 m 319 398 l 317 396 l 317 394 l 323 387 l 323 385 l 319 380 l 311 380 l 304 387 l 307 389 l 300 390 l 300 392 l 304 396 l 309 392 q 319 398 309 397 m 26 389 l 31 389 l 37 394 l 35 394 q 26 389 26 391 m 90 394 l 90 389 l 107 377 l 109 377 q 93 394 93 390 l 90 394 m 504 382 l 504 380 l 506 380 l 521 387 l 521 390 l 504 382 m 471 385 q 481 378 471 380 l 486 378 l 486 380 l 471 385 m 205 382 l 205 380 l 214 380 l 214 382 l 205 382 m 510 369 l 510 368 l 516 366 l 516 369 l 510 369 m 155 369 l 157 369 l 163 363 l 163 359 l 159 356 l 157 356 l 150 361 l 150 366 l 155 369 m 191 361 l 191 359 l 187 356 l 183 356 l 179 359 l 181 361 l 191 361 m 239 359 l 241 359 l 249 356 l 249 350 l 245 350 q 239 356 245 356 l 239 359 m 257 347 l 259 347 l 296 317 l 284 314 l 257 342 l 257 347 m 475 326 l 475 323 l 477 316 l 486 316 l 486 319 l 475 326 m 68 319 l 68 317 l 76 317 l 76 319 l 68 319 m 95 319 l 95 317 l 105 317 l 105 319 l 95 319 m 212 319 l 241 314 l 247 314 l 247 308 l 241 308 l 243 307 l 243 304 l 233 297 l 227 297 q 220 307 222 297 l 222 307 l 212 317 l 212 319 m 263 316 l 276 314 l 276 310 l 273 310 l 263 312 l 263 316 m 90 312 l 90 310 l 97 308 l 97 312 l 90 312 m 298 312 l 302 308 l 311 310 l 321 308 l 321 304 l 315 304 l 313 307 l 311 304 l 304 304 l 298 310 l 298 312 m 86 308 l 86 307 l 101 300 l 103 300 l 103 302 l 88 308 l 86 308 m 481 308 q 488 304 481 304 l 490 304 l 490 307 l 481 308 m 107 307 l 115 300 l 115 304 l 107 307 m 368 307 l 374 307 l 376 304 l 378 307 l 382 307 l 382 302 l 368 302 l 368 307 m 125 298 l 125 297 l 134 295 l 136 295 l 136 297 l 130 298 l 125 298 m 142 293 l 142 291 l 157 287 l 163 287 l 163 289 q 146 293 152 289 l 142 293 m 127 291 l 127 289 l 144 283 l 148 283 l 148 286 l 130 291 l 127 291 m 430 274 l 432 268 l 436 268 l 434 274 l 430 274 m 434 266 l 438 262 l 440 262 l 436 266 l 434 266 m 391 260 l 391 258 l 399 258 l 401 260 l 401 262 l 399 262 l 391 260 m 389 235 l 389 232 l 395 232 l 395 234 l 389 235 z "},"9":{"ha":650,"x_min":0,"x_max":647,"o":"m 317 836 l 319 836 l 323 833 l 323 831 l 321 831 l 317 834 l 317 836 m 336 833 l 338 833 l 338 831 l 328 816 q 342 800 328 811 l 340 798 l 340 797 q 361 780 345 797 l 361 778 l 359 778 l 357 780 l 355 778 l 351 778 l 347 781 l 345 780 l 334 780 l 334 783 l 328 783 l 326 781 l 323 781 l 321 783 q 292 766 321 779 l 286 766 l 283 768 l 281 768 l 281 764 l 277 764 l 275 766 l 273 766 q 264 759 273 759 l 251 763 l 249 763 l 249 761 q 260 753 255 761 l 256 749 l 253 749 l 251 751 l 249 751 l 238 744 l 236 742 l 221 751 l 217 747 l 217 745 l 221 742 l 224 742 l 224 744 l 221 749 l 234 738 l 234 734 l 228 734 l 228 725 q 219 711 219 716 q 226 699 224 711 l 217 704 q 204 693 212 704 q 200 687 200 693 q 185 668 193 687 l 174 668 q 187 638 187 663 l 187 627 l 183 623 l 185 621 l 185 612 l 183 612 l 176 615 l 174 615 l 183 606 q 157 587 183 590 l 157 585 l 164 585 l 176 591 l 181 591 q 174 540 177 541 l 176 538 l 176 532 l 174 530 l 174 528 l 198 506 l 198 504 l 194 496 l 194 494 l 196 494 l 198 502 q 206 491 206 498 l 209 491 l 209 494 l 206 496 l 209 496 l 213 492 l 213 483 q 217 475 217 483 l 224 479 l 228 479 q 204 465 215 465 l 204 463 l 206 463 l 236 466 l 245 465 l 247 466 l 247 468 l 298 465 l 304 466 l 307 465 l 307 460 l 300 458 l 277 460 l 277 456 l 234 460 l 238 455 l 238 451 l 234 451 l 234 446 q 277 425 250 446 q 307 412 296 420 l 307 415 l 338 413 q 406 427 373 413 l 417 425 q 507 504 494 467 q 456 559 507 538 q 430 538 432 546 q 462 508 435 526 l 468 517 l 460 536 l 456 536 l 445 534 l 445 538 l 462 549 l 481 515 q 458 491 469 496 q 415 532 448 505 q 453 579 433 565 l 519 536 l 519 526 q 505 441 515 441 q 379 381 439 401 q 366 387 368 381 l 374 391 l 374 393 q 361 398 368 393 l 361 381 l 357 381 l 349 383 l 347 381 l 345 381 l 342 383 l 340 383 l 334 381 l 334 385 l 330 385 q 326 379 330 379 l 315 379 q 234 410 302 379 l 234 412 l 236 413 q 226 429 227 414 l 224 429 q 217 425 224 425 l 213 413 l 217 404 l 206 400 l 213 393 l 213 391 l 209 391 q 196 396 209 396 l 196 385 l 194 385 q 189 394 189 385 l 179 393 l 179 394 l 170 400 l 172 402 l 172 406 l 170 406 l 170 402 l 162 402 q 153 408 162 408 l 153 410 q 132 396 141 406 q 94 374 116 396 l 83 374 l 79 377 l 79 379 q 142 413 117 391 l 147 413 l 147 417 l 134 417 l 134 420 l 144 420 l 144 422 q 136 427 144 427 l 134 429 l 134 432 l 142 430 l 149 432 l 149 439 l 138 455 l 140 456 q 153 436 153 450 l 155 436 l 157 449 l 159 447 l 164 447 l 164 453 l 162 451 l 159 451 q 147 458 159 458 l 147 460 l 151 465 l 153 465 q 157 458 157 465 l 164 456 l 168 456 l 168 458 q 149 470 162 458 l 149 472 l 162 472 l 162 473 q 109 536 132 473 q 102 547 104 536 l 100 549 l 106 555 l 104 555 l 98 551 l 96 551 l 75 585 l 75 591 l 79 595 l 81 593 l 81 595 l 75 602 l 75 614 l 81 614 l 79 621 q 94 632 83 632 l 92 634 l 92 638 q 117 672 112 672 l 113 675 l 115 677 l 115 680 l 113 685 l 115 685 l 117 687 l 115 689 l 115 691 l 119 701 l 115 701 l 115 702 l 117 704 l 117 706 q 90 723 104 711 l 87 721 l 77 723 l 73 723 q 45 706 73 713 l 45 704 l 43 704 q 32 710 37 710 l 32 715 l 34 715 l 47 711 l 53 711 l 85 732 l 87 732 l 87 736 q 92 749 88 749 l 94 747 l 96 747 l 109 751 l 111 751 l 113 749 l 115 749 l 117 751 q 125 738 117 745 l 127 725 l 115 718 l 119 708 l 132 708 l 132 711 q 121 719 125 711 l 123 719 l 136 715 l 147 718 l 144 727 l 144 734 l 149 734 l 149 742 l 147 751 l 151 751 l 151 764 l 155 764 l 155 751 l 162 751 l 194 770 l 200 766 q 204 776 200 776 l 206 774 l 209 774 q 213 780 209 780 l 215 778 q 249 793 215 786 l 251 791 l 262 793 l 262 795 l 258 795 l 258 798 l 277 802 l 283 800 l 286 800 l 286 802 l 281 802 l 281 806 l 292 808 l 315 808 l 319 812 l 319 814 l 313 825 l 323 816 q 336 833 332 833 m 349 812 q 361 806 361 809 l 368 808 l 370 806 l 372 806 l 374 808 l 376 808 q 411 798 391 808 l 413 800 l 419 795 l 423 798 q 430 787 430 797 q 434 793 434 787 l 436 795 l 438 795 q 528 738 495 776 l 528 734 l 517 732 l 517 728 l 532 732 l 538 723 l 541 725 l 543 725 l 559 710 l 555 706 l 555 704 l 557 706 l 559 706 l 562 704 l 564 704 l 562 702 l 562 699 l 564 701 l 566 701 l 566 699 q 555 693 566 693 l 555 689 l 557 689 l 564 691 l 564 689 l 574 685 q 623 612 574 677 l 630 587 l 628 579 l 634 519 l 623 525 l 623 521 l 632 519 l 630 517 l 630 515 q 636 496 636 515 q 617 420 617 444 l 617 417 q 585 387 591 387 l 589 383 l 606 398 l 606 394 l 591 376 l 594 370 l 579 360 l 581 359 q 553 317 581 344 q 541 281 553 291 l 545 277 l 543 277 q 526 288 526 277 l 519 287 l 509 290 l 509 288 l 503 279 l 503 277 l 511 283 l 513 283 q 532 275 529 283 l 532 273 q 453 237 496 248 q 374 203 387 203 l 345 203 q 304 211 304 203 l 286 210 q 191 254 228 218 l 170 279 l 183 311 q 198 300 193 309 l 204 298 l 202 288 l 202 287 l 211 287 l 206 270 l 260 239 l 326 222 l 402 241 l 417 241 l 438 254 l 449 253 l 449 256 l 447 258 l 447 260 q 451 266 451 260 l 453 268 l 456 268 l 456 266 l 453 258 l 453 256 l 456 256 l 460 273 l 473 279 l 475 279 l 473 277 l 473 275 l 475 275 l 479 279 l 475 279 q 494 296 484 296 l 500 309 l 503 309 l 503 306 l 505 306 q 509 315 509 306 q 528 336 512 315 q 543 347 543 341 l 541 349 l 530 343 l 524 347 l 515 345 l 511 349 l 532 377 l 574 453 q 564 496 566 466 q 543 532 560 496 q 524 591 530 532 q 513 621 519 591 l 517 625 l 513 629 l 513 632 l 517 632 l 517 634 q 509 638 509 634 l 509 644 q 517 648 509 648 l 517 649 q 496 663 496 649 l 490 668 l 494 672 q 477 682 477 677 l 481 685 l 483 684 q 494 691 493 687 l 490 691 l 473 685 l 468 691 l 468 693 l 473 693 l 473 694 q 456 713 463 694 l 445 713 l 445 718 l 464 715 l 464 719 q 456 727 456 719 q 436 747 444 727 l 434 749 l 434 751 l 447 751 l 447 753 l 432 757 l 430 755 l 430 763 l 423 759 q 396 772 423 768 l 396 778 l 394 776 l 391 776 l 385 778 l 385 776 q 355 793 363 776 q 349 800 349 793 l 340 804 l 345 808 l 347 806 l 349 806 l 349 812 m 168 793 l 170 793 q 174 787 174 793 l 168 780 l 159 780 l 157 781 l 155 781 l 153 780 l 151 781 l 151 787 l 168 793 m 106 774 l 109 772 l 109 770 l 106 768 l 104 768 l 102 770 l 102 772 l 104 774 l 106 774 m 77 770 q 85 753 85 759 q 66 764 68 758 q 77 770 66 769 m 194 761 l 194 757 l 202 751 l 206 751 l 206 755 q 196 761 196 755 l 194 761 m 134 742 l 136 740 l 136 736 l 132 732 l 130 734 l 130 738 l 134 742 m 400 742 l 402 742 l 409 736 l 406 734 l 404 734 l 400 740 l 400 742 m 43 738 l 45 738 q 56 728 56 736 l 49 728 q 43 738 44 728 m 402 725 l 409 725 l 409 721 l 402 721 l 402 725 m 413 723 l 432 719 l 441 719 l 441 715 l 432 715 l 413 719 l 413 723 m 477 715 l 477 713 l 492 710 l 494 710 l 494 711 l 481 715 l 477 715 m 36 706 l 41 702 l 28 687 q 15 694 15 692 l 36 706 m 125 704 l 125 702 l 132 699 l 132 701 l 125 704 m 136 701 l 136 696 l 142 696 l 142 699 l 136 701 m 538 696 l 538 694 l 551 693 q 545 696 551 696 l 538 696 m 566 696 l 570 693 l 568 691 l 566 691 l 566 696 m 279 689 l 283 689 l 288 685 l 288 684 l 283 680 l 279 680 l 275 684 l 275 685 l 279 689 m 200 687 l 204 687 l 204 682 l 200 682 l 200 687 m 515 684 l 515 682 l 526 682 l 526 684 l 515 684 m 30 675 l 32 674 l 32 672 l 30 670 l 28 670 l 26 672 l 26 674 l 28 675 l 30 675 m 155 629 l 155 625 l 164 621 l 166 621 l 166 623 l 155 629 m 517 621 l 532 608 l 532 612 q 519 621 527 612 l 517 621 m 121 598 l 121 595 l 127 596 l 127 598 l 121 598 m 549 591 l 549 587 l 555 585 l 555 589 l 549 591 m 96 585 l 96 579 l 98 578 l 102 578 l 98 585 l 96 585 m 562 579 l 570 572 l 572 572 l 566 578 l 566 579 l 562 579 m 136 572 l 138 572 l 142 576 l 140 576 l 136 572 m 121 559 l 123 553 l 127 553 l 125 559 l 121 559 m 587 559 l 587 557 l 591 553 l 591 555 l 587 559 m 600 547 l 600 545 l 604 542 l 606 542 l 600 547 m 613 534 l 613 532 l 617 528 l 619 528 l 613 534 m 230 534 l 230 528 l 219 494 l 213 494 l 213 496 q 230 534 218 518 m 283 456 l 286 456 l 296 449 l 292 449 l 283 453 l 283 456 m 183 449 l 185 444 l 189 444 l 189 449 l 183 449 m 45 447 l 51 447 l 56 444 l 47 439 l 45 441 l 45 447 m 6 439 l 15 434 l 13 432 l 11 432 q 28 417 15 417 l 51 425 l 51 420 l 45 415 l 41 415 l 38 417 l 36 417 q 28 408 36 412 l 28 410 l 19 408 l 19 406 l 34 393 l 34 391 l 28 394 l 13 391 q 0 408 0 399 l 2 406 l 6 406 l 6 408 l 2 408 l 2 410 q 11 417 4 417 l 13 415 l 17 415 l 17 417 q 0 438 7 417 l 6 439 m 581 385 q 574 377 581 377 l 572 379 l 570 379 l 568 377 l 570 376 l 570 372 l 566 372 l 566 366 q 581 379 570 366 l 585 379 l 585 381 l 581 385 m 228 385 l 232 381 l 228 377 l 224 377 l 224 381 l 228 385 m 503 377 l 505 377 l 509 374 l 505 370 l 503 370 l 498 374 l 503 377 m 66 376 l 68 376 q 85 368 85 373 l 79 360 l 66 360 l 62 364 l 62 368 q 68 372 62 372 l 66 374 l 66 376 m 191 374 l 194 372 l 194 341 l 198 341 q 219 374 198 349 q 279 362 279 369 l 258 357 l 241 359 l 236 355 l 228 357 q 219 349 228 352 l 217 341 l 219 340 l 219 338 q 202 307 211 317 l 204 307 l 211 309 l 211 307 l 202 300 l 183 315 q 189 323 186 323 l 196 319 l 198 321 l 198 324 l 189 328 l 191 334 l 187 372 l 189 374 l 191 374 m 541 366 l 541 364 l 545 360 l 547 366 l 541 366 m 547 351 l 549 351 l 564 364 l 564 366 q 547 351 558 366 m 132 364 l 134 362 l 134 360 l 127 360 l 132 364 m 288 362 q 302 347 295 358 l 298 341 l 298 340 l 300 340 l 307 341 l 319 326 l 319 323 q 313 309 319 316 q 317 304 317 309 q 300 275 317 275 l 258 270 l 230 306 l 230 311 q 258 328 244 328 l 260 334 l 262 334 q 296 311 276 334 l 296 309 q 283 288 296 290 q 256 300 256 296 l 256 304 q 264 319 258 318 q 283 307 283 311 l 279 304 l 266 309 l 266 307 l 264 306 l 264 304 q 286 296 277 296 l 288 309 l 262 324 q 245 302 246 314 q 268 277 255 286 q 300 290 299 287 l 300 321 l 304 324 l 302 326 l 302 328 l 307 334 l 302 338 l 300 336 l 294 336 q 273 349 273 340 l 260 351 q 288 362 260 353 m 434 359 l 441 351 l 441 347 l 436 343 l 434 343 l 423 351 l 423 353 q 434 359 423 357 m 75 349 l 83 341 l 83 338 l 79 334 l 77 334 q 71 347 72 334 l 73 349 l 75 349 m 513 345 q 522 340 522 342 l 522 338 q 513 334 522 334 l 515 332 l 515 328 l 507 334 l 509 324 l 509 323 l 505 319 l 500 319 l 494 326 q 513 345 503 340 m 38 340 l 41 338 l 41 336 q 30 315 36 315 l 26 315 l 19 321 l 19 323 q 38 340 24 332 m 492 323 l 494 321 l 496 321 q 488 307 496 307 q 473 288 484 288 l 475 287 l 475 285 l 473 283 l 471 283 l 464 285 l 466 283 l 466 279 l 458 275 l 456 275 l 456 277 q 490 323 476 298 l 492 323 m 641 323 l 647 317 l 647 311 l 641 306 l 634 306 q 626 321 629 306 l 628 323 l 641 323 m 181 290 l 181 288 l 187 288 l 189 290 l 189 292 l 187 292 l 181 290 m 430 247 l 430 243 l 438 245 l 438 249 l 430 247 m 421 239 l 423 239 l 428 243 l 426 243 l 421 239 z "}," ":{"ha":386,"x_min":0,"x_max":0,"o":""},"!":{"ha":163,"x_min":-18,"x_max":408,"o":"m 102 1050 l 105 1050 q 134 1039 134 1047 l 132 1039 q 102 1050 102 1044 m 65 1021 l 71 1021 l 98 1005 q 117 1016 108 1016 q 149 989 132 1016 l 149 979 l 142 968 l 144 945 q 132 901 144 901 l 105 898 l 98 898 l 98 893 l 122 893 q 130 885 122 885 l 134 857 q 115 770 127 842 l 115 768 l 127 778 l 132 778 l 117 757 l 119 728 q 105 580 105 663 l 107 572 l 90 381 l 92 378 l 87 378 l 78 384 l 71 381 l 68 384 l 68 387 l 71 389 l 73 389 l 71 397 l 68 397 l 68 392 l 71 389 l 63 389 l 48 467 l 51 467 q 83 449 57 467 l 90 446 l 60 470 q 38 509 38 479 l 41 509 l 38 512 q 58 616 44 609 l 63 616 l 63 618 l 43 621 l 48 637 q 33 700 42 637 l 53 718 l 51 718 l 48 715 l 45 715 l 43 718 l 33 707 q 16 744 26 707 q 36 843 28 843 l 53 848 l 53 851 q 26 864 26 851 l 18 890 l 33 909 l 33 911 l 18 895 l 16 895 q 1 958 16 909 q 31 987 18 981 l 38 987 l 38 981 l 41 981 l 41 987 l 36 992 l 36 995 q 65 1021 45 995 m 184 977 l 189 977 l 193 971 l 193 968 l 189 964 l 184 964 l 178 968 l 178 971 l 184 977 m 65 964 l 65 958 l 71 958 l 75 964 l 75 968 l 65 964 m 112 943 l 110 935 l 115 935 l 115 943 l 112 943 m 68 893 l 68 890 l 75 890 l 78 893 l 80 893 l 87 890 l 92 890 l 92 893 l 83 895 l 68 893 m 211 882 l 218 882 l 218 877 l 211 877 l 211 882 m 181 859 l 186 854 l 169 848 l 166 851 l 166 854 l 181 859 m 231 807 l 231 804 l 220 791 l 220 796 l 231 807 m 213 781 l 216 778 l 216 775 l 213 773 l 208 773 l 208 775 l 213 781 m 100 752 l 98 755 l 95 755 l 87 741 l 90 741 l 110 755 l 110 760 l 100 752 m 63 726 l 65 726 l 73 731 l 73 726 l 78 726 l 85 739 l 85 741 l 80 741 q 63 726 63 733 m 193 734 l 196 731 l 193 723 l 191 723 l 189 726 l 186 726 l 178 715 l 176 715 l 176 718 q 193 734 182 729 m 151 726 l 154 726 l 154 723 l 132 700 l 130 700 l 151 726 m 16 676 l 18 673 l 18 671 l 16 669 l 14 669 l 12 671 l 12 673 l 14 676 l 16 676 m 71 618 l 71 614 l 105 618 l 105 621 l 90 624 l 71 618 m 33 611 l 36 611 l 36 606 l 24 598 l 24 600 l 33 611 m 65 598 l 63 590 l 68 590 l 68 598 l 65 598 m -1 572 l 1 572 l 1 566 l -13 551 l -16 551 l -1 572 m 203 562 l 208 562 l 208 559 l 174 517 l 169 522 l 172 525 l 172 532 l 164 532 l 164 535 l 166 538 l 166 541 l 164 543 l 166 543 l 178 541 l 203 562 m 400 454 l 408 446 l 408 444 l 403 439 l 397 439 l 393 444 l 393 446 l 400 454 m 294 426 l 302 426 l 307 420 l 307 415 l 299 408 l 292 408 l 284 415 l 294 426 m 184 405 l 193 394 l 193 392 l 189 387 l 176 387 l 169 394 l 169 397 q 184 405 172 405 m 252 399 l 258 394 q 231 360 231 369 q 245 342 235 360 l 245 337 l 240 332 l 238 332 l 235 334 q 223 321 229 334 l 225 313 l 216 306 l 211 306 q 205 313 205 306 l 203 316 l 196 316 l 189 308 l 176 311 l 137 292 l 137 290 q 149 274 149 280 l 125 233 l 125 230 l 146 199 l 146 193 l 142 193 q 119 224 142 199 q 98 203 118 216 q 78 214 84 203 l 80 217 l 78 219 l 78 224 l 83 233 l 78 240 l 80 243 l 84 372 l 78 269 l 80 267 l 90 267 l 90 269 q 73 300 73 269 l 75 303 l 78 303 l 75 306 l 75 308 l 78 326 l 87 326 q 98 311 92 326 q 132 292 107 311 q 198 345 198 339 q 231 371 200 357 q 252 399 231 381 m 297 392 l 299 389 l 299 387 l 297 384 l 294 384 l 292 387 l 292 389 l 294 392 l 297 392 m -18 381 l -8 381 l -8 374 l -13 374 l -18 378 l -18 381 m 161 355 l 164 353 l 164 347 l 159 342 l 157 342 l 151 347 l 161 355 m 68 326 l 71 326 l 71 306 l 68 303 l 71 295 l 68 292 l 71 279 l 71 274 l 68 264 l 71 261 l 71 258 l 68 222 l 68 219 l 65 219 q 21 251 52 222 q 6 264 11 254 q 51 311 43 311 l 68 326 m 48 277 l 48 271 l 51 271 l 56 277 l 56 282 l 53 282 l 48 277 m 92 271 l 92 269 l 102 269 l 102 271 l 92 271 m 146 191 l 151 191 l 164 178 l 159 172 l 146 188 l 146 191 m 211 165 l 216 165 q 223 151 221 165 l 220 149 l 213 149 l 205 157 l 205 159 l 211 165 z "},"\"":{"ha":203,"x_min":-23,"x_max":203,"o":"m 7 825 l 8 825 l 8 821 l 3 821 l 7 825 m 111 804 l 96 792 l 94 794 l 94 795 q 111 804 105 804 m 39 787 l 50 787 q 85 762 85 777 q 60 703 60 710 l 68 703 l 68 700 l 59 700 l 59 651 l 56 651 q 35 682 56 655 q 8 736 25 711 q 39 787 20 766 m 136 784 l 146 783 l 161 784 l 163 779 l 165 781 l 172 781 l 167 773 l 179 731 l 179 729 q 165 705 174 705 l 148 705 l 146 707 l 144 705 l 120 705 q 106 737 115 705 l 99 749 q 132 783 119 783 l 134 784 l 136 784 m -12 732 q 0 715 -12 728 l -2 715 l -7 718 l -23 715 l -23 716 l -12 732 m 177 708 l 184 708 l 184 705 l 177 705 l 177 708 m 189 708 l 203 708 l 203 705 q 195 702 195 705 l 195 699 l 189 699 l 189 708 m 5 707 l 7 707 l 19 696 l 14 696 l 5 707 m 48 703 l 48 700 l 54 702 l 54 703 l 48 703 m 104 705 l 106 703 l 106 702 l 99 699 l 90 702 l 88 700 l 85 700 l 85 703 l 96 703 l 104 705 m 129 702 q 139 690 139 694 l 141 690 q 155 696 149 696 l 158 700 l 158 702 l 167 702 l 167 700 q 139 653 145 653 l 137 653 q 118 700 137 659 l 120 702 l 129 702 m 41 640 l 43 640 l 47 637 l 47 635 l 43 635 l 41 640 m 47 633 l 48 633 l 52 630 l 52 629 l 50 629 l 47 632 l 47 633 m 92 590 l 99 583 l 99 582 l 97 582 q 92 590 93 582 m 123 557 l 130 551 l 130 547 q 123 557 123 551 m 172 547 l 174 546 l 174 543 l 169 543 l 169 545 l 172 547 z "},"#":{"ha":575,"x_min":0,"x_max":716,"o":"m 353 792 l 366 792 q 385 711 376 792 q 399 553 399 671 l 453 553 q 483 578 464 553 l 488 578 q 496 556 496 571 l 529 556 q 589 543 589 556 l 589 537 q 486 521 589 526 l 486 532 l 483 532 q 477 521 477 532 l 423 518 l 396 518 l 393 494 l 388 494 l 385 513 l 380 513 l 388 450 q 372 369 382 381 l 374 369 l 399 377 l 401 366 l 404 366 q 415 382 404 382 l 475 393 q 502 369 494 369 l 502 361 l 494 366 l 453 350 l 453 347 l 494 347 l 494 342 l 412 342 l 407 347 l 410 350 l 407 353 l 404 353 l 404 345 l 363 342 l 355 342 l 350 347 q 358 353 350 353 l 358 355 l 353 355 l 350 353 l 350 358 l 345 358 q 334 350 345 350 l 334 339 l 309 339 l 304 345 q 326 353 304 353 l 328 366 l 336 502 l 336 507 l 304 502 l 301 502 q 296 521 301 515 l 296 529 l 298 532 l 298 534 l 293 540 l 293 543 l 339 551 l 339 613 l 353 627 l 353 629 l 339 632 q 326 751 338 742 q 353 792 326 773 m 133 732 q 144 708 139 732 l 144 692 q 149 651 144 651 l 146 637 l 144 505 q 285 540 190 521 l 290 540 l 290 505 q 209 475 290 498 q 136 456 167 469 l 136 453 q 111 461 121 453 l 111 456 l 127 445 l 133 445 l 130 431 l 130 296 l 293 345 l 296 345 l 298 342 l 298 339 q 288 326 291 338 q 301 296 301 326 l 298 296 q 149 244 211 272 l 130 244 l 130 220 l 133 98 l 136 98 q 171 127 149 102 l 176 127 l 182 122 q 136 84 136 94 l 133 30 l 136 30 q 111 -56 130 -18 l 106 -56 l 100 -51 l 100 -29 l 92 8 l 92 38 q 65 54 83 38 l 68 57 l 68 60 l 65 60 l 62 57 l 60 57 l 57 60 l 57 62 q 92 106 57 81 l 92 136 l 103 149 l 103 152 l 95 146 l 92 146 l 92 174 l 90 233 l 87 231 l 84 231 l 24 225 l 22 228 l 22 244 q 60 285 33 271 l 87 293 q 76 439 79 355 l 73 439 q 41 431 64 431 l 30 448 q 22 453 22 448 q 71 480 22 460 l 81 477 l 87 477 l 87 480 l 81 480 l 90 507 l 90 534 l 100 597 q 76 581 90 597 l 73 583 l 73 586 l 79 591 l 76 594 l 76 597 l 81 597 q 98 608 81 608 l 100 605 l 100 602 l 98 600 l 100 600 l 122 618 l 122 621 l 117 621 l 106 610 l 103 613 l 100 613 q 106 656 106 625 l 106 681 q 119 730 115 689 l 122 732 l 133 732 m 515 656 l 521 651 l 515 646 l 513 646 l 507 651 l 515 656 m 358 640 l 358 637 l 366 646 l 366 648 l 358 640 m 290 608 l 298 608 l 293 602 l 285 602 l 290 608 m 247 594 l 252 594 l 252 586 l 247 586 l 247 594 m 369 556 l 369 534 l 377 534 q 369 556 374 556 m 282 488 l 293 488 l 288 483 l 282 483 l 282 488 m 458 483 l 458 477 l 453 472 l 453 477 l 458 483 m 90 475 l 100 464 l 100 467 l 92 475 l 90 475 m 220 450 l 220 448 l 214 442 l 214 445 l 220 450 m 144 442 l 152 442 l 152 437 l 149 437 l 144 442 m 632 420 l 635 418 l 635 415 q 583 393 631 404 q 502 372 523 372 q 494 380 502 380 q 483 385 494 385 l 483 391 l 480 393 l 483 396 l 632 420 m 564 345 l 716 345 l 716 339 l 713 339 l 640 336 l 591 339 l 575 336 l 564 339 l 564 345 m 404 339 l 418 339 l 418 334 l 385 326 l 385 334 q 361 323 375 323 l 355 315 l 377 312 l 377 307 l 353 307 l 328 312 l 320 309 l 307 315 q 342 331 307 331 l 377 331 q 404 339 377 339 m 288 320 q 279 312 288 312 l 279 309 l 285 309 l 293 320 l 288 320 m 339 304 l 353 304 l 353 252 l 358 231 l 358 220 q 336 206 351 206 l 328 214 l 328 277 l 326 296 l 331 296 l 331 290 l 334 290 q 339 304 334 304 m 19 203 l 22 203 l 30 195 l 30 193 l 22 184 l 11 195 l 19 203 m 19 168 l 27 168 l 35 160 l 35 152 q 19 144 33 144 l 16 144 q 0 163 12 144 l 0 165 l 19 168 m 57 109 l 62 103 l 54 98 l 52 98 l 52 103 l 57 109 m 136 27 l 138 27 q 149 19 149 23 l 144 19 l 136 27 m 171 5 l 176 5 l 182 0 l 176 0 l 171 5 m 182 0 l 184 0 q 217 -18 217 -12 l 214 -21 l 212 -21 q 182 0 194 -14 m 288 -54 l 296 -54 l 304 -64 l 301 -67 l 298 -67 q 282 -59 284 -67 l 288 -54 z "},"$":{"ha":543,"x_min":-38,"x_max":647,"o":"m 177 1213 l 179 1213 q 215 1196 192 1213 l 210 1196 q 177 1213 177 1206 m -7 1137 l -5 1135 l -2 1135 q -9 1124 -5 1124 l -12 1124 l -12 1132 l -7 1137 m 355 1137 q 397 1120 397 1128 l 394 1120 l 355 1132 l 355 1137 m 274 1101 l 294 1028 l 297 1028 q 425 1000 325 1028 q 481 975 481 993 q 547 937 501 949 l 550 937 q 616 980 579 937 q 644 1010 616 986 l 647 1010 l 647 1008 l 608 942 q 596 916 596 925 l 593 919 l 517 914 l 511 919 l 501 919 l 496 914 l 496 909 l 507 909 l 509 911 l 511 909 l 593 916 l 593 911 l 545 830 q 476 734 480 734 q 368 787 397 768 q 410 878 368 823 l 420 878 q 465 856 465 865 q 448 802 465 802 q 407 798 433 798 l 401 805 l 401 833 l 399 833 q 389 802 389 813 q 450 757 389 781 q 504 820 504 802 l 509 846 l 488 906 l 488 909 l 494 909 l 494 911 q 465 932 465 911 q 399 952 458 952 q 294 967 398 956 l 294 939 l 287 939 l 287 945 l 292 949 l 289 952 l 289 957 l 292 960 l 292 962 q 284 972 284 962 l 281 975 l 277 975 l 279 962 l 279 957 l 277 947 l 281 909 l 287 909 l 284 916 l 287 929 l 292 929 l 292 926 q 284 896 288 896 l 287 884 l 287 878 l 284 848 l 292 789 l 284 706 l 287 678 l 287 650 q 351 627 287 639 q 417 592 368 614 l 458 604 q 430 589 444 589 l 430 587 q 496 544 496 566 l 498 541 l 498 538 l 514 549 l 519 549 l 519 546 q 501 536 513 536 q 534 467 528 502 l 534 445 q 445 280 534 324 l 404 254 q 307 209 347 209 l 307 201 l 302 201 l 302 206 q 289 191 292 202 l 292 176 l 261 171 l 258 173 l 261 186 l 261 189 q 241 203 261 203 l 238 203 l 238 189 l 241 148 l 233 138 l 231 140 l 233 191 l 233 206 q 100 244 201 206 l 82 247 q 62 209 62 235 l 59 206 l 54 206 l 52 216 l 54 237 q 39 275 47 237 q 23 315 32 275 q -9 378 16 315 l -17 409 q -2 435 -12 410 l 28 475 q 138 435 111 454 q 128 397 138 417 q 138 366 135 397 l 174 330 l 169 330 l 141 346 l 138 343 q 34 366 138 351 l 28 389 q 41 429 35 429 l 59 429 q 105 414 105 425 l 102 397 l 115 397 l 115 399 l 118 425 q 36 452 58 452 q 5 412 22 452 q 69 288 26 351 l 72 290 l 75 290 q 131 267 122 267 l 141 277 l 146 272 l 134 267 l 134 264 l 220 239 l 228 241 l 220 270 l 228 280 l 238 277 l 241 277 l 241 280 q 231 285 231 280 l 233 292 l 222 300 l 228 300 l 238 295 l 241 308 l 274 302 l 274 308 l 256 371 q 269 470 266 402 l 271 473 l 274 473 q 269 495 269 479 q 233 513 269 505 l 149 562 l 85 594 q 64 610 77 594 l 69 614 l 69 610 l 75 610 l 72 622 l 75 625 l 72 625 l 49 612 q -30 658 23 620 l -30 671 l -27 749 q -38 772 -34 772 l -33 808 l -38 818 q 98 967 -34 848 q 212 1005 109 975 q 238 1015 227 1015 q 261 1023 242 1023 l 266 1031 l 261 1066 l 264 1069 l 264 1072 l 261 1074 l 261 1076 l 264 1089 l 261 1097 l 274 1101 m 432 1101 l 437 1101 l 448 1094 l 443 1094 q 432 1101 432 1098 m 404 1036 l 407 1033 l 407 1031 l 394 1023 l 389 1023 l 389 1025 q 404 1036 389 1029 m -35 983 l -5 980 l -5 975 l -7 977 l -33 972 l -35 975 l -35 983 m 39 833 l 59 769 q 77 729 67 769 q 111 709 90 709 q 202 661 192 675 l 197 661 l 197 658 l 199 655 l 199 652 l 197 645 l 202 645 l 199 620 l 202 612 l 199 602 l 205 597 q 218 607 205 607 l 215 610 l 215 614 l 220 614 l 220 617 l 212 617 l 212 627 l 218 627 l 218 630 l 208 630 l 208 658 l 210 661 l 210 663 q 258 637 250 646 l 266 637 l 274 645 l 258 721 l 258 731 l 266 751 l 264 759 l 266 767 l 261 820 l 266 856 q 256 909 262 905 l 264 957 l 264 964 q 241 975 260 975 q 111 939 203 970 q 79 911 96 932 q 39 840 64 907 l 39 833 m 1 967 l 3 964 l 23 964 l 23 960 l -9 960 l -9 964 l 1 967 m 410 911 l 414 906 l 414 904 l 407 904 l 401 909 l 404 911 l 410 911 m 85 899 l 87 896 l 87 894 q 56 873 75 873 l 85 899 m 202 863 l 205 863 l 210 858 l 208 856 l 210 848 l 208 815 l 202 815 l 202 863 m 417 858 l 404 840 l 404 838 l 435 846 l 440 820 l 425 815 l 422 815 l 417 820 l 425 820 l 425 827 l 422 830 l 422 833 q 412 825 412 829 l 412 815 q 427 808 412 810 l 445 812 l 445 853 l 417 858 m 202 800 l 208 800 l 208 792 l 202 792 l 202 800 m 202 785 l 208 785 l 208 774 l 205 772 l 208 769 l 205 757 l 210 734 l 210 724 l 205 719 l 202 719 l 202 721 l 205 734 l 199 734 l 199 741 l 202 785 m 118 681 q 98 655 118 675 l 100 655 q 123 681 114 663 l 118 681 m 36 661 l 39 661 l 44 665 l 41 665 l 36 661 m -2 650 l -2 648 l 3 648 l 11 650 l 11 645 l 23 645 q 31 661 28 645 q -2 650 24 654 m 445 645 l 448 642 l 448 640 l 437 632 l 435 632 l 435 637 l 445 645 m 511 594 l 511 587 l 507 587 l 507 589 l 511 594 m 279 576 l 279 572 l 287 574 l 287 576 l 279 576 m 320 574 q 335 566 322 566 l 358 566 l 358 569 l 320 574 m 378 566 l 378 564 l 397 564 l 397 566 l 378 566 m 202 559 l 202 556 q 212 551 212 556 l 205 551 l 205 549 l 215 546 l 212 549 l 212 551 l 218 551 l 220 549 l 233 551 q 212 562 233 558 l 202 559 m 243 556 l 243 554 l 254 554 l 254 556 l 243 556 m 266 551 l 266 538 l 269 538 l 269 551 l 266 551 m 79 551 l 85 546 l 82 544 l 79 544 l 75 549 l 77 551 l 79 551 m 156 544 l 159 544 q 164 536 159 536 l 141 521 l 138 524 l 138 526 l 156 544 m -20 524 l -12 524 l -2 513 l -2 511 q -22 503 -3 503 l -25 505 l -25 518 l -20 524 m 289 493 l 287 477 l 287 467 l 294 376 l 287 353 l 289 318 l 287 300 l 289 302 l 294 302 l 287 292 l 302 275 l 302 270 l 299 267 l 307 247 l 317 247 q 412 300 393 247 q 445 356 423 313 l 440 387 l 440 422 q 427 450 440 450 l 302 495 l 299 493 l 297 493 l 289 495 l 289 493 m 154 473 l 156 473 l 156 467 l 149 467 l 154 473 m 192 425 l 197 425 l 197 419 l 187 419 l 192 425 m 52 414 l 46 387 q 82 368 46 368 l 85 366 l 95 368 l 85 381 l 59 381 l 54 387 q 69 412 56 412 l 72 409 l 75 409 l 82 412 q 95 399 85 399 l 95 401 q 54 417 95 417 l 52 414 m 619 417 l 624 417 l 624 412 l 608 407 l 608 412 l 619 417 m 64 399 l 62 397 l 62 394 l 72 391 l 64 399 m 353 384 l 361 384 l 366 378 l 366 376 q 351 368 363 368 l 345 368 l 340 374 l 353 384 m 161 381 l 169 381 l 174 376 l 169 371 l 161 378 l 161 381 m 320 330 l 325 326 l 325 323 q 304 310 325 317 l 304 313 l 320 330 m 366 330 l 368 330 l 374 326 l 368 320 l 366 320 l 361 326 l 366 330 m 197 318 l 202 318 l 222 300 l 218 300 l 197 318 m 575 288 l 583 285 l 583 282 l 578 277 l 573 277 l 568 282 l 568 285 l 575 288 m 557 254 l 560 254 l 560 252 l 542 234 l 540 234 l 540 237 q 557 254 541 243 m 583 237 l 591 237 l 591 231 l 586 227 l 581 227 l 575 231 l 583 237 m 509 209 l 509 201 l 491 176 l 486 176 l 486 178 q 509 209 499 208 m 381 193 l 384 193 l 384 191 l 376 183 l 374 183 l 374 186 l 381 193 z "},"%":{"ha":475,"x_min":1,"x_max":467,"o":"m 147 1004 l 153 1004 q 161 990 159 1004 l 153 985 l 147 985 l 142 990 l 142 998 l 147 1004 m 304 1001 l 334 1001 l 334 998 l 299 895 l 302 892 l 296 887 l 302 787 l 239 602 l 242 600 q 180 331 212 431 l 182 323 l 155 203 l 134 203 l 128 209 l 144 334 l 153 331 l 153 334 l 158 345 l 158 347 l 147 339 l 144 339 l 144 342 l 185 480 l 182 488 l 185 491 q 193 483 193 491 q 215 496 215 492 q 196 505 196 498 l 193 502 l 188 502 l 267 808 l 267 830 l 272 830 l 275 822 l 272 819 l 272 817 l 275 792 l 277 792 q 288 825 282 825 q 267 849 288 841 l 264 882 q 304 1001 298 1001 m 424 879 l 429 873 l 421 868 l 418 871 l 418 873 l 424 879 m 9 860 q 20 836 20 860 l 33 825 l 55 833 l 98 808 l 101 808 l 98 806 l 98 803 q 150 760 150 774 q 112 694 121 702 q 22 724 53 703 l 36 776 l 36 779 l 33 779 l 31 768 l 25 768 l 25 776 l 28 779 l 28 781 l 14 795 l 14 811 l 17 808 l 28 808 l 28 811 l 20 814 l 17 811 l 17 814 q 28 822 17 821 l 1 854 q 9 860 1 860 m 204 846 l 207 846 l 207 838 l 201 833 l 199 836 l 199 841 l 204 846 m 117 819 l 125 819 l 125 814 l 101 808 l 117 819 m 85 800 l 136 754 l 98 711 q 47 738 47 728 l 47 741 l 63 770 q 101 754 84 770 l 82 732 l 71 741 l 71 743 q 82 749 82 743 l 82 754 l 71 757 l 58 735 l 90 724 q 120 754 109 734 q 77 784 87 784 q 44 768 64 768 q 33 730 33 743 l 36 730 l 106 705 l 142 754 q 87 800 140 769 l 85 800 m 272 781 l 275 768 l 280 768 l 277 781 l 272 781 m 272 762 l 272 754 l 277 749 l 277 762 l 272 762 m 153 749 l 153 746 q 120 673 140 699 q 14 708 52 688 l 14 716 l 82 692 l 112 684 q 150 749 125 684 l 153 749 m 408 510 q 456 396 456 411 q 391 372 440 382 l 361 361 q 313 442 321 406 q 389 488 363 488 l 424 420 q 372 385 406 403 q 334 420 366 385 l 345 453 l 361 453 l 391 426 l 391 423 l 372 420 l 372 423 l 378 431 l 378 434 l 359 439 q 348 423 354 439 q 389 404 378 404 l 408 426 l 408 431 q 375 475 380 475 l 323 434 q 370 377 344 394 l 372 377 q 437 401 433 391 l 437 404 q 397 499 437 420 q 310 464 310 480 l 310 445 q 345 366 321 366 q 418 355 369 355 q 456 388 433 355 l 467 396 l 467 393 l 435 342 q 313 369 313 355 q 299 480 299 440 q 408 510 373 510 m 226 328 l 229 328 l 229 326 l 212 309 l 210 309 q 226 328 221 328 z "},"&":{"ha":746,"x_min":0,"x_max":725,"o":"m 328 1153 l 332 1153 l 332 1147 l 322 1137 l 322 1140 l 328 1153 m 68 1140 l 71 1137 l 73 1137 q 60 1124 71 1124 l 53 1114 l 45 1117 l 45 1122 q 58 1130 45 1129 l 56 1133 l 56 1137 l 58 1137 l 60 1135 l 63 1135 l 68 1140 m 292 1099 l 292 1097 q 275 1076 284 1082 l 275 1078 q 292 1099 279 1090 m 304 1055 l 304 1053 l 294 1040 l 292 1040 l 292 1042 l 304 1055 m 184 1045 l 189 1045 l 194 1040 l 194 1032 l 191 1032 l 179 1035 l 179 1040 l 184 1045 m 18 1014 l 50 1014 l 66 1009 l 75 1012 l 78 1009 l 81 1012 q 93 1004 81 1004 l 96 1004 l 96 1006 l 88 1006 l 88 1012 l 109 1006 l 179 1009 l 234 1001 q 360 1014 360 1004 q 544 991 397 1001 l 549 991 q 569 1014 555 1004 l 572 1014 q 581 932 580 1014 l 587 927 l 587 893 l 589 870 l 579 847 l 566 850 l 566 844 l 572 837 q 524 801 535 801 q 441 814 457 807 l 446 827 l 443 827 l 435 817 l 433 814 l 431 814 q 408 878 408 852 l 408 880 q 473 904 408 887 l 494 847 q 456 840 485 842 l 453 842 l 453 844 l 466 852 l 458 883 q 425 865 435 876 q 466 819 425 843 l 471 819 q 528 827 498 819 q 554 906 553 874 q 466 960 472 960 q 370 983 392 983 l 325 983 l 277 978 l 254 978 l 254 973 q 307 947 270 960 l 307 940 l 304 940 q 237 965 279 954 l 257 922 q 287 831 275 831 l 319 801 l 317 788 l 317 785 l 330 729 l 328 726 q 385 626 349 722 q 418 570 407 581 l 418 567 l 415 557 l 448 524 q 456 485 456 510 q 476 429 476 456 l 476 420 q 506 431 490 420 l 509 429 l 511 429 q 591 485 546 440 l 594 485 l 599 480 l 599 475 l 562 429 l 559 429 l 549 433 l 516 423 l 516 418 l 528 413 l 538 416 l 541 413 l 541 406 l 534 397 l 531 397 q 498 413 520 413 q 473 406 473 412 l 473 400 q 562 313 553 313 l 569 305 l 569 302 q 562 298 569 298 q 569 287 565 287 q 521 241 569 283 l 519 239 l 519 236 q 587 213 549 222 l 607 218 l 634 218 q 667 228 667 220 l 665 243 q 680 215 680 229 l 677 215 l 629 208 l 627 215 l 625 215 q 572 200 625 200 l 534 200 q 431 223 463 210 q 310 197 386 197 q 231 215 243 197 q 28 338 116 269 q 0 431 0 390 l 0 433 l 15 529 l 43 593 q 96 634 68 625 l 98 631 l 96 621 l 100 606 l 96 572 l 109 585 l 109 588 l 103 593 l 109 621 l 103 621 l 106 634 l 100 634 l 100 637 q 118 642 100 642 l 118 644 l 113 644 l 113 647 q 123 652 113 652 l 126 654 l 126 657 l 111 657 l 111 660 q 169 698 121 673 q 219 736 210 736 l 219 745 q 186 788 191 788 q 149 904 177 846 l 128 904 l 123 909 l 141 911 q 111 973 117 973 q 31 1004 98 983 q 18 1009 31 1008 l 18 1014 m 116 996 q 123 991 116 991 l 126 991 l 126 994 l 116 996 m 153 981 l 153 976 l 171 970 l 171 976 l 166 981 l 153 981 m 184 968 l 184 965 l 194 963 l 194 968 l 184 968 m 425 960 l 428 960 l 441 950 l 435 950 l 425 960 m 443 950 l 448 945 l 448 942 l 443 942 l 443 950 m 310 942 l 315 942 l 319 937 l 310 937 l 310 942 m 48 911 l 78 911 l 78 906 l 48 906 l 48 911 m 456 863 l 456 850 l 450 850 l 448 860 l 450 863 l 456 863 m 292 795 l 294 795 l 304 801 l 304 804 l 302 804 l 292 795 m 272 778 l 272 775 l 275 775 l 290 783 l 290 791 l 284 791 l 272 778 m 632 793 l 634 791 l 634 788 l 632 785 l 629 785 l 627 788 l 627 791 l 629 793 l 632 793 m 393 778 l 397 778 l 397 775 l 390 768 l 385 772 l 393 778 m 420 747 l 423 747 l 423 745 q 408 726 420 732 l 395 688 l 400 688 l 400 680 l 397 680 q 382 716 382 696 l 382 719 q 413 734 382 726 q 420 747 414 747 m 431 732 q 634 693 634 711 q 722 539 722 619 q 712 526 712 532 l 710 526 l 707 529 q 694 511 701 529 l 697 511 q 722 534 703 511 l 725 534 l 725 531 q 587 295 725 374 l 581 295 q 569 308 581 308 l 569 315 q 634 403 608 352 l 640 416 q 659 477 652 416 l 659 480 l 625 580 q 566 680 616 622 q 484 716 534 716 l 481 719 l 453 724 q 420 690 420 716 l 418 683 q 466 647 418 661 q 491 667 491 659 q 478 686 482 686 l 471 686 l 468 683 l 466 683 q 476 670 471 671 l 476 675 l 481 670 l 471 662 l 460 677 l 460 683 l 476 696 q 516 662 496 696 l 516 654 q 446 629 503 654 q 403 677 403 667 q 410 693 406 693 l 408 696 l 408 701 q 431 732 420 732 m 78 724 l 91 724 q 118 693 111 724 l 118 683 q 91 667 118 675 q 60 693 60 674 l 56 693 q 40 683 56 683 l 38 686 l 38 688 q 71 719 58 694 l 78 724 m 134 711 l 138 711 l 144 706 l 138 701 l 134 709 l 134 711 m 93 508 q 149 408 105 494 q 186 359 181 376 q 209 326 209 342 l 194 311 l 194 308 l 197 308 q 216 321 210 321 q 317 231 273 262 l 319 231 q 428 254 335 231 l 431 279 q 410 361 420 279 l 400 354 q 393 370 395 354 l 390 367 l 388 367 l 385 370 l 382 377 l 380 377 l 357 370 q 378 380 357 376 l 378 382 l 372 387 l 388 406 q 378 413 388 412 l 378 418 q 390 423 390 418 q 317 462 347 452 l 312 462 l 304 456 l 300 456 l 290 467 q 297 472 290 472 l 290 485 l 292 492 q 229 541 281 511 q 247 549 229 547 q 322 498 247 526 l 332 498 l 307 562 q 292 580 296 568 l 297 593 l 294 593 q 224 709 267 593 l 219 709 q 126 601 126 607 q 93 508 118 591 m 216 703 l 222 703 l 214 696 l 209 696 l 216 703 m 325 614 l 330 614 l 345 621 l 345 624 l 340 624 q 325 614 325 618 m 209 606 l 212 606 l 216 601 l 214 598 l 209 598 l 209 606 m 292 598 l 292 595 l 294 595 l 302 598 l 302 601 l 300 601 l 292 598 m 209 577 l 216 577 l 227 567 l 227 565 q 219 559 227 559 q 204 567 204 562 l 204 572 l 209 577 m 275 577 l 282 570 l 275 565 l 272 567 l 269 565 l 267 567 l 275 577 m 484 552 l 486 552 l 486 544 l 481 539 l 478 541 l 478 547 l 484 552 m 536 544 l 541 539 l 536 534 l 528 534 l 528 536 l 536 544 m 619 534 l 622 531 l 622 526 l 612 516 l 609 516 l 609 521 l 619 534 m 395 524 l 393 521 l 393 518 l 410 513 q 395 524 410 517 m 380 518 q 372 508 380 508 l 372 511 q 357 500 357 505 l 357 498 l 370 500 l 372 498 l 375 500 l 378 492 l 382 492 l 382 498 q 372 503 382 503 l 372 505 l 385 508 l 388 505 l 388 508 q 380 518 384 518 m 622 505 l 627 500 l 619 492 l 616 495 l 616 500 l 622 505 m 332 495 l 330 477 l 345 462 l 347 462 q 332 495 347 482 m 488 495 l 491 495 l 496 490 l 491 485 l 488 488 l 488 495 m 50 456 l 50 452 l 56 446 l 58 449 l 58 456 l 50 456 m 304 413 l 307 413 l 302 408 l 300 408 l 304 413 m 569 385 l 574 380 l 569 374 l 564 380 l 569 385 m 254 367 l 257 367 l 257 364 l 244 354 l 244 357 l 254 367 m 353 367 q 328 354 342 354 q 353 367 328 359 m 138 349 l 136 338 l 136 334 l 138 334 l 141 347 l 141 349 l 138 349 m 400 331 l 406 326 l 403 323 l 400 323 l 395 328 l 397 331 l 400 331 m 654 259 l 657 259 l 657 256 l 650 249 l 652 246 l 652 241 l 647 241 l 644 254 l 654 259 m 602 246 l 616 226 l 616 223 q 597 243 597 237 l 599 246 l 602 246 z "},"'":{"ha":265,"x_min":0,"x_max":0,"o":""},"(":{"ha":610,"x_min":-67,"x_max":603,"o":"m 267 884 l 299 884 l 299 879 l 267 879 l 267 884 m 437 846 q 581 825 519 830 q 603 770 603 783 l 603 749 q 549 708 593 708 q 503 751 503 722 l 503 762 q 549 784 503 775 l 549 779 q 565 768 561 779 l 565 762 l 562 762 l 551 770 l 541 768 l 538 770 l 535 770 l 516 760 q 549 722 526 734 l 551 722 q 581 749 576 722 l 584 770 l 581 770 q 570 784 570 770 l 554 789 l 551 787 l 549 787 q 489 811 549 793 l 481 808 l 429 817 q 364 787 386 804 q 332 819 357 787 l 332 822 l 334 819 l 337 819 q 437 846 357 836 m 326 817 l 351 787 q 264 711 333 766 l 245 711 q 218 684 245 697 l 188 656 l 185 659 l 182 656 l 180 656 l 169 662 l 169 656 l 174 656 l 174 654 q 150 632 157 632 l 153 629 l 153 610 l 158 567 l 158 564 l 161 472 l 155 361 l 150 355 q 199 277 150 330 l 199 274 l 193 266 l 193 263 l 201 269 q 272 231 226 237 q 286 206 286 217 l 286 201 l 275 190 l 267 190 l 172 217 l 169 217 q 93 203 132 203 l 82 203 q 60 231 71 207 l 60 236 l 74 250 l 74 252 l 71 263 l 74 271 l 28 339 l 28 363 l 31 407 l 28 415 l 66 445 l 66 448 l 63 448 l 39 431 l 36 434 l 36 437 l 50 491 q 60 502 60 491 l 47 502 q 77 616 47 547 l 82 616 l 82 605 l 85 597 l 82 583 l 82 551 l 85 551 l 93 570 l 90 578 l 96 602 l 96 605 l 93 602 l 90 602 l 90 640 q 144 732 127 732 q 239 779 220 779 l 237 776 l 237 773 l 256 768 l 256 773 q 245 781 256 780 q 326 817 246 786 m 573 814 l 568 808 l 568 803 l 573 808 l 576 806 l 581 806 l 578 814 l 573 814 m 562 751 l 562 743 l 557 743 l 557 746 l 562 751 m 413 749 l 416 746 l 416 741 l 413 741 l 408 746 l 410 749 l 413 749 m 85 727 l 87 724 l 87 711 l 79 711 l 79 722 l 85 727 m 85 675 l 90 675 l 90 667 l 85 667 l 85 675 m 155 667 l 155 665 l 166 662 l 166 667 l 155 667 m 104 567 l 104 564 l 106 564 l 115 567 l 115 572 l 109 572 l 104 567 m 85 545 l 82 526 l 82 521 l 85 521 l 87 524 l 90 524 l 87 545 l 85 545 m 82 515 l 85 499 l 87 499 l 87 513 l 85 515 l 82 515 m 98 510 l 98 505 l 112 502 l 115 505 l 115 510 l 98 510 m 90 467 l 93 467 l 98 472 l 96 472 l 90 467 m 82 301 l 68 285 l 71 285 q 85 301 82 285 l 82 301 m -7 285 l -2 285 l -2 279 q -21 266 -11 279 l -29 266 l -7 285 m -67 241 l -62 241 l -56 236 l -59 233 l -67 236 l -67 241 z "},")":{"ha":610,"x_min":0,"x_max":662,"o":"m 426 703 q 502 613 460 655 q 562 570 509 613 q 629 529 620 529 l 635 529 l 643 534 l 640 543 l 637 543 l 629 537 l 629 540 q 646 548 632 548 l 651 548 q 662 529 662 544 q 632 510 662 513 l 597 521 q 575 502 575 521 l 575 488 q 543 266 575 450 l 486 144 l 469 117 q 388 73 437 105 l 220 8 l 165 0 q 22 22 83 16 l 5 54 l 5 57 l 8 57 l 38 41 l 38 46 q 14 57 38 52 l 14 60 l 16 62 l 16 65 l 14 68 l 11 65 l 8 65 l 0 73 l 0 98 q 54 138 11 138 q 100 95 100 125 l 100 84 q 57 65 100 70 q 38 79 40 71 l 38 84 l 41 84 l 52 76 l 60 76 q 87 87 77 76 q 54 125 77 113 l 52 125 q 22 98 26 125 l 19 76 l 22 76 q 33 62 33 76 q 174 30 127 30 q 271 79 210 39 q 363 149 337 137 l 380 141 l 372 152 l 439 209 l 445 209 l 453 203 l 456 203 q 448 214 452 214 l 450 217 l 450 236 l 445 279 l 445 282 l 442 382 l 445 410 l 453 410 q 464 401 453 401 l 499 369 l 505 374 l 491 396 l 486 396 l 483 393 q 467 407 472 397 l 477 412 l 477 418 q 448 448 448 431 l 448 488 l 453 488 l 453 499 q 442 586 442 499 l 431 613 q 456 624 446 624 l 456 629 l 439 624 l 434 629 l 434 621 l 426 621 l 423 632 l 429 637 q 420 643 420 637 l 420 646 l 423 643 l 429 643 l 423 654 l 420 651 l 415 651 q 399 689 415 665 l 399 692 q 426 703 399 701 m 618 635 q 640 621 618 629 l 640 616 l 635 616 l 613 629 l 618 635 m 475 602 q 507 572 481 587 l 510 572 l 510 575 q 477 602 496 594 l 475 602 m 336 597 l 339 597 l 339 594 q 320 578 332 583 l 320 583 l 336 597 m 524 567 l 524 564 q 537 553 526 553 q 526 562 537 557 l 526 567 l 524 567 m 499 458 l 494 442 l 494 434 l 507 450 l 507 453 l 502 458 l 499 458 m 445 431 l 453 423 l 445 415 l 439 423 l 439 426 l 445 431 m 510 363 l 510 361 q 534 334 510 347 l 537 334 l 537 342 q 513 361 537 346 l 513 363 l 510 363 m 222 233 q 239 214 224 214 l 239 209 l 233 209 l 222 212 l 212 209 q 195 222 195 209 l 212 214 l 214 217 l 217 214 q 222 233 217 233 m 130 217 l 168 217 l 168 212 l 130 212 l 130 217 m 252 214 l 282 214 l 285 212 l 288 214 l 307 214 l 307 209 l 293 206 l 260 212 l 258 209 l 252 209 l 252 214 m 418 214 l 429 214 l 429 209 l 418 209 l 418 214 m 315 212 l 328 212 l 328 206 l 315 206 l 315 212 m 369 212 l 372 212 l 374 209 l 377 212 l 396 212 l 396 206 l 369 206 l 369 212 m 458 203 l 458 195 l 464 195 l 461 203 l 458 203 m 41 103 l 46 103 l 46 100 l 41 95 l 41 103 z "},"*":{"ha":339,"x_min":-22,"x_max":340,"o":"m 126 949 l 128 949 q 186 912 140 949 q 338 827 289 865 l 340 819 q 294 765 340 808 q 206 670 257 711 q 178 645 201 658 l 176 645 l 143 663 q 132 657 143 659 l 132 659 q 138 663 132 663 l 138 667 q 28 751 87 692 q 7 783 7 762 q 3 792 4 783 q 46 829 32 827 l 83 819 l 83 816 q 41 767 41 780 q 165 672 97 717 l 186 674 l 187 674 q 247 740 188 681 q 295 816 295 791 q 178 895 295 838 q 138 914 155 914 q 104 928 134 920 l 104 926 l 108 920 q 50 885 104 913 q -1 852 19 863 l -5 852 q 73 907 19 877 l 89 922 l 87 924 q 126 949 96 924 m 136 889 q 282 817 268 844 l 282 814 q 230 742 282 798 l 176 682 l 174 682 q 128 715 169 682 q 56 765 84 739 l 52 775 q 100 814 52 783 l 104 814 l 123 810 l 123 806 q 98 779 113 791 l 91 767 l 91 765 q 171 713 146 714 l 174 713 q 245 798 197 713 l 245 804 q 163 858 245 823 l 149 862 l 143 862 q 87 823 125 860 l 56 835 l 56 839 q 132 889 61 839 l 136 889 m 165 848 l 171 848 l 230 806 l 234 794 q 222 775 234 787 l 221 777 l 212 777 l 212 775 q 219 771 219 775 q 201 751 215 771 l 167 721 q 106 769 150 721 l 106 771 q 139 804 106 786 l 141 802 l 144 802 l 144 804 q 136 812 140 804 l 138 814 l 134 814 l 134 810 l 109 816 l 109 817 q 165 848 144 847 m 139 816 l 139 814 l 146 810 q 165 819 159 819 q 189 790 189 794 l 189 789 q 184 794 184 789 l 180 794 l 171 792 q 161 804 171 800 l 159 804 l 158 798 l 156 800 l 154 800 q 123 769 124 781 q 163 736 149 736 q 202 779 187 753 l 199 783 l 199 785 l 202 785 l 202 781 q 206 787 206 781 q 163 829 197 807 l 159 829 q 139 816 139 820 m 173 790 q 193 779 193 782 q 154 744 163 744 l 134 767 l 134 773 l 152 789 l 154 789 l 144 775 l 144 771 l 156 769 q 173 790 160 769 m -11 775 l -9 775 l -9 773 l -20 763 l -22 763 q -11 775 -20 770 m 143 674 l 146 669 l 152 670 l 152 674 l 149 674 l 149 676 l 143 674 z "},"+":{"ha":515,"x_min":0,"x_max":513,"o":"m 247 789 q 312 735 312 753 l 312 727 q 274 689 287 689 l 258 689 l 241 703 l 241 705 l 255 703 l 260 703 q 279 732 279 717 q 250 754 269 754 l 239 754 q 190 689 190 742 l 190 673 l 201 624 l 203 624 l 231 627 l 233 624 l 233 621 q 195 610 210 618 l 195 605 l 201 600 l 198 597 l 198 589 l 201 543 l 198 543 l 179 556 l 179 600 q 149 708 179 636 q 247 789 227 789 m 103 640 l 103 637 l 87 618 q 103 640 87 640 m 285 627 l 288 624 l 288 621 l 285 618 l 258 618 l 252 624 l 285 627 m 206 597 l 209 597 q 282 502 264 505 q 434 483 342 491 q 469 505 457 483 l 469 526 l 464 534 q 450 518 450 534 l 445 518 l 431 532 q 464 556 451 556 l 507 524 l 513 513 l 513 507 q 458 429 491 454 l 453 429 l 309 472 l 282 480 l 282 477 q 304 391 304 428 l 304 350 q 266 241 293 267 q 182 203 225 203 q 133 236 151 203 l 133 252 q 171 288 164 288 l 174 288 q 198 263 195 272 l 198 258 q 176 239 192 248 l 174 241 l 174 244 q 184 269 179 244 l 176 274 l 171 274 l 155 260 l 155 250 q 187 231 158 239 q 236 279 236 250 q 244 298 241 279 l 247 307 l 250 307 l 220 483 l 231 486 l 231 488 q 217 496 217 490 l 231 513 l 233 510 l 255 510 l 255 515 l 239 515 q 222 524 224 515 l 231 532 q 220 537 220 532 l 220 540 l 225 540 l 225 543 q 212 551 212 543 l 222 553 l 222 556 q 212 562 212 556 l 214 572 l 206 575 l 206 597 m 106 570 l 106 567 l 100 551 q 212 510 212 529 l 212 502 l 209 499 l 209 496 q 84 524 162 515 l 84 526 l 103 570 l 106 570 m 46 553 l 62 553 l 90 551 q 65 524 90 529 q 33 499 42 511 l 33 496 q 52 467 33 471 l 49 480 q 62 491 52 491 l 62 488 l 65 477 q 46 448 65 465 l 30 448 q 0 483 4 448 l 46 553 z "},",":{"ha":136,"x_min":0,"x_max":123,"o":"m 112 322 l 114 322 l 107 316 l 105 316 l 112 322 m 101 314 l 103 314 l 85 296 l 123 229 q 66 136 123 196 q 0 160 0 153 q 13 195 5 195 l 18 195 q 39 184 39 190 q 28 166 32 166 l 24 166 l 20 171 q 26 175 26 171 l 26 184 l 16 184 q 7 166 11 184 q 48 153 32 153 l 48 155 q 66 203 66 181 q 11 233 13 227 l 11 240 l 9 273 q 68 309 20 283 l 73 309 l 83 298 q 101 314 88 307 m 13 177 l 18 177 l 20 171 l 18 171 l 13 175 l 13 177 z "},"-":{"ha":463,"x_min":0,"x_max":0,"o":""},".":{"ha":136,"x_min":-5,"x_max":136,"o":"m 68 339 l 87 317 l 87 315 l 55 301 l 50 307 l 50 304 l 47 307 l 41 307 q 31 298 41 298 l 33 296 l 33 293 l 3 277 l 1 269 l -5 269 q 31 315 -5 283 q 68 339 31 335 m 93 312 l 98 312 q 136 271 136 283 q 131 252 134 252 l 134 250 l 134 247 l 125 239 l 109 247 l 106 247 l 106 244 q 120 233 115 244 l 71 201 l 12 236 l 12 252 q 63 282 52 282 l 63 279 l 68 271 l 63 271 q 50 258 60 258 l 50 255 l 55 255 q 71 263 71 255 l 87 263 l 96 271 l 85 282 l 90 282 q 82 288 90 288 l 82 293 l 87 293 l 87 296 l 77 296 l 93 312 m 33 239 l 39 233 l 41 236 l 41 239 l 33 239 z "},"/":{"ha":386,"x_min":0,"x_max":376,"o":"m 15 1185 l 18 1185 q 40 1172 33 1185 l 41 1171 l 41 1171 l 51 1173 l 55 1173 q 68 1156 62 1173 q 95 1136 89 1149 l 98 1122 q 115 1110 115 1115 l 129 1097 l 129 1082 q 149 1053 129 1070 l 152 1048 l 151 1044 l 151 1043 q 161 1026 153 1027 l 163 1026 q 169 1029 166 1029 l 171 1029 l 188 1020 l 190 1020 q 199 1025 199 1022 q 205 1030 199 1030 l 205 1053 q 219 1074 212 1059 q 223 1095 221 1080 q 237 1115 232 1103 q 248 1131 248 1124 l 266 1147 q 283 1158 268 1147 l 290 1160 q 296 1156 290 1156 q 310 1147 310 1149 l 310 1146 l 309 1133 q 313 1124 312 1133 l 313 1117 l 306 1094 q 302 1082 306 1088 l 302 1076 q 311 1068 311 1076 q 306 1060 311 1064 q 291 1067 291 1060 l 290 1074 l 290 1078 q 277 1089 278 1086 l 277 1095 q 283 1105 283 1102 l 283 1106 l 271 1095 l 267 1075 q 259 1067 264 1070 l 251 1071 l 251 1070 q 245 1060 245 1065 q 236 1049 239 1049 q 229 1044 232 1044 l 229 1038 q 221 1022 227 1022 q 216 1015 216 1022 l 218 1015 l 218 1014 l 216 1011 q 219 1004 218 1011 q 232 988 222 1002 l 231 987 l 231 987 q 239 976 239 984 l 241 971 l 241 968 q 229 939 236 944 q 223 932 229 937 l 222 931 l 222 930 l 238 924 l 238 918 l 237 917 l 225 917 l 212 915 l 207 916 q 200 912 207 914 l 200 908 l 201 908 l 201 903 q 207 895 205 903 l 208 894 l 208 893 q 203 890 207 890 l 195 890 l 195 890 l 197 887 l 197 886 q 180 880 197 883 l 180 872 l 179 870 q 159 876 159 874 l 159 882 l 157 882 q 154 879 157 879 q 142 887 148 880 l 142 888 q 149 902 149 895 q 153 905 153 902 q 151 913 151 905 q 130 928 134 921 l 127 927 l 120 928 l 108 922 l 102 933 q 108 941 104 939 q 120 954 113 941 q 123 964 122 954 l 117 979 l 117 981 q 130 1004 130 992 q 139 1019 139 1008 l 140 1022 l 132 1022 l 131 1023 l 130 1023 q 132 1028 131 1028 q 125 1036 132 1031 q 113 1044 125 1044 l 111 1046 l 111 1056 q 97 1063 103 1061 q 80 1076 87 1072 q 77 1085 80 1082 l 77 1095 q 66 1109 72 1106 q 59 1123 66 1116 q 46 1127 59 1125 q 39 1129 46 1129 q 33 1147 35 1144 l 28 1153 l 28 1162 l 23 1172 l 14 1172 q 9 1169 12 1169 q 0 1175 4 1169 q 8 1183 0 1183 q 15 1185 12 1183 m 5 1175 l 10 1173 q 15 1175 11 1175 l 25 1175 q 32 1164 26 1175 l 32 1154 l 39 1146 l 40 1137 l 44 1141 l 45 1141 l 46 1139 l 44 1135 l 52 1135 l 54 1133 l 54 1133 l 53 1131 l 53 1131 l 49 1131 l 48 1131 l 48 1131 q 63 1123 63 1128 q 71 1110 71 1118 q 80 1096 75 1109 l 80 1087 l 83 1082 l 83 1078 q 100 1065 87 1078 q 113 1057 106 1065 l 113 1047 q 128 1038 128 1046 q 136 1029 131 1038 l 136 1027 l 135 1026 l 135 1025 l 140 1025 l 140 1025 l 140 1027 l 142 1027 q 148 1019 144 1025 l 146 1017 l 145 1017 l 143 1019 l 142 1018 l 142 1017 q 148 1007 148 1017 l 148 998 q 138 991 148 992 l 122 981 l 122 979 q 127 961 125 971 l 128 960 l 128 959 q 124 949 124 952 q 139 932 124 947 l 139 931 l 138 929 q 121 946 130 935 l 120 946 q 104 935 113 937 q 108 927 108 931 q 132 931 121 931 q 144 921 142 921 l 151 930 l 161 927 q 167 932 161 928 q 170 939 168 939 l 172 937 l 172 935 l 171 935 l 171 933 l 174 933 l 175 939 q 166 953 172 953 l 166 943 q 160 933 166 939 l 153 935 l 149 933 q 130 953 130 943 q 134 967 130 963 l 134 968 q 130 970 130 968 l 132 971 l 142 971 q 159 960 149 968 q 172 956 163 957 q 196 971 184 956 q 203 975 199 971 l 208 974 l 215 979 l 216 979 q 219 976 219 979 l 220 976 l 220 977 q 212 985 216 985 l 211 986 l 203 985 l 200 986 l 195 984 l 194 985 l 194 986 q 210 991 195 990 l 216 991 q 223 987 219 987 l 225 977 l 225 977 q 221 973 224 973 q 227 958 227 963 l 227 956 q 206 931 227 944 l 200 930 q 184 943 191 930 l 184 951 l 187 957 l 186 957 q 174 951 182 954 l 178 939 l 178 938 l 178 933 q 184 925 181 933 l 202 918 l 207 919 l 235 919 l 235 922 l 231 922 q 218 928 227 922 l 214 925 l 211 926 l 205 924 l 203 924 l 203 925 q 216 933 203 927 q 232 956 232 944 l 235 976 q 218 991 225 991 q 206 998 212 993 l 206 1001 l 210 1008 l 210 1009 l 210 1010 q 214 1012 210 1012 l 214 1013 l 212 1016 q 218 1025 216 1025 l 222 1025 l 226 1040 l 226 1044 q 242 1067 242 1057 l 250 1074 l 254 1074 l 258 1071 q 266 1094 266 1076 q 277 1105 266 1098 l 279 1109 l 279 1109 l 278 1112 q 264 1102 273 1102 q 254 1090 262 1090 q 238 1072 247 1086 q 223 1042 231 1072 l 211 1022 l 210 1022 l 209 1023 q 212 1035 211 1027 l 219 1043 l 219 1053 l 231 1072 l 230 1078 l 230 1081 q 242 1095 230 1086 q 263 1122 245 1105 l 273 1127 l 274 1127 l 277 1126 l 278 1126 q 270 1130 278 1128 q 265 1127 269 1127 l 264 1129 l 270 1134 l 279 1131 l 277 1138 l 277 1140 l 281 1144 l 282 1143 l 282 1141 l 279 1138 l 282 1133 q 278 1119 282 1122 l 286 1108 l 286 1103 q 281 1093 286 1100 l 281 1091 q 291 1084 281 1088 l 293 1081 l 293 1075 q 299 1065 293 1065 l 300 1065 l 302 1066 q 298 1075 302 1071 l 299 1076 l 299 1077 l 293 1084 l 293 1090 l 295 1092 l 297 1089 q 300 1102 300 1093 q 304 1116 301 1102 l 298 1133 l 299 1143 q 288 1153 299 1146 l 288 1154 l 290 1154 l 286 1154 l 284 1154 l 283 1154 q 262 1138 267 1144 l 262 1140 l 261 1140 l 261 1139 l 262 1138 l 262 1137 q 255 1129 262 1135 q 248 1119 251 1119 l 248 1120 l 247 1120 l 247 1119 l 248 1118 q 233 1101 240 1114 q 224 1082 224 1095 q 211 1053 224 1074 q 209 1051 209 1053 l 209 1042 l 208 1019 l 207 1019 l 206 1019 q 205 1027 205 1019 l 202 1026 l 202 1021 l 201 1019 l 201 1019 l 201 1015 q 183 1006 201 1006 l 179 1001 l 180 1000 l 180 994 l 179 994 l 179 992 q 184 988 182 991 l 182 987 l 176 990 q 174 985 175 985 l 173 985 l 171 987 q 176 998 176 996 q 163 1004 175 1004 l 158 1004 q 153 1015 156 1004 l 151 1016 l 151 1021 q 148 1026 148 1021 l 148 1029 l 149 1030 l 151 1029 l 151 1029 l 151 1030 l 149 1032 l 148 1030 l 144 1030 l 125 1046 q 115 1055 115 1050 l 115 1057 q 117 1058 115 1058 l 117 1060 q 91 1075 111 1060 l 91 1082 l 92 1084 q 79 1102 89 1090 q 71 1126 73 1126 q 66 1131 66 1128 q 68 1139 66 1135 q 52 1153 66 1139 q 50 1151 52 1151 q 33 1162 44 1151 l 33 1164 q 35 1165 33 1165 q 44 1159 44 1162 l 50 1159 q 57 1153 55 1159 l 67 1146 q 80 1133 80 1146 q 86 1119 80 1124 q 91 1112 86 1116 q 103 1101 91 1101 q 115 1089 106 1099 l 115 1076 q 119 1072 115 1074 q 121 1061 121 1071 q 144 1036 144 1045 l 149 1033 l 149 1034 l 147 1042 l 148 1042 l 148 1046 q 131 1059 148 1053 l 130 1060 q 122 1067 122 1062 q 115 1101 122 1083 q 94 1113 102 1112 q 87 1137 92 1131 q 63 1151 75 1147 q 50 1168 54 1168 l 39 1168 q 26 1179 32 1179 q 5 1175 5 1179 m 296 1108 l 298 1106 l 298 1103 q 292 1092 292 1098 l 291 1092 l 290 1094 l 290 1095 q 295 1105 290 1101 q 296 1108 295 1108 m 163 1017 l 165 1015 l 163 1014 l 161 1014 l 158 1017 q 161 1023 158 1020 l 155 1025 l 155 1023 l 154 1023 q 160 1007 156 1013 l 165 1007 l 178 1004 l 178 1005 q 193 1011 178 1009 l 197 1013 l 198 1014 l 198 1015 q 195 1018 195 1015 l 194 1017 l 187 1017 l 170 1025 l 169 1025 q 162 1017 162 1021 l 163 1017 m 134 994 l 134 992 q 144 999 144 996 l 144 1005 l 144 1011 q 134 994 138 1004 m 214 1008 l 210 999 q 221 994 219 994 l 214 1006 l 214 1008 l 214 1008 m 155 987 l 157 987 l 159 985 l 159 984 q 144 980 159 983 q 138 976 144 978 q 133 972 138 972 l 133 973 l 132 972 l 130 972 q 127 977 127 972 q 134 983 131 977 l 149 986 l 155 987 m 188 949 l 188 945 q 200 933 193 933 q 214 942 208 933 q 224 958 224 948 q 215 975 222 966 q 201 969 209 970 q 189 950 191 962 l 188 949 m 138 967 l 134 960 l 134 956 l 133 955 q 149 937 133 947 l 153 938 l 153 938 l 159 937 l 163 943 l 163 949 q 153 957 163 954 q 148 962 153 960 q 138 967 148 966 m 152 926 l 148 921 l 148 920 q 154 911 154 917 l 154 909 l 155 910 l 156 910 l 157 909 l 157 910 l 161 910 q 163 907 163 910 l 171 915 q 158 922 171 921 q 152 926 158 925 m 182 919 l 180 919 l 180 920 q 174 912 175 920 l 169 907 l 170 901 l 174 905 l 174 905 l 175 904 l 176 904 q 179 911 176 911 l 185 909 q 192 914 187 914 l 197 913 l 198 916 l 185 921 l 184 921 l 182 919 m 188 905 q 193 894 188 903 l 203 894 l 203 895 q 193 911 195 909 l 192 911 q 188 905 189 910 m 179 907 l 179 903 l 178 896 l 181 884 q 193 886 186 886 q 180 907 184 905 l 179 907 m 152 900 l 153 899 l 153 897 l 145 887 l 153 882 l 160 907 q 154 900 156 905 l 152 900 m 165 904 l 157 886 l 157 886 l 161 886 l 165 883 l 165 883 l 165 884 l 165 884 l 166 903 l 166 904 l 165 904 m 168 889 l 169 879 l 168 878 l 166 878 l 164 880 l 162 880 l 162 877 q 178 873 168 877 l 178 881 q 174 896 178 886 l 174 901 q 168 889 172 901 m 240 877 l 243 877 l 246 873 l 246 873 l 245 871 l 241 876 l 240 876 l 238 873 l 239 866 l 250 866 l 251 865 l 251 861 l 250 861 q 247 865 250 865 l 239 865 l 239 854 l 245 854 l 247 856 l 248 856 l 248 852 l 246 851 l 245 852 l 239 852 l 239 851 l 242 849 l 241 848 l 241 841 l 243 841 l 243 839 l 237 839 l 237 844 l 237 848 l 235 848 l 235 849 l 236 850 l 235 851 l 235 865 l 233 865 l 233 866 l 236 866 l 236 870 q 240 877 236 875 m 338 876 l 340 876 l 339 872 l 339 866 l 337 866 q 331 870 337 870 q 318 859 323 868 q 332 845 318 852 l 332 844 l 321 821 l 321 821 q 302 829 312 821 q 308 837 303 837 q 314 829 314 834 l 313 828 l 310 828 l 309 830 l 309 831 l 309 830 l 312 830 l 308 833 l 307 833 l 304 831 q 315 825 306 825 q 327 842 321 828 q 315 852 327 844 l 314 858 q 332 873 323 873 q 338 876 338 873 m 58 876 l 70 876 l 70 873 l 66 873 l 66 849 l 64 846 l 64 845 l 64 841 l 63 841 l 63 840 l 64 836 l 59 836 l 60 840 l 59 841 l 61 851 l 58 851 l 54 848 l 54 845 l 54 841 l 53 841 l 53 840 l 54 836 l 49 836 l 50 840 l 49 841 q 50 859 50 845 l 50 867 l 49 867 l 49 869 l 53 869 l 55 866 l 55 858 l 60 859 l 61 859 l 62 859 l 62 859 l 62 873 q 58 874 58 873 l 58 876 m 355 872 l 358 872 q 372 860 366 872 l 373 859 l 372 852 l 376 852 l 376 852 q 366 842 370 848 l 366 841 l 366 840 l 363 832 l 362 832 l 363 840 l 363 841 l 362 841 q 371 852 364 848 l 371 852 l 366 853 l 367 858 l 367 861 q 363 866 363 861 l 357 869 l 360 859 l 355 854 l 355 856 l 358 861 q 355 867 355 861 l 353 869 l 351 869 l 348 866 q 351 860 348 861 l 353 859 l 353 857 l 350 854 l 349 854 q 345 861 347 854 l 343 863 q 355 872 347 872 m 294 871 l 295 869 l 298 871 l 300 871 l 301 869 q 299 868 301 868 l 296 869 l 295 866 q 307 861 307 866 l 307 860 q 300 853 307 853 q 304 851 300 851 q 313 841 311 841 l 313 839 l 309 839 l 299 851 l 295 852 l 294 852 l 294 851 l 296 851 l 296 844 l 297 839 l 292 839 l 293 837 l 293 836 l 287 836 l 287 837 l 288 839 l 287 838 l 284 838 l 282 841 l 281 841 l 283 844 l 283 845 l 277 845 l 277 844 q 281 841 277 841 l 279 838 l 277 838 l 274 840 l 273 839 l 273 838 l 274 836 l 273 836 l 269 835 l 267 838 l 260 838 l 260 827 l 261 825 l 267 825 q 272 829 272 825 l 273 829 q 271 824 273 824 l 254 824 l 254 825 l 256 825 l 256 848 l 254 850 q 257 856 256 856 l 259 856 l 256 851 l 264 851 q 259 856 264 856 l 260 858 l 264 858 q 269 851 265 858 l 273 851 l 273 846 l 271 846 q 267 849 271 849 l 260 849 l 260 845 q 265 842 261 842 l 267 842 q 269 845 269 842 l 271 845 l 270 841 l 270 838 q 279 856 271 838 l 277 856 q 275 852 275 856 l 274 851 l 273 851 q 272 853 272 851 q 277 858 273 858 l 279 858 l 281 863 l 282 863 q 291 840 284 863 l 292 842 l 292 851 q 290 852 290 851 l 290 862 l 290 866 l 292 866 l 291 870 l 292 870 l 294 871 m 18 867 l 22 867 l 26 853 q 28 859 27 853 l 26 865 l 26 865 q 28 867 28 865 l 33 867 l 33 865 l 33 865 l 33 865 l 33 863 l 37 853 l 37 853 l 41 867 l 44 867 q 46 865 44 865 l 46 865 l 42 856 l 43 853 q 41 848 42 848 l 40 848 l 41 853 l 41 854 l 41 855 l 43 863 q 37 850 42 863 l 39 846 q 35 839 37 839 l 32 848 l 33 849 l 33 853 q 30 848 31 853 l 28 848 l 28 848 l 31 854 l 28 854 q 26 849 28 851 l 26 848 l 26 848 q 23 840 25 840 l 22 841 q 20 848 21 841 l 22 848 q 17 855 20 855 q 14 865 17 859 l 14 865 q 18 867 18 865 m 77 867 l 81 867 q 84 859 84 867 q 88 848 85 859 l 86 846 l 86 846 q 91 841 89 846 l 91 840 l 85 840 l 85 841 l 85 842 l 85 842 q 81 848 85 846 l 73 848 l 71 851 l 71 853 q 77 859 71 855 l 79 865 l 77 865 q 75 861 75 865 l 75 860 l 73 860 q 72 863 72 860 q 77 867 73 867 m 109 867 q 111 865 111 867 l 115 866 l 121 865 l 123 865 l 123 859 l 121 859 q 115 865 121 863 l 115 865 l 111 861 l 111 859 l 113 857 l 117 858 l 123 857 l 123 852 l 121 852 q 119 856 121 856 l 116 856 l 116 854 q 123 844 123 854 q 113 838 123 838 l 106 839 l 106 845 l 108 845 q 109 842 108 842 l 109 844 l 111 844 q 116 841 111 841 l 117 841 l 119 844 l 119 844 q 112 848 119 846 l 112 849 l 113 849 q 106 863 106 858 q 107 866 107 863 l 108 867 l 109 867 m 135 866 l 142 866 q 151 852 142 861 q 154 859 151 858 l 153 859 l 153 860 l 155 863 l 154 863 l 154 866 l 159 866 l 159 865 q 155 856 155 862 q 151 848 153 856 l 153 846 l 151 844 l 151 844 l 152 839 l 147 839 q 139 831 145 831 l 138 832 l 139 834 l 143 833 l 145 839 l 144 840 l 145 840 l 138 856 l 142 857 l 135 865 l 135 866 m 184 866 l 191 866 q 193 859 193 866 l 194 851 l 197 849 l 198 849 l 201 852 l 201 859 l 198 865 l 199 866 l 206 866 l 206 865 l 205 863 l 205 853 l 205 850 l 207 848 l 207 846 l 205 846 l 205 848 l 203 848 l 203 846 l 202 846 l 201 850 q 195 846 198 846 l 194 846 q 191 852 191 848 l 191 859 q 189 863 189 859 l 189 863 l 189 863 l 189 853 l 189 849 l 191 846 l 190 842 q 196 840 193 840 l 197 840 q 203 844 199 840 l 205 844 l 205 844 q 196 838 202 838 l 195 838 q 186 844 189 838 l 187 848 l 185 850 l 185 853 l 184 866 m 295 865 l 295 855 q 297 853 295 853 q 302 858 300 854 l 302 859 q 296 865 302 865 l 295 865 m 19 863 l 19 861 l 21 855 l 22 855 l 20 863 l 19 863 m 100 862 l 102 862 l 102 857 l 104 857 l 104 855 q 99 848 99 854 l 98 848 l 98 844 q 100 842 98 842 l 100 841 l 98 839 l 97 839 l 94 842 l 94 846 q 97 848 94 848 l 98 853 l 98 855 l 96 855 l 96 857 q 100 862 99 857 m 170 860 l 173 860 q 184 850 184 859 l 184 846 q 173 836 184 837 l 170 836 q 162 846 162 840 l 162 850 q 170 860 162 856 m 76 850 l 77 850 q 81 852 81 850 l 81 859 q 76 850 76 857 m 170 859 l 170 858 q 180 848 180 858 l 182 848 l 182 852 q 175 859 178 859 l 170 859 m 55 855 l 55 850 q 61 853 59 853 l 61 854 l 58 857 l 57 857 l 55 855 m 215 858 l 216 855 l 219 858 l 220 858 l 222 856 q 220 854 222 854 l 218 855 l 216 852 q 229 848 229 852 l 229 846 q 222 840 229 840 l 224 836 l 224 833 l 229 830 l 229 828 l 224 828 q 218 838 218 834 l 218 838 l 216 838 q 212 835 216 835 l 212 832 l 212 828 l 207 828 q 211 838 207 838 l 212 838 l 212 838 l 211 839 l 212 840 l 212 848 l 211 852 l 212 852 l 212 857 l 212 857 l 215 858 m 167 848 l 169 848 q 171 852 169 852 q 176 850 176 852 l 176 846 l 173 844 l 171 844 l 169 845 l 168 845 q 172 840 169 842 q 178 845 176 840 l 179 845 l 179 848 q 176 853 176 848 q 171 856 174 856 q 167 848 167 854 m 142 855 l 142 854 l 146 845 l 147 845 l 149 846 l 149 848 l 143 855 l 142 855 m 278 849 l 282 850 l 281 854 q 278 849 278 853 m 216 851 l 216 849 l 218 846 l 216 844 l 216 842 l 218 840 q 224 844 222 840 l 224 845 q 218 851 224 851 l 216 851 m 171 850 l 171 846 l 174 846 l 174 850 l 171 850 m 278 848 l 278 846 l 283 846 l 283 849 l 278 848 m 163 848 l 164 844 l 165 844 l 165 848 l 165 848 l 163 848 m 70 848 l 71 848 l 72 844 l 71 844 l 71 842 l 72 840 l 68 840 l 68 841 l 71 845 l 70 848 m 180 845 q 170 838 180 838 l 170 838 l 176 838 l 182 844 l 182 845 l 180 845 m 359 845 l 361 844 l 359 842 l 358 844 l 359 845 m 362 827 l 364 827 l 368 823 l 368 821 l 364 817 l 362 817 l 359 821 l 359 823 l 362 827 z "},":":{"ha":386,"x_min":0,"x_max":0,"o":""},";":{"ha":386,"x_min":0,"x_max":0,"o":""},"<":{"ha":811,"x_min":0,"x_max":0,"o":""},"=":{"ha":811,"x_min":0,"x_max":0,"o":""},">":{"ha":811,"x_min":0,"x_max":0,"o":""},"?":{"ha":639,"x_min":-68,"x_max":634,"o":"m 328 1024 q 484 981 372 1024 q 497 1000 490 998 l 497 995 l 486 976 q 560 904 494 976 q 629 824 587 888 l 629 806 q 618 669 618 770 q 574 632 618 654 l 476 576 l 410 531 l 402 531 l 373 563 l 373 560 l 399 526 q 294 494 399 513 q 257 416 260 449 q 225 352 227 372 l 214 352 q 207 366 208 352 q 235 437 214 410 q 246 451 243 437 l 243 451 q 238 443 238 451 l 233 443 l 233 446 l 259 507 q 344 587 293 525 l 347 589 l 349 589 l 362 566 l 370 568 l 370 571 l 362 581 l 362 584 q 391 592 362 592 l 391 595 l 380 595 l 380 603 l 418 616 l 418 618 l 412 618 l 355 592 l 349 597 q 429 654 369 618 q 476 758 452 696 q 507 787 502 787 l 507 789 l 505 789 l 489 781 l 489 787 q 510 875 510 858 q 465 915 473 915 q 389 962 451 933 l 359 981 l 162 944 q 154 939 162 939 l 175 925 l 175 922 l 170 922 q 114 962 163 922 l 101 970 l 96 970 l 96 968 q 140 930 111 968 q 117 915 120 924 l 122 909 q 93 899 101 909 q 51 867 53 879 q 72 784 63 784 q 54 768 66 772 q 38 784 45 784 l 38 792 q 48 816 48 806 l 38 808 q -1 920 -1 905 q -7 928 -1 928 l -36 928 l -41 933 l -41 936 l -15 933 l 6 933 l 6 936 l 3 939 l 3 941 l 14 944 l 17 941 l 17 936 l 9 936 l 9 933 l 56 930 l 56 936 l -15 960 l -15 965 l -12 965 l 24 955 l 75 984 l 83 984 l 83 979 l 88 979 l 69 1000 l 72 1000 l 88 992 q 188 1008 88 999 q 309 1019 188 1016 l 328 1024 m 629 970 l 634 960 l 626 955 l 629 952 l 629 920 l 623 920 l 623 928 l 626 930 l 626 933 l 621 939 l 621 955 q 610 962 610 955 q 629 970 610 968 m 59 936 l 59 930 l 80 925 l 83 925 l 83 928 l 62 936 l 59 936 m 85 925 l 85 922 l 96 918 l 101 918 l 93 925 l 93 928 l 85 925 m 175 922 l 178 922 l 188 920 l 188 915 l 183 915 l 175 922 m 433 909 l 436 909 l 436 904 l 426 893 l 423 896 l 423 899 l 433 909 m 210 904 l 231 890 l 231 888 l 222 888 l 210 899 l 210 904 m 151 901 l 159 901 l 164 896 l 164 893 l 157 893 l 151 899 l 151 901 m 130 890 l 136 885 l 130 880 l 125 880 l 125 885 l 130 890 m 85 882 l 90 875 l 77 875 l 85 882 m 164 878 q 214 816 183 876 q 225 810 225 816 l 217 810 l 217 808 q 225 789 225 798 q 112 704 128 722 l 104 704 q 59 755 59 732 l 88 789 l 90 789 l 90 787 l 80 773 l 112 744 q 188 798 184 773 l 159 853 q 119 829 142 853 q 138 798 126 798 q 154 810 143 798 q 138 832 144 830 l 136 829 l 140 813 l 130 824 q 140 843 130 838 q 170 806 166 823 l 136 776 l 98 827 q 154 872 107 842 l 164 878 m 249 875 l 252 875 q 270 859 270 863 l 267 859 q 249 872 251 864 l 249 875 m -54 859 l -54 856 q -68 848 -54 850 l -68 853 l -54 859 m 309 835 l 312 835 l 317 829 l 309 829 l 309 835 m 323 827 l 326 827 l 336 821 l 336 816 l 333 816 l 323 821 l 323 827 m 233 806 l 241 806 l 241 800 l 238 800 l 233 806 m -43 792 l -43 784 l -49 779 l -52 781 l -52 784 l -43 792 m 17 741 l 19 739 l 19 736 l 12 730 l 9 730 l 9 733 l 17 741 m 555 664 l 542 664 q 524 656 542 656 l 524 654 l 534 651 q 568 667 562 658 l 555 664 m 114 499 l 114 494 l 109 483 l 104 483 l 104 486 l 114 499 m 320 376 l 331 376 l 336 371 l 336 366 l 331 360 l 323 360 l 315 368 l 315 371 l 320 376 m 225 336 l 283 291 l 288 283 l 288 280 l 275 243 l 278 240 l 281 240 l 288 245 l 291 245 l 286 237 l 291 216 q 270 190 291 201 l 270 184 l 264 184 q 235 195 264 195 l 231 200 l 217 200 l 199 198 q 162 288 162 267 q 225 320 162 301 q 264 254 264 261 l 267 254 l 273 273 l 273 277 q 220 328 273 283 l 201 328 l 201 334 l 212 334 l 225 336 m 376 334 l 380 328 l 378 326 l 373 326 l 368 331 l 370 334 l 376 334 m 180 270 l 183 270 l 212 291 l 233 267 l 233 264 l 231 262 l 231 259 l 238 256 l 246 259 l 220 299 l 212 299 q 180 270 186 282 m 338 291 l 341 288 l 341 286 l 333 280 l 331 280 l 331 283 l 338 291 m 133 286 q 162 270 162 275 q 138 248 162 248 q 122 270 122 254 q 133 286 127 286 m 199 267 l 199 264 l 207 262 l 210 264 l 212 264 l 220 259 l 225 264 q 214 277 214 270 l 210 277 l 199 267 m 196 222 q 225 208 196 214 l 212 222 l 212 224 l 196 222 m 162 203 l 164 200 l 164 198 l 162 195 l 159 195 l 157 198 l 157 200 l 159 203 l 162 203 m 228 174 l 233 168 l 233 163 l 228 158 l 222 163 l 222 168 l 228 174 m 264 174 l 270 174 l 270 165 l 264 165 l 264 174 m 170 163 l 175 163 l 180 158 l 180 155 l 175 150 l 167 150 l 162 155 l 170 163 z "},"@":{"ha":814,"x_min":0,"x_max":895,"o":"m 630 936 q 643 926 642 931 l 643 923 l 635 915 l 625 915 l 622 918 l 619 918 q 630 936 619 936 m 419 861 l 424 861 l 429 855 l 424 850 l 419 855 l 419 861 m 601 855 l 604 855 l 609 850 l 601 842 l 596 850 l 601 855 m 565 827 l 568 825 l 568 822 l 559 817 l 557 819 l 557 822 l 565 827 m 398 822 q 538 793 506 822 l 541 796 q 625 760 555 779 q 728 648 728 690 q 755 581 755 604 l 752 563 q 765 521 759 551 q 783 472 776 513 q 809 425 809 442 l 809 422 l 783 387 q 768 363 783 379 q 697 246 761 340 q 604 212 634 212 q 536 246 543 233 q 469 212 496 212 l 432 208 l 404 208 q 250 249 303 220 q 203 316 224 249 q 184 355 193 326 l 187 358 q 216 337 216 358 l 216 321 l 221 316 l 224 316 q 232 353 224 333 q 221 384 221 370 l 265 412 l 268 410 l 271 410 l 276 415 l 315 402 l 315 391 q 279 363 295 363 l 279 360 q 296 296 288 342 q 315 280 309 280 l 315 277 l 310 277 l 310 275 l 281 280 l 279 277 l 268 277 l 265 280 l 263 277 l 258 277 l 245 280 q 237 275 245 275 l 237 272 l 307 272 q 320 243 315 272 q 450 228 348 236 q 503 254 490 243 q 494 296 494 278 l 507 389 l 503 402 l 505 402 q 523 412 517 412 l 523 417 q 497 410 512 410 q 429 428 473 428 l 338 428 l 317 402 l 283 415 l 283 420 q 351 456 305 456 l 505 438 l 513 441 l 510 448 l 513 459 l 510 461 l 518 526 q 439 586 517 535 l 432 589 l 432 593 l 437 593 l 437 596 l 393 599 l 385 599 q 323 573 323 592 l 299 526 l 299 521 q 380 488 359 488 l 404 516 q 377 545 404 527 l 375 545 q 361 521 367 545 q 382 511 373 511 l 388 516 l 388 513 q 377 498 382 498 q 349 519 351 511 q 375 563 349 534 q 427 516 424 533 l 382 472 q 289 500 309 486 l 294 513 l 276 508 l 276 532 l 281 570 l 248 581 l 248 586 l 250 586 l 283 576 l 292 578 l 292 573 l 304 573 l 304 576 l 289 583 q 391 620 297 620 q 422 625 391 624 l 456 625 l 538 570 q 583 508 541 553 l 596 451 l 596 448 q 575 329 588 380 l 572 316 l 578 300 l 578 275 q 625 236 614 236 l 653 233 q 700 283 653 241 q 728 358 700 297 l 739 387 l 724 431 q 755 441 724 439 l 755 444 l 731 444 l 731 446 l 734 448 l 734 451 q 728 464 728 451 l 724 479 q 713 534 715 479 q 705 552 707 534 q 674 637 680 552 q 648 690 674 648 q 551 749 648 714 q 460 788 538 763 q 411 804 444 799 q 268 772 283 783 q 227 744 227 766 q 190 697 223 726 q 161 680 190 694 q 138 633 145 656 l 115 625 l 115 622 l 120 622 l 120 617 l 109 614 l 109 612 l 115 612 l 115 607 l 106 607 l 109 604 l 109 602 l 99 581 q 106 576 106 581 l 106 570 l 96 503 q 109 456 109 478 l 109 387 l 104 340 q 122 296 109 316 q 164 182 153 255 l 167 179 q 187 145 180 145 q 359 41 304 54 l 377 41 q 469 31 439 31 q 616 67 552 31 l 619 109 l 619 119 q 565 148 619 129 q 549 124 549 133 l 578 111 l 585 122 l 575 127 l 572 127 l 565 122 l 562 124 l 562 127 q 568 135 568 127 l 570 135 q 601 117 584 135 q 581 81 590 81 l 523 117 l 523 119 l 562 176 l 565 176 q 650 127 581 176 l 650 122 q 630 85 650 112 q 604 52 627 52 q 439 0 490 10 l 429 0 l 234 54 q 190 94 205 70 q 122 163 182 94 q 50 283 102 163 l 18 340 q 0 433 0 378 q 31 570 0 490 l 65 646 l 104 677 l 91 690 l 94 690 l 109 680 q 227 783 205 782 q 398 822 314 822 m 531 788 l 531 783 l 534 783 l 538 788 l 531 788 m 117 768 l 120 768 l 112 760 l 112 762 l 117 768 m 276 697 l 279 694 l 279 690 l 271 690 l 271 692 l 276 697 m 81 682 l 81 680 l 75 674 l 73 677 l 73 680 l 75 682 l 81 682 m 109 674 l 109 669 l 120 664 l 120 669 l 109 674 m 372 534 l 375 534 l 375 532 l 372 524 l 377 519 l 375 519 l 367 526 l 367 529 l 372 534 m 380 529 l 382 529 l 388 524 l 385 524 l 380 529 m 388 524 l 393 519 l 391 516 l 388 516 l 388 524 m 890 475 l 895 475 l 895 469 l 885 467 l 885 469 l 890 475 m 526 420 l 526 415 l 536 422 l 534 422 l 526 420 m 232 373 l 232 371 l 237 376 l 237 378 l 232 373 m 372 371 l 375 368 l 375 366 l 367 360 l 367 366 l 372 371 m 218 314 l 218 306 l 224 306 l 224 309 l 218 314 m 221 296 l 221 285 l 227 290 l 227 296 l 221 296 m 354 277 l 357 275 l 357 272 l 354 270 l 344 270 l 344 275 l 354 277 z "},"A":{"ha":771,"x_min":-68,"x_max":863,"o":"m 610 1042 l 621 1040 l 621 1034 l 610 1031 l 602 1034 l 610 1042 m 434 1037 l 437 1037 l 437 1031 l 429 1031 l 434 1037 m 201 1034 l 206 1034 q 225 1021 225 1025 l 222 1018 l 220 1018 q 201 1029 213 1029 l 201 1034 m -24 1029 q 0 1010 -12 1025 q -8 977 -3 977 l -22 977 l -24 980 l -27 980 l -19 996 l -27 1013 l -24 1013 l -16 1007 l -16 1013 q -30 1021 -30 1015 l -24 1029 m 100 1010 l 114 991 l 114 985 l 111 985 l 98 994 l 84 985 l 79 994 l 100 1010 m 553 1007 l 562 1007 q 686 934 606 1007 l 686 931 l 684 931 q 597 972 652 956 l 591 972 l 591 969 q 637 945 604 969 l 640 947 l 643 947 l 667 931 l 670 934 l 673 934 q 705 893 705 917 l 708 890 l 708 888 l 705 885 l 705 882 q 727 825 712 879 q 746 785 736 819 l 751 785 l 751 782 q 732 771 751 777 l 732 774 l 738 782 l 738 785 l 735 782 l 730 782 l 730 787 l 724 787 l 722 766 l 716 766 l 711 782 l 708 779 l 705 779 q 694 795 700 779 l 692 793 l 686 793 l 686 798 l 689 809 q 662 871 665 847 l 643 901 l 643 904 q 651 912 651 904 l 648 915 l 646 915 q 632 904 643 904 l 629 907 l 629 909 q 640 918 640 913 q 562 945 620 920 q 502 901 519 932 l 486 861 q 477 850 479 861 l 472 850 q 461 863 472 857 l 461 866 l 456 861 q 472 844 463 861 q 450 768 450 803 l 450 698 q 439 682 450 682 l 431 684 l 431 663 l 439 663 q 499 654 499 663 l 513 657 l 524 657 l 608 633 l 610 633 l 610 627 l 570 619 l 570 614 l 575 614 q 581 606 575 606 l 618 622 l 613 630 q 640 619 634 626 l 667 627 l 667 622 l 662 622 l 662 614 l 703 603 l 700 635 q 708 641 700 641 l 705 654 q 722 728 711 662 l 716 733 l 719 736 l 719 739 l 713 744 l 716 744 q 754 698 754 713 l 751 695 l 751 692 l 757 682 l 751 614 q 760 584 751 595 l 760 578 l 757 578 l 741 589 q 716 559 741 566 l 722 554 l 738 562 l 741 559 l 741 557 l 735 454 l 743 437 l 741 435 l 722 437 l 713 437 l 713 435 q 743 424 743 430 l 743 410 q 738 380 743 391 l 741 361 l 735 283 l 730 283 q 708 302 713 302 l 694 302 l 694 304 q 713 326 705 326 q 705 332 713 332 l 703 334 l 703 337 q 713 345 703 344 l 708 351 q 692 321 692 347 l 686 307 l 678 307 l 673 313 l 678 323 l 675 326 l 678 340 l 678 356 l 675 383 q 686 416 678 416 l 689 408 l 692 408 q 705 470 692 463 l 697 470 l 700 489 q 689 494 689 489 l 689 532 l 700 532 l 697 535 l 697 538 l 700 546 l 697 543 l 694 543 q 613 581 680 543 l 583 595 l 581 595 l 564 589 l 564 592 l 567 600 l 564 600 q 556 611 556 600 q 545 619 545 611 l 543 619 l 543 614 q 551 603 547 614 l 548 603 l 469 619 l 469 622 l 472 625 l 472 627 l 467 633 l 486 641 l 486 646 l 448 622 l 429 625 l 429 611 q 439 576 437 601 l 434 570 l 434 557 q 442 532 434 543 l 439 505 q 445 492 439 492 l 442 465 l 442 408 l 439 367 l 477 383 q 437 356 457 356 l 429 359 l 429 356 q 415 345 429 345 q 404 334 415 334 l 404 332 l 410 332 l 434 351 l 437 348 l 412 231 q 382 158 405 231 q 353 106 353 114 l 355 106 l 380 96 l 382 98 l 385 98 l 399 96 l 418 101 l 418 98 l 415 90 l 429 90 q 456 47 456 90 l 442 41 l 439 44 l 439 47 l 420 39 q 377 68 389 39 l 374 71 l 374 74 l 377 82 q 347 101 355 101 q 309 58 347 81 l 309 55 l 290 58 l 274 58 l 271 60 l 269 58 l 241 58 q 236 50 241 50 l 233 58 l 220 55 l 190 58 l 182 58 l 182 63 l 252 63 q 307 125 295 102 l 290 131 l 290 128 l 288 125 l 228 161 q 212 153 212 157 l 193 155 l 187 155 l 187 153 l 190 104 q 168 63 190 80 l 168 60 l 160 60 l 127 50 l 81 58 l 81 63 l 90 63 l 90 66 q 57 109 64 66 l 57 120 q 106 180 71 180 l 109 180 l 127 177 l 130 180 l 130 177 l 117 161 l 117 158 l 103 163 q 73 123 87 163 q 119 63 73 77 l 138 60 l 136 63 l 136 68 q 171 109 165 68 l 171 128 q 149 169 159 169 l 141 166 q 152 125 152 149 q 109 87 140 87 q 92 115 92 104 l 92 117 q 109 144 92 134 l 117 144 q 125 128 125 142 q 117 115 123 115 l 114 115 l 114 117 l 119 125 l 119 134 l 114 139 l 111 139 q 100 120 106 139 q 117 98 104 109 q 136 125 136 104 q 122 161 136 137 q 127 172 127 161 l 141 169 l 144 172 l 144 182 l 117 193 l 73 201 l 62 199 l 62 193 l 81 193 l 87 188 q 22 63 33 188 q 98 -1 50 26 l 106 -4 l 119 -4 l 146 12 l 171 12 q 247 50 193 12 l 252 50 l 255 47 l 258 47 l 255 44 l 255 39 l 263 39 l 263 44 l 266 44 l 269 41 l 271 41 q 277 52 271 52 l 277 47 l 279 47 l 296 52 l 298 52 l 298 50 q 190 -42 271 -7 l 138 -58 q 22 14 22 -18 l 24 17 l 30 17 l 38 12 l 54 14 l 54 17 q -3 50 11 17 l -5 66 q 22 136 -5 119 l 19 136 l 16 134 l 14 134 l 11 136 l 11 139 q 60 204 24 184 q 119 215 86 215 l 144 212 q 155 220 144 219 q 119 239 131 239 l 119 245 l 122 245 l 174 226 l 179 226 q 193 245 186 226 l 198 245 l 198 242 l 195 229 q 217 196 217 229 l 228 193 l 231 204 l 239 204 l 244 188 l 241 185 l 239 185 l 236 188 l 233 188 l 231 185 l 231 182 q 263 163 250 182 l 263 161 l 255 161 l 255 158 l 263 155 l 266 158 l 269 158 q 309 128 290 138 q 342 161 313 161 q 326 166 342 166 q 372 310 372 269 l 391 326 l 391 329 l 385 329 l 380 323 l 374 323 l 396 437 l 399 437 l 412 432 l 415 432 l 415 435 q 399 446 407 435 l 399 489 q 385 522 399 519 l 388 524 l 388 527 l 385 530 l 385 532 l 396 535 l 393 538 l 393 541 l 401 543 l 401 546 q 391 551 391 546 l 412 551 l 415 559 l 404 562 l 410 603 l 407 622 l 404 622 l 401 614 l 404 611 l 404 608 q 399 587 402 587 l 401 584 l 401 573 l 393 557 l 391 559 l 388 559 l 391 573 l 391 625 l 385 630 l 355 630 l 350 635 q 328 641 350 641 l 328 644 l 320 641 l 320 638 l 336 635 l 336 633 q 296 600 296 612 l 293 592 l 293 589 q 315 576 300 576 q 328 584 328 579 l 328 587 q 317 603 328 600 l 309 600 l 309 606 l 320 608 q 345 584 345 605 l 345 578 q 334 559 345 564 l 323 559 q 269 608 275 559 l 269 611 l 271 614 l 274 614 l 277 611 q 320 652 286 636 q 388 663 366 663 l 388 692 l 393 692 l 393 687 l 404 687 l 404 690 q 391 701 396 690 l 399 701 l 407 698 l 407 701 q 420 725 420 717 q 412 714 416 725 l 410 711 l 404 711 l 404 736 q 415 771 410 744 l 412 785 l 418 790 l 420 787 l 423 787 q 439 795 432 795 l 434 801 l 420 801 l 420 804 q 445 877 433 823 l 415 901 l 418 904 l 420 904 q 448 888 420 900 q 469 926 456 926 l 467 928 l 467 931 q 513 983 487 973 q 553 1007 547 998 m 716 1007 l 719 1007 l 719 1004 l 713 999 l 711 999 l 711 1002 l 716 1007 m 271 988 l 277 988 q 293 977 293 982 l 293 975 l 290 975 l 271 988 m -24 975 l -5 972 l -5 969 q -27 942 -14 951 l -30 945 l -30 969 l -24 975 m 339 947 l 342 947 l 347 942 l 339 942 l 339 947 m 515 937 l 529 937 l 529 942 l 521 942 l 515 937 m 52 939 l 62 934 l 62 926 l 57 926 q 46 934 57 934 l 52 939 m 369 934 q 380 926 369 930 l 382 923 l 382 918 q 363 931 365 925 l 366 934 l 369 934 m 697 926 l 700 926 l 708 923 l 708 918 l 705 918 l 697 926 m 589 904 l 591 904 l 575 888 l 575 890 l 589 904 m 654 901 l 654 896 l 692 888 l 694 888 l 694 890 l 654 901 m 73 871 l 76 871 l 62 855 l 62 861 l 73 871 m 149 869 l 152 866 l 155 866 l 157 869 l 160 866 l 160 863 l 146 852 l 141 858 l 141 861 l 149 869 m 355 850 l 358 847 l 358 844 l 347 831 l 347 798 q 326 787 347 791 l 326 785 q 363 752 360 760 l 358 747 l 350 747 q 304 785 326 785 q 282 806 282 785 l 282 809 q 331 842 282 837 l 334 842 l 342 836 l 345 836 q 355 850 345 844 m 518 839 l 521 839 l 529 831 l 524 831 l 518 836 l 518 839 m 24 817 l 24 814 q -16 758 -9 761 l -19 760 q 24 817 -6 790 m 700 804 l 700 801 l 713 801 l 713 804 l 700 804 m 600 793 l 602 790 l 594 779 l 591 782 l 591 785 l 600 793 m 694 782 l 700 782 l 703 768 l 703 766 l 700 766 l 694 771 l 694 782 m 749 774 l 751 774 l 751 760 l 743 760 l 743 768 l 749 774 m 629 766 q 621 749 626 749 l 616 755 q 629 766 618 766 m 746 758 l 751 758 l 749 725 l 743 730 l 746 758 m 703 741 l 708 741 l 711 730 l 708 728 l 705 728 q 711 690 711 713 l 708 687 l 705 687 l 703 690 l 703 741 m 293 722 l 298 722 l 304 717 l 304 714 l 288 711 l 285 714 l 285 717 l 293 722 m 366 709 l 369 706 l 369 703 l 366 701 l 361 701 l 361 703 l 366 709 m 537 709 l 540 709 l 545 703 l 545 701 l 540 695 l 534 695 l 529 701 l 537 709 m 673 676 l 665 668 l 662 671 l 662 673 l 665 676 l 673 676 m 429 633 l 429 630 l 439 630 l 439 633 l 429 633 m 274 627 l 279 627 l 279 625 l 274 619 l 274 627 m 71 592 l 71 589 l 65 584 l 62 587 l 62 589 l 65 592 l 71 592 m 781 587 l 781 584 l 776 578 l 773 581 l 773 584 l 776 587 l 781 587 m 686 559 l 686 557 l 697 559 l 697 568 l 686 559 m 336 551 l 353 551 q 336 522 353 530 l 326 522 l 326 524 l 328 527 l 328 530 l 320 538 l 320 541 l 323 538 l 328 538 q 336 551 329 551 m 312 532 l 315 532 q 355 489 351 500 l 355 486 l 350 486 l 350 492 q 342 500 342 492 l 328 503 l 326 489 q 304 505 307 496 l 315 524 l 312 527 l 312 532 m 670 530 l 678 530 l 673 524 l 670 524 l 670 530 m 410 503 l 410 497 l 418 497 l 420 508 l 415 508 l 410 503 m 616 478 l 618 475 l 618 473 l 616 470 l 610 470 l 610 473 l 616 478 m 366 470 l 369 470 l 374 465 l 374 462 l 366 465 l 366 470 m -62 454 l -49 454 l -41 446 l -41 435 q -54 424 -41 429 q -68 435 -66 429 l -68 448 l -62 454 m 581 454 l 586 454 l 572 440 l 570 443 l 570 446 l 581 454 m 836 437 l 841 437 l 841 435 l 827 424 l 825 424 l 825 427 l 836 437 m 496 421 l 496 418 l 491 413 l 486 418 l 488 421 l 496 421 m 315 418 l 317 416 l 317 413 l 307 402 l 312 378 q 301 361 301 372 l 298 361 q 279 370 290 361 l 274 370 l 274 364 l 269 364 l 269 367 l 274 372 l 271 386 q 293 408 271 408 l 301 408 q 315 418 301 418 m 336 413 l 339 413 q 347 397 347 410 l 345 397 l 336 405 l 339 405 l 336 408 l 336 413 m 114 351 l 152 340 l 152 334 l 114 345 l 114 351 m 252 348 l 258 342 l 255 340 l 252 340 l 247 345 l 250 348 l 252 348 m 285 329 l 288 326 l 288 323 l 285 321 l 282 321 l 279 323 l 279 326 l 282 329 l 285 329 m 233 323 l 239 323 l 255 310 q 206 261 221 282 l 203 261 l 203 264 q 233 323 218 313 m 358 307 l 358 304 q 331 283 341 283 l 331 286 l 358 307 m 675 302 l 681 302 l 686 296 l 684 294 l 689 294 l 686 291 l 686 288 l 692 288 l 694 291 l 697 291 l 732 277 l 730 258 l 730 210 l 760 204 l 760 199 l 730 204 q 795 136 760 158 l 792 134 l 798 134 l 798 128 l 795 128 l 787 131 q 779 125 787 125 q 686 182 735 125 q 662 196 672 196 l 659 196 l 659 191 l 654 191 l 654 207 l 667 207 l 667 212 l 662 220 q 640 204 646 220 q 613 212 613 207 l 613 223 q 656 248 613 229 q 675 302 675 285 m 743 291 l 757 291 l 770 280 l 770 269 l 765 264 q 743 283 753 269 l 743 291 m 692 286 l 692 277 l 700 277 l 692 286 m 735 275 l 741 269 l 741 253 l 735 248 l 732 250 l 732 261 l 735 275 m 743 269 l 749 269 l 765 258 l 765 253 l 760 248 l 743 248 l 743 269 m 195 258 l 201 258 l 201 250 l 195 250 l 195 258 m 825 196 l 830 196 l 852 182 l 852 180 l 846 180 l 825 196 m 350 180 l 350 174 l 358 177 l 358 180 l 350 180 m 854 182 l 857 182 l 863 177 l 854 177 l 854 182 m 475 153 l 477 150 l 477 147 l 469 142 l 461 142 l 461 150 l 475 153 m 155 150 l 163 150 l 157 144 l 155 144 l 155 150 m 803 131 l 817 128 l 817 123 l 803 125 l 803 131 m 95 66 l 95 63 l 106 63 l 106 66 l 95 66 m -33 58 l -30 58 l -30 -31 l -35 -31 l -41 47 l -33 58 m 567 47 l 572 47 l 578 41 l 578 36 l 572 31 l 567 31 l 559 39 l 567 47 m 176 -31 l 179 -34 l 182 -34 l 187 -28 l 187 -26 l 182 -26 l 176 -31 m 464 -31 l 464 -39 l 458 -39 l 453 -34 l 456 -31 l 464 -31 m 513 -66 l 518 -72 l 515 -75 l 507 -75 l 502 -69 l 505 -66 l 513 -66 z "},"B":{"ha":610,"x_min":0,"x_max":716,"o":"m 187 1061 l 190 1061 l 194 1057 l 194 1053 l 190 1048 l 180 1055 l 187 1061 m 89 1043 l 92 1043 l 98 1036 l 94 1031 l 84 1031 l 84 1038 l 89 1043 m 63 1010 l 63 1006 l 61 1003 l 61 1001 l 63 999 l 58 999 l 58 1003 l 56 1006 l 61 1010 l 63 1010 m 129 1001 q 155 964 146 981 l 155 962 q 140 949 155 949 l 140 945 q 150 941 150 945 l 147 938 l 145 938 l 143 941 l 143 943 l 115 936 q 96 964 105 936 l 96 975 l 77 982 l 79 985 l 79 987 l 77 996 q 96 980 92 980 q 129 1001 107 1001 m 166 994 l 168 994 q 176 980 173 994 l 173 978 l 171 978 q 152 985 153 978 l 152 987 q 166 994 155 994 m 171 962 l 176 962 q 187 947 176 956 l 187 938 l 194 943 l 197 941 l 199 941 l 213 943 l 218 943 q 222 933 222 943 q 248 938 226 938 l 248 941 q 227 945 227 941 l 227 947 l 239 949 l 260 949 l 260 947 l 258 945 l 258 943 l 271 938 l 274 938 l 274 941 l 269 941 l 269 945 l 274 952 q 290 945 290 952 l 295 945 l 295 949 l 328 949 l 328 947 l 326 945 l 326 943 l 330 943 l 337 945 q 351 933 338 933 q 342 947 342 941 l 365 947 q 442 917 389 947 q 452 905 442 905 l 450 903 l 450 901 l 452 899 l 452 896 l 454 899 l 458 899 l 458 894 l 461 894 l 461 907 l 524 873 l 524 870 l 522 868 l 522 866 l 524 863 l 522 861 l 541 859 l 541 854 l 524 852 l 529 842 l 557 845 l 571 842 l 571 838 l 564 838 l 562 840 l 559 838 l 548 840 l 545 840 l 541 836 l 550 800 l 548 798 l 548 795 q 555 751 552 791 l 566 751 l 566 747 l 548 747 l 536 749 l 536 745 l 550 745 l 552 742 l 555 742 q 517 691 555 709 l 505 680 l 508 677 q 475 642 495 669 q 454 628 469 642 l 412 621 l 414 618 l 414 616 l 407 614 l 407 612 l 414 612 l 419 616 q 503 574 488 598 l 555 528 q 566 523 555 523 l 562 516 l 573 516 l 573 511 l 571 514 l 566 514 l 578 500 l 573 495 l 581 488 l 581 477 l 576 477 l 576 474 l 569 477 l 569 481 l 573 488 l 573 490 q 564 467 567 490 l 583 472 l 583 469 l 590 416 l 587 409 q 595 404 595 409 l 592 402 l 592 399 l 597 395 l 597 385 q 585 351 597 361 l 583 351 q 566 378 583 360 l 566 381 l 569 383 l 569 385 q 562 395 563 385 q 571 414 562 402 l 569 411 l 562 411 l 564 414 l 564 416 l 552 416 l 552 422 q 562 430 552 429 l 562 435 l 550 425 l 541 430 l 541 432 l 550 441 l 548 448 l 538 441 l 536 441 l 536 448 l 548 453 l 548 456 l 541 456 q 534 448 541 448 l 534 451 l 538 463 l 531 463 l 531 467 l 536 467 l 536 469 l 531 469 l 524 460 l 522 460 l 522 465 l 526 465 l 526 467 l 522 467 l 519 465 l 519 467 q 529 481 524 481 l 529 484 l 524 484 l 517 477 l 515 477 l 513 479 l 510 479 l 508 477 q 473 530 495 489 l 473 537 l 479 532 l 482 532 l 482 534 q 461 553 476 534 l 461 558 l 473 563 l 473 565 q 463 574 463 565 l 454 576 l 454 579 l 456 581 l 456 584 l 454 584 q 447 574 447 584 l 445 574 q 437 586 439 574 l 442 586 l 442 589 l 437 589 l 435 586 l 435 591 l 424 591 l 416 597 l 419 607 l 416 607 l 410 605 l 400 616 l 400 618 l 419 628 l 419 630 l 412 630 l 400 621 l 395 621 l 391 626 q 435 672 391 632 l 447 670 l 450 670 q 442 675 450 675 l 442 677 l 458 696 l 458 705 l 466 742 l 479 742 l 479 747 l 482 747 l 487 742 l 482 742 l 482 740 l 484 740 l 496 742 l 496 747 l 479 749 l 471 749 l 471 754 l 482 754 l 482 756 l 461 761 q 475 772 469 772 l 475 775 q 466 782 475 781 l 466 787 l 471 787 l 471 789 l 466 795 l 466 798 l 468 800 l 458 814 l 458 826 q 482 833 458 831 l 501 821 l 503 821 l 503 824 l 484 833 l 484 838 l 524 842 l 524 847 l 510 842 l 508 845 l 505 845 l 494 840 l 492 842 l 479 840 l 475 840 q 468 850 469 840 l 466 850 l 466 842 l 468 840 l 468 838 l 454 831 q 424 866 444 831 q 386 901 386 887 l 374 901 q 344 917 368 901 l 281 924 q 274 901 274 919 l 264 899 l 264 894 l 269 894 l 269 889 q 260 870 269 881 l 260 868 l 267 868 l 267 852 l 255 840 q 250 833 255 833 l 250 836 l 253 842 l 245 842 l 245 838 l 243 838 l 239 850 l 255 859 l 255 861 l 250 861 l 239 852 l 232 857 q 241 866 234 866 l 234 873 l 232 873 l 232 866 l 224 866 l 224 873 l 229 880 l 227 882 l 227 884 l 232 894 l 229 894 l 213 884 l 208 915 l 211 915 q 197 933 206 930 l 190 926 l 187 926 l 190 928 l 190 931 l 182 943 l 180 941 l 178 941 q 171 962 173 941 m 168 938 l 173 938 q 187 920 187 929 l 197 910 l 197 907 q 100 868 100 888 l 98 866 l 96 866 l 94 868 l 92 868 q 54 808 92 851 l 33 756 l 33 754 l 37 749 q 24 684 25 749 l 26 672 l 21 623 l 84 505 l 82 502 q 147 439 98 500 l 185 427 l 185 430 l 187 451 l 187 465 l 190 467 l 190 469 l 192 467 l 201 467 l 187 481 l 187 486 l 194 484 l 199 484 l 199 486 q 187 493 187 486 l 187 500 l 190 500 l 208 486 l 208 490 q 187 509 201 490 l 187 511 l 194 576 q 187 623 187 576 l 190 633 l 187 635 l 187 637 l 190 644 l 192 642 l 194 642 q 201 646 194 646 l 203 649 l 203 654 l 192 651 l 190 651 l 190 667 l 194 677 l 192 707 q 199 738 197 713 l 197 745 q 203 758 201 745 l 199 763 l 199 766 q 206 770 199 770 l 206 772 l 199 775 l 201 777 l 201 791 l 208 791 q 199 826 201 799 l 206 833 q 197 840 197 833 q 211 863 203 863 l 208 866 l 208 868 l 215 875 l 215 873 l 213 866 l 215 866 q 220 857 220 866 l 222 859 l 227 859 l 222 838 l 224 836 l 227 836 l 237 838 l 234 831 l 239 819 q 229 808 229 819 l 224 808 l 224 805 l 227 805 l 241 817 l 245 812 l 243 810 l 243 808 l 248 803 l 248 795 l 243 795 l 243 793 l 245 793 l 258 798 l 264 787 l 264 779 l 262 777 l 262 775 l 267 770 l 267 768 l 264 766 l 264 763 l 269 763 l 269 758 q 262 749 262 758 l 269 749 l 269 745 q 243 758 256 745 l 234 754 l 222 756 l 220 754 l 220 751 l 227 751 l 227 749 l 224 747 l 224 745 l 248 742 l 260 745 l 262 745 l 264 730 l 262 728 l 276 728 l 276 724 l 271 724 l 269 726 l 267 726 q 255 654 267 703 l 253 654 q 269 600 253 636 l 269 591 l 271 591 l 323 607 l 332 605 l 391 621 l 393 614 l 391 614 l 386 609 l 389 609 l 395 612 l 395 609 q 403 605 395 605 q 412 597 403 597 l 416 589 l 414 589 l 412 591 l 410 591 l 407 589 l 407 586 l 395 589 l 377 589 l 372 593 l 365 591 l 313 593 q 274 574 274 593 l 274 568 q 290 558 277 558 l 295 558 l 300 563 l 292 572 l 302 572 l 307 568 l 307 560 q 292 551 307 556 l 267 560 l 267 555 l 264 523 l 271 469 l 267 456 l 269 444 q 258 435 260 444 q 274 416 267 429 l 274 414 q 260 406 267 414 l 258 409 l 255 406 l 255 402 l 258 402 q 274 409 264 409 q 337 425 274 420 q 405 486 405 442 l 391 514 l 416 523 l 421 516 l 416 511 l 416 509 q 424 497 424 509 l 419 493 l 421 493 l 429 495 l 429 479 q 295 393 400 396 l 300 399 l 292 399 q 274 385 291 385 l 260 388 l 260 385 l 267 353 l 267 328 q 258 267 267 278 q 267 248 260 267 q 271 241 271 248 l 274 239 l 279 239 l 326 236 l 389 243 q 400 234 390 234 l 405 234 l 405 236 l 393 239 l 393 243 q 475 294 422 243 l 477 294 l 475 297 l 475 299 q 513 378 499 331 q 529 385 528 378 l 526 385 l 519 383 l 519 388 l 513 383 l 510 383 q 531 427 510 419 l 536 420 l 529 418 l 529 414 l 541 414 l 541 409 q 534 404 534 409 l 536 404 l 543 409 l 545 409 l 543 406 l 543 404 l 545 402 l 545 399 l 541 388 l 543 388 l 552 395 l 557 395 q 548 381 557 381 l 548 378 l 562 378 l 566 367 l 564 367 l 562 369 l 559 369 l 550 355 l 552 355 l 564 365 l 569 365 q 583 341 574 365 q 541 281 555 281 l 529 269 l 526 269 l 526 273 l 524 273 q 492 241 524 260 q 452 218 463 218 l 447 218 l 445 220 l 442 220 l 442 216 l 431 216 l 431 222 l 426 222 q 421 216 426 216 l 386 216 l 323 208 l 283 211 l 271 211 l 264 216 l 262 216 l 262 211 l 250 213 q 171 203 229 203 l 166 203 l 166 206 q 180 213 166 213 l 176 218 q 157 203 157 215 l 113 203 l 113 208 q 164 245 123 208 q 187 311 187 280 l 187 393 q 164 409 184 404 q 89 463 127 428 q 21 560 21 547 l 19 568 l 21 570 l 21 572 q 5 623 5 604 l 5 626 l 0 709 l 5 754 l 14 754 l 14 756 q 7 761 7 756 q 19 787 13 787 l 16 789 l 16 791 q 145 920 58 883 q 155 928 155 920 l 166 926 l 168 926 l 168 931 l 171 931 l 168 933 l 168 938 m 360 931 q 368 926 360 926 l 370 926 l 370 928 l 360 931 m 215 915 l 215 912 l 218 912 l 237 920 l 237 924 l 215 915 m 379 917 q 389 910 379 913 l 389 915 l 379 917 m 250 901 l 253 901 q 264 912 263 906 l 262 912 l 250 901 m 391 901 l 391 899 q 407 887 391 893 l 410 887 l 410 889 l 391 901 m 208 901 l 208 894 l 203 894 l 203 896 l 208 901 m 360 887 l 363 887 l 368 882 l 365 882 l 360 887 m 442 882 q 435 875 442 875 l 435 866 q 447 882 447 873 l 442 882 m 203 882 l 208 882 l 208 870 l 203 875 l 203 882 m 224 882 l 224 875 l 222 875 l 218 880 l 220 882 l 224 882 m 524 880 l 531 880 l 531 875 l 524 875 l 524 880 m 529 873 l 538 873 l 538 868 l 529 868 l 529 873 m 68 857 l 68 850 l 71 850 l 73 857 l 68 857 m 686 854 l 690 854 l 690 852 q 658 845 690 845 l 658 850 l 667 850 l 686 854 m 637 852 l 639 852 l 639 845 l 632 845 l 632 847 l 637 852 m 54 838 l 56 838 l 61 842 l 63 840 l 73 840 l 73 842 q 63 847 63 842 l 61 847 q 54 838 58 847 m 613 850 l 613 842 l 590 840 l 587 840 l 587 842 q 613 850 587 850 m 227 847 l 232 847 l 232 840 l 227 840 l 227 847 m 262 842 l 264 842 l 267 819 l 267 817 l 260 810 l 258 810 l 258 812 l 262 819 l 260 817 l 255 817 q 248 824 255 824 l 262 840 l 262 842 m 519 812 l 519 808 l 543 798 q 522 812 543 803 l 519 812 m 211 791 l 211 787 l 218 782 l 220 782 l 213 789 l 213 791 l 211 791 m 419 793 l 433 793 l 433 789 l 419 789 l 419 793 m 220 779 l 220 768 q 232 761 232 768 l 237 761 l 220 779 m 211 772 l 211 770 l 213 763 l 211 761 l 213 761 l 218 766 l 218 768 l 213 772 l 211 772 m 16 756 l 16 754 l 28 754 l 28 756 l 16 756 m 68 758 l 75 758 l 157 754 l 164 754 l 164 749 l 136 749 l 134 751 l 131 749 l 129 749 l 126 751 l 115 749 l 110 749 l 103 754 l 68 754 l 68 758 m 489 754 l 489 751 l 501 751 l 501 754 l 489 754 m 206 751 l 206 749 l 213 747 l 218 747 l 218 749 l 208 751 l 206 751 m 283 751 l 309 751 l 309 747 l 297 745 l 283 747 l 283 751 m 347 749 l 358 749 l 358 745 l 347 745 l 347 749 m 398 749 l 407 749 l 407 745 l 398 745 l 398 749 m 412 749 l 419 749 l 419 745 l 412 745 l 412 749 m 253 740 l 253 738 l 258 733 l 260 733 l 253 740 m 218 675 l 215 667 l 218 667 l 222 672 l 220 675 l 218 675 m 714 637 l 716 637 l 702 623 l 700 623 l 700 626 l 714 637 m 690 623 l 695 623 l 692 616 l 690 616 l 690 623 m 688 616 l 690 616 l 690 609 q 679 602 685 609 l 676 602 l 676 605 l 688 616 m 667 595 l 671 595 l 671 593 l 665 586 l 658 586 l 658 591 l 667 595 m 450 570 l 454 570 l 456 560 l 450 568 l 450 570 m 625 563 l 627 563 l 627 560 q 611 549 626 555 l 608 551 l 608 553 l 625 563 m 360 560 l 374 558 l 370 551 l 370 549 l 389 553 l 393 542 l 391 539 l 393 539 l 405 542 l 405 534 q 398 530 398 534 l 410 530 l 410 528 l 389 514 q 370 534 389 519 q 318 509 351 534 l 323 497 l 318 493 l 342 472 l 365 469 q 372 474 365 474 l 372 488 l 365 507 l 347 497 l 351 490 q 358 497 358 490 l 363 497 l 363 490 l 353 481 l 347 481 q 334 500 334 487 l 334 502 q 368 518 334 510 q 379 505 379 515 l 377 502 q 389 481 389 502 l 389 479 q 334 456 389 469 l 332 456 l 326 463 q 332 474 331 463 l 321 467 l 321 469 l 323 472 l 323 474 l 321 474 l 318 472 l 316 472 l 313 474 l 316 477 l 316 481 l 313 481 l 311 479 l 309 479 l 307 481 l 307 484 l 309 484 l 307 486 l 307 490 l 311 490 l 311 495 l 304 490 l 302 490 l 295 502 q 360 560 295 538 m 45 547 l 45 539 l 52 547 l 45 547 m 40 537 l 40 530 l 45 530 l 42 537 l 40 537 m 519 521 l 519 516 l 522 516 l 529 523 l 526 523 l 519 521 m 71 507 l 71 505 l 77 502 l 79 502 l 79 505 l 73 507 l 71 507 m 548 505 l 538 490 l 543 490 q 552 502 543 502 l 552 505 l 548 505 m 508 497 l 503 490 q 508 481 508 490 q 515 493 512 481 l 508 497 m 559 486 l 552 472 q 562 486 556 472 l 559 486 m 505 463 l 510 463 l 515 446 l 515 441 q 505 463 509 441 m 526 444 l 529 444 l 534 439 l 531 437 l 526 437 l 526 444 m 522 441 l 524 439 l 524 437 l 522 437 l 524 435 l 524 430 l 515 420 l 513 420 l 510 437 l 522 441 m 566 427 l 566 418 l 573 425 l 573 427 l 571 425 l 569 425 l 566 427 m 248 420 l 250 420 l 255 425 l 253 425 l 248 420 m 576 420 l 576 414 l 587 418 l 585 420 l 585 422 l 576 420 m 316 414 l 318 414 l 323 418 l 321 418 l 316 414 m 543 416 l 550 416 l 550 411 l 548 411 l 543 416 m 566 395 l 566 393 l 576 404 l 576 406 l 566 395 m 208 399 l 208 397 l 215 397 l 215 402 l 208 399 m 519 376 l 515 367 l 515 365 l 529 372 l 529 374 l 519 376 m 519 346 l 517 334 l 526 334 l 534 341 l 534 344 l 524 339 l 522 341 l 522 344 l 524 346 l 519 346 m 510 328 l 510 323 q 503 318 503 323 l 510 318 l 513 325 l 513 328 l 510 328 m 489 304 l 492 304 l 496 309 l 494 309 l 489 304 m 237 271 l 234 264 l 239 264 l 239 271 l 237 271 m 241 264 l 241 260 l 250 267 l 248 267 l 241 264 m 206 264 l 206 260 l 208 260 l 213 264 l 206 264 m 218 248 l 206 239 l 201 239 l 206 245 l 203 245 q 185 224 197 230 l 182 224 l 182 222 l 187 222 q 222 245 187 227 l 222 248 l 218 248 m 410 229 l 410 224 l 419 222 l 424 222 l 424 224 l 410 229 m 232 224 l 232 222 l 239 216 l 239 218 l 232 224 m 445 213 l 452 213 l 452 208 l 450 208 l 445 213 z "},"C":{"ha":570,"x_min":-79,"x_max":882,"o":"m 430 1099 l 434 1099 l 439 1094 l 439 1086 l 434 1080 l 434 1073 l 439 1068 l 454 1068 l 466 1070 l 466 1066 q 430 1054 430 1062 l 432 1040 l 427 1040 l 427 1052 l 425 1049 l 420 1049 l 410 1059 l 405 1036 l 412 1036 l 412 1031 l 410 1031 l 407 1033 l 405 1031 l 396 1031 l 396 1036 q 418 1091 396 1064 l 418 1086 l 423 1086 q 430 1099 424 1099 m 481 1075 l 486 1075 l 486 1073 l 481 1068 l 481 1075 m 464 1052 l 468 1047 l 466 1045 l 464 1045 l 459 1049 l 461 1052 l 464 1052 m 353 1042 l 357 1038 l 357 1036 l 353 1040 l 353 1042 m 418 1042 l 423 1042 l 423 1036 l 418 1036 l 418 1042 m 538 1042 l 541 1040 l 541 1038 l 523 1033 q 538 1042 526 1042 m 430 1033 l 434 1033 l 434 1024 l 430 1024 l 430 1033 m 452 1031 l 454 1029 l 454 1024 l 450 1019 l 448 1019 l 441 1026 l 441 1029 l 452 1031 m 518 1031 l 520 1031 l 511 1021 l 509 1021 l 518 1031 m 407 1026 l 407 1024 l 405 1021 l 405 1019 l 427 1019 l 427 1015 l 407 1015 l 405 1013 l 403 1013 l 398 1024 l 400 1026 l 407 1026 m 371 1024 l 373 1024 l 378 1019 l 378 1017 l 376 1017 l 371 1021 l 371 1024 m 437 1019 l 437 1008 l 432 1008 l 430 1017 l 432 1019 l 437 1019 m 378 1015 l 382 1015 l 391 1005 l 391 1003 l 385 1003 q 378 1010 385 1010 l 378 1015 m 264 1013 l 273 1013 l 278 1008 l 278 1003 l 271 996 l 269 996 q 256 1003 258 996 l 264 1013 m 444 1010 l 446 1010 l 475 998 l 486 1003 l 484 1000 l 484 998 l 493 998 l 493 994 l 477 994 l 479 991 l 479 963 q 495 954 492 963 l 486 954 q 481 961 481 954 l 473 954 l 471 954 l 471 959 l 461 959 q 454 949 456 959 l 450 949 l 452 961 l 450 963 l 448 963 l 427 961 l 427 968 l 430 970 l 430 972 l 427 972 l 420 970 l 414 977 q 410 970 414 970 l 410 968 q 423 956 423 968 l 412 956 q 389 970 398 956 q 405 979 389 974 l 405 982 q 393 991 400 991 l 393 996 l 400 996 q 412 982 412 989 q 437 996 433 982 l 434 998 l 434 1003 l 446 1005 l 444 1008 l 444 1010 m 502 1000 l 511 1000 l 511 996 l 502 996 l 502 1000 m 292 996 l 296 991 l 292 987 l 285 994 l 288 996 l 292 996 m 283 970 l 288 966 l 283 961 l 278 966 l 283 970 m 432 945 l 434 943 l 437 943 l 439 945 l 441 945 l 441 940 l 439 938 l 439 935 q 468 914 450 935 l 471 914 l 468 917 l 468 922 l 471 922 q 479 914 479 918 l 477 912 l 477 910 l 488 910 l 488 907 l 486 905 l 486 903 l 495 898 l 495 903 l 498 903 l 502 898 l 500 896 q 509 891 509 896 l 502 891 l 502 889 q 518 873 509 889 l 515 870 l 511 870 l 505 875 l 505 873 l 515 861 l 513 859 l 518 859 l 525 863 l 530 863 l 534 859 l 532 852 l 538 857 l 543 857 q 559 833 559 848 l 543 791 l 545 789 l 545 787 q 509 705 528 736 l 502 705 q 389 745 402 730 l 389 758 q 412 803 389 775 q 444 844 425 844 l 454 844 q 502 821 502 831 q 475 745 492 745 q 432 758 432 745 q 454 814 446 814 q 475 800 470 808 q 459 768 465 768 l 450 777 l 457 787 l 457 782 l 459 782 l 464 795 l 457 798 q 446 763 446 787 l 468 761 q 481 798 476 773 l 481 805 q 446 828 481 811 q 414 749 422 802 q 491 724 455 730 l 493 724 l 538 826 q 468 870 530 839 q 393 912 407 912 q 267 877 370 912 q 210 847 262 871 q 170 821 210 842 l 147 800 l 127 742 q 111 696 118 696 q 95 688 95 694 l 113 693 l 115 691 l 115 688 l 106 623 l 111 614 l 102 565 l 102 549 l 100 537 l 124 484 l 127 484 l 127 491 l 115 507 l 115 509 l 117 521 l 115 519 l 111 519 l 106 537 l 113 537 l 158 454 l 161 456 l 163 456 l 176 437 l 178 437 l 201 454 l 201 449 l 183 430 q 251 368 196 403 l 310 323 q 378 272 368 272 l 378 267 l 369 267 l 369 265 q 398 256 392 265 l 464 212 l 604 137 l 708 77 q 733 58 733 77 l 735 51 l 735 46 l 733 46 l 730 48 l 728 48 q 703 27 728 43 l 703 23 q 696 18 696 23 l 699 18 l 715 30 l 724 23 q 728 35 724 35 l 730 37 q 735 43 730 43 q 744 -7 741 43 q 737 -54 737 -7 q 703 -89 728 -89 l 696 -91 q 679 -84 680 -91 l 681 -81 l 683 -84 l 686 -84 q 713 -68 713 -79 l 703 -26 l 706 -26 l 710 -31 l 717 -28 l 717 -26 q 669 32 681 4 l 538 127 q 498 155 532 127 l 479 163 l 477 163 l 477 165 q 488 172 477 171 l 488 174 l 486 174 l 471 170 l 391 214 q 310 262 347 235 l 323 267 l 332 265 l 335 267 l 335 269 l 332 269 l 294 267 q 246 304 294 273 l 195 342 l 195 332 l 172 365 l 172 370 l 174 370 l 185 360 l 185 365 q 161 391 165 391 l 161 395 q 168 400 168 395 l 168 402 l 165 400 l 158 400 l 161 402 l 161 405 l 158 402 l 154 402 l 147 409 l 156 409 l 156 418 q 149 435 149 427 l 151 437 l 151 439 l 149 439 l 147 437 l 144 437 l 142 439 l 142 441 l 149 456 l 142 456 l 144 458 l 144 460 l 138 460 l 131 456 q 122 477 122 469 l 120 477 l 120 470 l 115 470 l 115 475 l 117 477 l 115 479 l 115 481 l 117 488 l 115 488 l 109 493 l 106 493 l 106 488 l 102 488 l 102 495 l 106 503 l 100 503 l 97 500 l 95 500 l 93 503 l 93 491 q 111 470 106 481 l 111 463 l 109 460 l 109 458 l 111 458 l 113 460 l 115 460 l 129 428 q 144 412 142 428 l 142 412 l 140 414 l 138 414 l 138 412 q 165 379 159 391 l 165 374 l 161 374 q 66 495 80 463 l 36 535 l 36 540 l 41 549 l 34 584 l 34 589 l 36 589 l 52 570 l 54 570 l 52 577 l 54 591 q 31 614 31 608 l 20 618 l 24 623 q 11 649 11 638 l 24 635 l 24 642 q 31 628 31 640 q 63 705 42 633 l 90 756 l 106 761 l 104 763 l 106 774 l 106 777 l 104 774 l 100 774 l 100 777 q 156 857 134 853 q 256 893 156 871 q 432 943 359 938 l 432 945 m 446 945 l 448 945 q 452 938 452 945 l 454 940 l 459 940 q 468 930 459 930 l 468 926 l 466 926 q 446 943 449 935 l 446 945 m 296 935 l 301 935 l 301 933 l 296 928 l 296 935 m 154 917 l 156 914 l 156 912 l 154 910 l 151 910 l 149 912 l 149 914 l 151 917 l 154 917 m 149 886 l 151 886 l 156 882 l 149 875 l 144 875 l 144 882 l 149 886 m 530 875 l 532 875 l 543 863 l 543 861 l 541 861 l 530 873 l 530 875 m 147 833 l 147 831 l 151 836 l 151 838 l 147 833 m 577 831 l 593 821 l 593 814 l 588 810 l 586 812 l 586 810 l 588 800 q 579 787 583 787 l 564 800 q 572 814 564 814 l 572 826 l 577 831 m -20 823 l -16 823 l -16 817 l -20 817 l -20 823 m 127 805 l 127 803 l 136 812 l 136 814 l 127 805 m 79 814 l 79 810 l 73 803 l 70 803 l 70 805 l 79 814 m 577 812 l 577 810 l 581 805 l 584 805 l 577 812 m 113 791 l 109 782 l 109 779 l 115 789 l 115 791 l 113 791 m -61 779 l -61 774 l -65 770 l -68 770 l -70 772 l -72 770 l -79 770 l -79 772 q -61 779 -79 778 m 20 758 l 20 751 l 16 747 l 14 747 l 9 751 l 9 756 l 20 758 m 235 758 q 260 747 235 754 l 262 745 l 262 740 l 258 740 q 231 756 231 753 l 233 758 l 235 758 m 635 753 l 638 753 l 647 745 l 647 740 l 635 753 m -22 712 q -11 696 -15 712 l -14 693 l -16 693 l -24 712 l -22 712 m 124 640 l 129 640 q 134 633 129 633 l 134 635 l 131 637 l 131 640 l 134 640 l 147 623 l 142 623 q 124 637 124 633 l 124 640 m 147 623 l 149 623 l 156 616 l 156 614 l 147 623 m 328 607 l 330 605 l 330 602 l 328 600 l 326 600 l 323 602 l 323 605 l 326 607 l 328 607 m 172 595 l 178 593 l 178 589 l 176 589 l 172 593 l 172 595 m 151 589 l 158 589 l 158 584 l 151 584 l 151 589 m 54 553 l 63 535 l 66 537 l 73 537 l 77 528 l 73 524 l 73 521 q 79 511 79 521 l 81 514 q 90 505 90 511 l 93 505 l 93 507 l 90 519 l 97 526 l 97 528 l 95 526 l 93 526 l 93 528 l 95 530 l 95 532 l 93 532 l 86 528 l 83 528 l 83 530 q 93 537 83 536 l 93 540 l 90 540 l 81 537 l 81 545 l 86 545 l 86 547 l 81 547 l 75 545 l 75 551 q 83 561 83 551 q 79 570 79 561 q 73 561 73 570 l 70 561 q 66 572 66 561 l 63 572 q 54 553 57 572 m 86 549 l 88 549 l 93 553 l 93 556 l 86 549 m 212 558 l 215 558 l 219 553 l 219 551 l 212 558 m 97 514 l 100 514 l 104 519 l 102 519 l 97 514 m 100 509 l 104 505 l 106 507 l 106 509 l 100 509 m 183 416 l 183 414 l 185 412 l 190 412 l 190 414 l 183 416 m 63 389 l 68 389 l 68 384 l 63 374 l 59 374 l 59 376 l 63 389 m 168 376 l 172 376 l 172 370 l 168 370 l 168 376 m 382 368 l 387 363 l 385 360 l 382 360 l 378 365 l 380 368 l 382 368 m 176 342 l 183 335 l 181 332 l 178 332 l 176 335 l 176 342 m 251 328 l 251 321 l 253 321 q 260 332 258 321 l 251 328 m 280 272 l 290 272 l 290 267 l 280 267 l 280 272 m 398 272 l 418 272 l 418 267 l 398 267 l 398 272 m 235 269 l 239 269 l 246 258 l 246 256 l 244 256 l 235 265 l 235 269 m 337 267 l 339 260 l 344 260 q 351 265 344 265 l 351 267 l 337 267 m 439 269 l 446 269 l 446 265 l 439 265 l 439 269 m 468 188 l 468 186 q 475 174 471 174 l 475 176 q 468 188 472 188 m 543 -96 l 545 -96 q 577 -105 551 -105 l 577 -110 l 536 -110 l 536 -105 q 543 -96 543 -105 m 606 -100 l 627 -102 l 629 -100 l 631 -100 l 633 -107 l 635 -105 l 647 -105 l 652 -110 l 652 -112 l 629 -110 l 600 -110 l 600 -107 l 606 -100 m 747 -107 l 781 -107 l 781 -112 l 747 -112 l 747 -107 m 828 -107 l 830 -107 l 882 -112 l 882 -117 l 828 -112 l 828 -107 z "}}}
